ISO-10303-21;
HEADER;
FILE_DESCRIPTION(('STEP d''encombrement · modèle simplifié | capteur GENERIC | corps 20×2.5×2.5 mm, enveloppe 20×2.5×2.5 mm | provenance : schéma pédagogique, aucune référence commandable | Ce fichier n''est ni un fichier fabricant ni une CAO de fabrication : géométrie d''encombrement approximée (FACETED_BREP), générée par scripts/generate-step-envelopes.ts. Usage pédagogique uniquement, aucune référence commandable.'),'2;1');
FILE_NAME('step/GENERIC.step','2026-01-01T00:00:00',('Standex Sensor Studio'),('Standex Detect'),'generate-step-envelopes.ts','','');
FILE_SCHEMA(('AUTOMOTIVE_DESIGN { 1 0 10303 214 1 1 1 1 }'));
ENDSEC;
DATA;
#1=(NAMED_UNIT(*)LENGTH_UNIT()SI_UNIT(.MILLI.,.METRE.));
#2=(NAMED_UNIT(*)PLANE_ANGLE_UNIT()SI_UNIT($,.RADIAN.));
#3=(NAMED_UNIT(*)SOLID_ANGLE_UNIT()SI_UNIT($,.STERADIAN.));
#4=UNCERTAINTY_MEASURE_WITH_UNIT(LENGTH_MEASURE(1.0E-6),#1,'distance_accuracy_value','');
#5=APPLICATION_CONTEXT('encombrement capteur reed - modele simplifie');
#6=PRODUCT_CONTEXT('',#5,'mechanical');
#7=PRODUCT_DEFINITION_CONTEXT('',#5,'design');
#8=CARTESIAN_POINT('',(-10.000000,1.207407,-0.323524));
#9=DIRECTION('',(-1.000000000,0.000000000,0.000000000));
#10=DIRECTION('',(0.000000000,0.000000000,-1.000000000));
#11=AXIS2_PLACEMENT_3D('',#8,#9,#10);
#12=PLANE('',#11);
#13=CARTESIAN_POINT('',(-10.000000,1.082532,-0.625000));
#14=CARTESIAN_POINT('',(-10.000000,0.883883,-0.883883));
#15=CARTESIAN_POINT('',(-10.000000,0.625000,-1.082532));
#16=CARTESIAN_POINT('',(-10.000000,0.323524,-1.207407));
#17=CARTESIAN_POINT('',(-10.000000,-0.000000,-1.250000));
#18=CARTESIAN_POINT('',(-10.000000,-0.323524,-1.207407));
#19=CARTESIAN_POINT('',(-10.000000,-0.625000,-1.082532));
#20=CARTESIAN_POINT('',(-10.000000,-0.883883,-0.883883));
#21=CARTESIAN_POINT('',(-10.000000,-1.082532,-0.625000));
#22=CARTESIAN_POINT('',(-10.000000,-1.207407,-0.323524));
#23=CARTESIAN_POINT('',(-10.000000,-1.250000,0.000000));
#24=CARTESIAN_POINT('',(-10.000000,-1.207407,0.323524));
#25=CARTESIAN_POINT('',(-10.000000,-1.082532,0.625000));
#26=CARTESIAN_POINT('',(-10.000000,-0.883883,0.883883));
#27=CARTESIAN_POINT('',(-10.000000,-0.625000,1.082532));
#28=CARTESIAN_POINT('',(-10.000000,-0.323524,1.207407));
#29=CARTESIAN_POINT('',(-10.000000,0.000000,1.250000));
#30=CARTESIAN_POINT('',(-10.000000,0.323524,1.207407));
#31=CARTESIAN_POINT('',(-10.000000,0.625000,1.082532));
#32=CARTESIAN_POINT('',(-10.000000,0.883883,0.883883));
#33=CARTESIAN_POINT('',(-10.000000,1.082532,0.625000));
#34=CARTESIAN_POINT('',(-10.000000,1.207407,0.323524));
#35=CARTESIAN_POINT('',(-10.000000,1.250000,0.000000));
#36=POLY_LOOP('',(#8,#13,#14,#15,#16,#17,#18,#19,#20,#21,#22,#23,#24,#25,#26,#27,#28,#29,#30,#31,#32,#33,#34,#35));
#37=FACE_OUTER_BOUND('',#36,.T.);
#38=FACE_SURFACE('',(#37),#12,.T.);
#39=CARTESIAN_POINT('',(10.000000,1.250000,0.000000));
#40=DIRECTION('',(1.000000000,0.000000000,0.000000000));
#41=DIRECTION('',(0.000000000,0.000000000,1.000000000));
#42=AXIS2_PLACEMENT_3D('',#39,#40,#41);
#43=PLANE('',#42);
#44=CARTESIAN_POINT('',(10.000000,1.207407,0.323524));
#45=CARTESIAN_POINT('',(10.000000,1.082532,0.625000));
#46=CARTESIAN_POINT('',(10.000000,0.883883,0.883883));
#47=CARTESIAN_POINT('',(10.000000,0.625000,1.082532));
#48=CARTESIAN_POINT('',(10.000000,0.323524,1.207407));
#49=CARTESIAN_POINT('',(10.000000,0.000000,1.250000));
#50=CARTESIAN_POINT('',(10.000000,-0.323524,1.207407));
#51=CARTESIAN_POINT('',(10.000000,-0.625000,1.082532));
#52=CARTESIAN_POINT('',(10.000000,-0.883883,0.883883));
#53=CARTESIAN_POINT('',(10.000000,-1.082532,0.625000));
#54=CARTESIAN_POINT('',(10.000000,-1.207407,0.323524));
#55=CARTESIAN_POINT('',(10.000000,-1.250000,0.000000));
#56=CARTESIAN_POINT('',(10.000000,-1.207407,-0.323524));
#57=CARTESIAN_POINT('',(10.000000,-1.082532,-0.625000));
#58=CARTESIAN_POINT('',(10.000000,-0.883883,-0.883883));
#59=CARTESIAN_POINT('',(10.000000,-0.625000,-1.082532));
#60=CARTESIAN_POINT('',(10.000000,-0.323524,-1.207407));
#61=CARTESIAN_POINT('',(10.000000,-0.000000,-1.250000));
#62=CARTESIAN_POINT('',(10.000000,0.323524,-1.207407));
#63=CARTESIAN_POINT('',(10.000000,0.625000,-1.082532));
#64=CARTESIAN_POINT('',(10.000000,0.883883,-0.883883));
#65=CARTESIAN_POINT('',(10.000000,1.082532,-0.625000));
#66=CARTESIAN_POINT('',(10.000000,1.207407,-0.323524));
#67=POLY_LOOP('',(#39,#44,#45,#46,#47,#48,#49,#50,#51,#52,#53,#54,#55,#56,#57,#58,#59,#60,#61,#62,#63,#64,#65,#66));
#68=FACE_OUTER_BOUND('',#67,.T.);
#69=FACE_SURFACE('',(#68),#43,.T.);
#70=DIRECTION('',(0.000000000,0.991444861,0.130526192));
#71=DIRECTION('',(0.000000000,0.130526192,-0.991444861));
#72=AXIS2_PLACEMENT_3D('',#35,#70,#71);
#73=PLANE('',#72);
#74=POLY_LOOP('',(#35,#34,#44,#39));
#75=FACE_OUTER_BOUND('',#74,.T.);
#76=FACE_SURFACE('',(#75),#73,.T.);
#77=DIRECTION('',(0.000000000,0.923879533,0.382683432));
#78=DIRECTION('',(0.000000000,0.382683432,-0.923879533));
#79=AXIS2_PLACEMENT_3D('',#34,#77,#78);
#80=PLANE('',#79);
#81=POLY_LOOP('',(#34,#33,#45,#44));
#82=FACE_OUTER_BOUND('',#81,.T.);
#83=FACE_SURFACE('',(#82),#80,.T.);
#84=DIRECTION('',(0.000000000,0.793353340,0.608761429));
#85=DIRECTION('',(0.000000000,0.608761429,-0.793353340));
#86=AXIS2_PLACEMENT_3D('',#33,#84,#85);
#87=PLANE('',#86);
#88=POLY_LOOP('',(#33,#32,#46,#45));
#89=FACE_OUTER_BOUND('',#88,.T.);
#90=FACE_SURFACE('',(#89),#87,.T.);
#91=DIRECTION('',(0.000000000,0.608761429,0.793353340));
#92=DIRECTION('',(0.000000000,0.793353340,-0.608761429));
#93=AXIS2_PLACEMENT_3D('',#32,#91,#92);
#94=PLANE('',#93);
#95=POLY_LOOP('',(#32,#31,#47,#46));
#96=FACE_OUTER_BOUND('',#95,.T.);
#97=FACE_SURFACE('',(#96),#94,.T.);
#98=DIRECTION('',(0.000000000,0.382683432,0.923879533));
#99=DIRECTION('',(0.000000000,0.923879533,-0.382683432));
#100=AXIS2_PLACEMENT_3D('',#31,#98,#99);
#101=PLANE('',#100);
#102=POLY_LOOP('',(#31,#30,#48,#47));
#103=FACE_OUTER_BOUND('',#102,.T.);
#104=FACE_SURFACE('',(#103),#101,.T.);
#105=DIRECTION('',(0.000000000,0.130526192,0.991444861));
#106=DIRECTION('',(0.000000000,0.991444861,-0.130526192));
#107=AXIS2_PLACEMENT_3D('',#30,#105,#106);
#108=PLANE('',#107);
#109=POLY_LOOP('',(#30,#29,#49,#48));
#110=FACE_OUTER_BOUND('',#109,.T.);
#111=FACE_SURFACE('',(#110),#108,.T.);
#112=DIRECTION('',(0.000000000,-0.130526192,0.991444861));
#113=AXIS2_PLACEMENT_3D('',#29,#112,#70);
#114=PLANE('',#113);
#115=POLY_LOOP('',(#29,#28,#50,#49));
#116=FACE_OUTER_BOUND('',#115,.T.);
#117=FACE_SURFACE('',(#116),#114,.T.);
#118=DIRECTION('',(0.000000000,-0.382683432,0.923879533));
#119=AXIS2_PLACEMENT_3D('',#28,#118,#77);
#120=PLANE('',#119);
#121=POLY_LOOP('',(#28,#27,#51,#50));
#122=FACE_OUTER_BOUND('',#121,.T.);
#123=FACE_SURFACE('',(#122),#120,.T.);
#124=DIRECTION('',(0.000000000,-0.608761429,0.793353340));
#125=AXIS2_PLACEMENT_3D('',#27,#124,#84);
#126=PLANE('',#125);
#127=POLY_LOOP('',(#27,#26,#52,#51));
#128=FACE_OUTER_BOUND('',#127,.T.);
#129=FACE_SURFACE('',(#128),#126,.T.);
#130=DIRECTION('',(0.000000000,-0.793353340,0.608761429));
#131=AXIS2_PLACEMENT_3D('',#26,#130,#91);
#132=PLANE('',#131);
#133=POLY_LOOP('',(#26,#25,#53,#52));
#134=FACE_OUTER_BOUND('',#133,.T.);
#135=FACE_SURFACE('',(#134),#132,.T.);
#136=DIRECTION('',(0.000000000,-0.923879533,0.382683432));
#137=AXIS2_PLACEMENT_3D('',#25,#136,#98);
#138=PLANE('',#137);
#139=POLY_LOOP('',(#25,#24,#54,#53));
#140=FACE_OUTER_BOUND('',#139,.T.);
#141=FACE_SURFACE('',(#140),#138,.T.);
#142=DIRECTION('',(0.000000000,-0.991444861,0.130526192));
#143=AXIS2_PLACEMENT_3D('',#24,#142,#105);
#144=PLANE('',#143);
#145=POLY_LOOP('',(#24,#23,#55,#54));
#146=FACE_OUTER_BOUND('',#145,.T.);
#147=FACE_SURFACE('',(#146),#144,.T.);
#148=DIRECTION('',(0.000000000,-0.991444861,-0.130526192));
#149=AXIS2_PLACEMENT_3D('',#23,#148,#112);
#150=PLANE('',#149);
#151=POLY_LOOP('',(#23,#22,#56,#55));
#152=FACE_OUTER_BOUND('',#151,.T.);
#153=FACE_SURFACE('',(#152),#150,.T.);
#154=DIRECTION('',(0.000000000,-0.923879533,-0.382683432));
#155=AXIS2_PLACEMENT_3D('',#22,#154,#118);
#156=PLANE('',#155);
#157=POLY_LOOP('',(#22,#21,#57,#56));
#158=FACE_OUTER_BOUND('',#157,.T.);
#159=FACE_SURFACE('',(#158),#156,.T.);
#160=DIRECTION('',(0.000000000,-0.793353340,-0.608761429));
#161=AXIS2_PLACEMENT_3D('',#21,#160,#124);
#162=PLANE('',#161);
#163=POLY_LOOP('',(#21,#20,#58,#57));
#164=FACE_OUTER_BOUND('',#163,.T.);
#165=FACE_SURFACE('',(#164),#162,.T.);
#166=DIRECTION('',(0.000000000,-0.608761429,-0.793353340));
#167=AXIS2_PLACEMENT_3D('',#20,#166,#130);
#168=PLANE('',#167);
#169=POLY_LOOP('',(#20,#19,#59,#58));
#170=FACE_OUTER_BOUND('',#169,.T.);
#171=FACE_SURFACE('',(#170),#168,.T.);
#172=DIRECTION('',(0.000000000,-0.382683432,-0.923879533));
#173=AXIS2_PLACEMENT_3D('',#19,#172,#136);
#174=PLANE('',#173);
#175=POLY_LOOP('',(#19,#18,#60,#59));
#176=FACE_OUTER_BOUND('',#175,.T.);
#177=FACE_SURFACE('',(#176),#174,.T.);
#178=DIRECTION('',(0.000000000,-0.130526192,-0.991444861));
#179=AXIS2_PLACEMENT_3D('',#18,#178,#142);
#180=PLANE('',#179);
#181=POLY_LOOP('',(#18,#17,#61,#60));
#182=FACE_OUTER_BOUND('',#181,.T.);
#183=FACE_SURFACE('',(#182),#180,.T.);
#184=AXIS2_PLACEMENT_3D('',#17,#71,#148);
#185=PLANE('',#184);
#186=POLY_LOOP('',(#17,#16,#62,#61));
#187=FACE_OUTER_BOUND('',#186,.T.);
#188=FACE_SURFACE('',(#187),#185,.T.);
#189=AXIS2_PLACEMENT_3D('',#16,#78,#154);
#190=PLANE('',#189);
#191=POLY_LOOP('',(#16,#15,#63,#62));
#192=FACE_OUTER_BOUND('',#191,.T.);
#193=FACE_SURFACE('',(#192),#190,.T.);
#194=AXIS2_PLACEMENT_3D('',#15,#85,#160);
#195=PLANE('',#194);
#196=POLY_LOOP('',(#15,#14,#64,#63));
#197=FACE_OUTER_BOUND('',#196,.T.);
#198=FACE_SURFACE('',(#197),#195,.T.);
#199=AXIS2_PLACEMENT_3D('',#14,#92,#166);
#200=PLANE('',#199);
#201=POLY_LOOP('',(#14,#13,#65,#64));
#202=FACE_OUTER_BOUND('',#201,.T.);
#203=FACE_SURFACE('',(#202),#200,.T.);
#204=AXIS2_PLACEMENT_3D('',#13,#99,#172);
#205=PLANE('',#204);
#206=POLY_LOOP('',(#13,#8,#66,#65));
#207=FACE_OUTER_BOUND('',#206,.T.);
#208=FACE_SURFACE('',(#207),#205,.T.);
#209=AXIS2_PLACEMENT_3D('',#8,#106,#178);
#210=PLANE('',#209);
#211=POLY_LOOP('',(#8,#35,#39,#66));
#212=FACE_OUTER_BOUND('',#211,.T.);
#213=FACE_SURFACE('',(#212),#210,.T.);
#214=CLOSED_SHELL('',(#38,#69,#76,#83,#90,#97,#104,#111,#117,#123,#129,#135,#141,#147,#153,#159,#165,#171,#177,#183,#188,#193,#198,#203,#208,#213));
#215=FACETED_BREP('GENERIC_corps',#214);
#216=(GEOMETRIC_REPRESENTATION_CONTEXT(3)GLOBAL_UNIT_ASSIGNED_CONTEXT((#1,#2,#3))GLOBAL_UNCERTAINTY_ASSIGNED_CONTEXT((#4))REPRESENTATION_CONTEXT('',''));
#217=FACETED_BREP_SHAPE_REPRESENTATION('GENERIC',(#215),#216);
#218=PRODUCT('GENERIC','Reed pédagogique','corps 20×2.5×2.5 mm, enveloppe 20×2.5×2.5 mm',(#6));
#219=PRODUCT_DEFINITION_FORMATION('','',#218);
#220=PRODUCT_DEFINITION('','',#219,#7);
#221=PRODUCT_DEFINITION_SHAPE('','',#220);
#222=SHAPE_DEFINITION_REPRESENTATION(#221,#217);
ENDSEC;
END-ISO-10303-21;
