ISO-10303-21;
HEADER;
FILE_DESCRIPTION(('STEP d''encombrement · modèle simplifié | capteur MK02 | corps 32.4×10×16.8 mm, enveloppe 32.4×10×16.8 mm | provenance : MK02.pdf, page 1 | Ce fichier n''est ni un fichier fabricant ni une CAO de fabrication : géométrie d''encombrement approximée (FACETED_BREP), générée par scripts/generate-step-envelopes.ts.'),'2;1');
FILE_NAME('step/MK02.step','2026-01-01T00:00:00',('Standex Sensor Studio'),('Standex Detect'),'generate-step-envelopes.ts','','');
FILE_SCHEMA(('AUTOMOTIVE_DESIGN { 1 0 10303 214 1 1 1 1 }'));
ENDSEC;
DATA;
#UNITMM=(NAMED_UNIT(*)LENGTH_UNIT()SI_UNIT(.MILLI.,.METRE.));
#UNITRAD=(NAMED_UNIT(*)PLANE_ANGLE_UNIT()SI_UNIT($,.RADIAN.));
#UNITSR=(NAMED_UNIT(*)SOLID_ANGLE_UNIT()SI_UNIT($,.STERADIAN.));
#UNCERT=UNCERTAINTY_MEASURE_WITH_UNIT(LENGTH_MEASURE(1.0E-6),#UNITMM,'','');
#PC=PRODUCT_CONTEXT('',#PC2,'mechanical');
#PC2=APPLICATION_CONTEXT('encombrement capteur reed - modele simplifie');
#1=CARTESIAN_POINT('',(-16.200000,5.000000,-8.400000));
#2=DIRECTION('',(0.000000000,-1.000000000,0.000000000));
#3=DIRECTION('',(0.000000000,0.000000000,1.000000000));
#4=AXIS2_PLACEMENT_3D('',#1,#2,#3);
#5=PLANE('',#4);
#6=CARTESIAN_POINT('',(-16.200000,5.000000,-8.400000));
#7=CARTESIAN_POINT('',(16.200000,5.000000,-8.400000));
#8=CARTESIAN_POINT('',(16.200000,5.000000,8.400000));
#9=CARTESIAN_POINT('',(-16.200000,5.000000,8.400000));
#10=POLY_LOOP('',(#6,#7,#8,#9));
#11=FACE_OUTER_BOUND('',#10,.T.);
#12=CARTESIAN_POINT('',(-12.600000,5.000000,6.850000));
#13=CARTESIAN_POINT('',(-9.400000,5.000000,6.850000));
#14=CARTESIAN_POINT('',(-9.400000,5.000000,1.450000));
#15=CARTESIAN_POINT('',(-12.600000,5.000000,1.450000));
#16=POLY_LOOP('',(#12,#13,#14,#15));
#17=FACE_BOUND('',#16,.F.);
#18=CARTESIAN_POINT('',(9.400000,5.000000,6.850000));
#19=CARTESIAN_POINT('',(12.600000,5.000000,6.850000));
#20=CARTESIAN_POINT('',(12.600000,5.000000,1.450000));
#21=CARTESIAN_POINT('',(9.400000,5.000000,1.450000));
#22=POLY_LOOP('',(#18,#19,#20,#21));
#23=FACE_BOUND('',#22,.F.);
#24=ADVANCED_FACE('',(#11,#17,#23),#5,.T.);
#25=CARTESIAN_POINT('',(-16.200000,-5.000000,8.400000));
#26=DIRECTION('',(0.000000000,1.000000000,0.000000000));
#27=DIRECTION('',(0.000000000,0.000000000,-1.000000000));
#28=AXIS2_PLACEMENT_3D('',#25,#26,#27);
#29=PLANE('',#28);
#30=CARTESIAN_POINT('',(-16.200000,-5.000000,8.400000));
#31=CARTESIAN_POINT('',(16.200000,-5.000000,8.400000));
#32=CARTESIAN_POINT('',(16.200000,-5.000000,-8.400000));
#33=CARTESIAN_POINT('',(-16.200000,-5.000000,-8.400000));
#34=POLY_LOOP('',(#30,#31,#32,#33));
#35=FACE_OUTER_BOUND('',#34,.T.);
#36=CARTESIAN_POINT('',(-12.600000,-5.000000,1.450000));
#37=CARTESIAN_POINT('',(-9.400000,-5.000000,1.450000));
#38=CARTESIAN_POINT('',(-9.400000,-5.000000,6.850000));
#39=CARTESIAN_POINT('',(-12.600000,-5.000000,6.850000));
#40=POLY_LOOP('',(#36,#37,#38,#39));
#41=FACE_BOUND('',#40,.F.);
#42=CARTESIAN_POINT('',(9.400000,-5.000000,1.450000));
#43=CARTESIAN_POINT('',(12.600000,-5.000000,1.450000));
#44=CARTESIAN_POINT('',(12.600000,-5.000000,6.850000));
#45=CARTESIAN_POINT('',(9.400000,-5.000000,6.850000));
#46=POLY_LOOP('',(#42,#43,#44,#45));
#47=FACE_BOUND('',#46,.F.);
#48=ADVANCED_FACE('',(#35,#41,#47),#29,.T.);
#49=CARTESIAN_POINT('',(-16.200000,-5.000000,-8.400000));
#50=DIRECTION('',(1.000000000,0.000000000,0.000000000));
#51=DIRECTION('',(0.000000000,0.000000000,1.000000000));
#52=AXIS2_PLACEMENT_3D('',#49,#50,#51);
#53=PLANE('',#52);
#54=CARTESIAN_POINT('',(-16.200000,-5.000000,-8.400000));
#55=CARTESIAN_POINT('',(-16.200000,5.000000,-8.400000));
#56=CARTESIAN_POINT('',(-16.200000,5.000000,8.400000));
#57=CARTESIAN_POINT('',(-16.200000,-5.000000,8.400000));
#58=POLY_LOOP('',(#54,#55,#56,#57));
#59=FACE_OUTER_BOUND('',#58,.T.);
#60=ADVANCED_FACE('',(#59),#53,.T.);
#61=CARTESIAN_POINT('',(16.200000,-5.000000,8.400000));
#62=DIRECTION('',(-1.000000000,0.000000000,0.000000000));
#63=DIRECTION('',(0.000000000,0.000000000,-1.000000000));
#64=AXIS2_PLACEMENT_3D('',#61,#62,#63);
#65=PLANE('',#64);
#66=CARTESIAN_POINT('',(16.200000,-5.000000,8.400000));
#67=CARTESIAN_POINT('',(16.200000,5.000000,8.400000));
#68=CARTESIAN_POINT('',(16.200000,5.000000,-8.400000));
#69=CARTESIAN_POINT('',(16.200000,-5.000000,-8.400000));
#70=POLY_LOOP('',(#66,#67,#68,#69));
#71=FACE_OUTER_BOUND('',#70,.T.);
#72=ADVANCED_FACE('',(#71),#65,.T.);
#73=CARTESIAN_POINT('',(-16.200000,-5.000000,-8.400000));
#74=DIRECTION('',(0.000000000,0.000000000,1.000000000));
#75=DIRECTION('',(0.000000000,1.000000000,0.000000000));
#76=AXIS2_PLACEMENT_3D('',#73,#74,#75);
#77=PLANE('',#76);
#78=CARTESIAN_POINT('',(-16.200000,-5.000000,-8.400000));
#79=CARTESIAN_POINT('',(16.200000,-5.000000,-8.400000));
#80=CARTESIAN_POINT('',(16.200000,5.000000,-8.400000));
#81=CARTESIAN_POINT('',(-16.200000,5.000000,-8.400000));
#82=POLY_LOOP('',(#78,#79,#80,#81));
#83=FACE_OUTER_BOUND('',#82,.T.);
#84=ADVANCED_FACE('',(#83),#77,.T.);
#85=CARTESIAN_POINT('',(16.200000,-5.000000,8.400000));
#86=DIRECTION('',(0.000000000,0.000000000,-1.000000000));
#87=DIRECTION('',(0.000000000,-1.000000000,0.000000000));
#88=AXIS2_PLACEMENT_3D('',#85,#86,#87);
#89=PLANE('',#88);
#90=CARTESIAN_POINT('',(16.200000,-5.000000,8.400000));
#91=CARTESIAN_POINT('',(-16.200000,-5.000000,8.400000));
#92=CARTESIAN_POINT('',(-16.200000,5.000000,8.400000));
#93=CARTESIAN_POINT('',(16.200000,5.000000,8.400000));
#94=POLY_LOOP('',(#90,#91,#92,#93));
#95=FACE_OUTER_BOUND('',#94,.T.);
#96=ADVANCED_FACE('',(#95),#89,.T.);
#97=CARTESIAN_POINT('',(-12.600000,-5.000000,1.450000));
#98=DIRECTION('',(-1.000000000,0.000000000,0.000000000));
#99=DIRECTION('',(0.000000000,0.000000000,-1.000000000));
#100=AXIS2_PLACEMENT_3D('',#97,#98,#99);
#101=PLANE('',#100);
#102=CARTESIAN_POINT('',(-12.600000,-5.000000,1.450000));
#103=CARTESIAN_POINT('',(-12.600000,-5.000000,6.850000));
#104=CARTESIAN_POINT('',(-12.600000,5.000000,6.850000));
#105=CARTESIAN_POINT('',(-12.600000,5.000000,1.450000));
#106=POLY_LOOP('',(#102,#103,#104,#105));
#107=FACE_OUTER_BOUND('',#106,.T.);
#108=ADVANCED_FACE('',(#107),#101,.T.);
#109=CARTESIAN_POINT('',(-9.400000,-5.000000,6.850000));
#110=DIRECTION('',(1.000000000,0.000000000,0.000000000));
#111=DIRECTION('',(0.000000000,0.000000000,1.000000000));
#112=AXIS2_PLACEMENT_3D('',#109,#110,#111);
#113=PLANE('',#112);
#114=CARTESIAN_POINT('',(-9.400000,-5.000000,6.850000));
#115=CARTESIAN_POINT('',(-9.400000,-5.000000,1.450000));
#116=CARTESIAN_POINT('',(-9.400000,5.000000,1.450000));
#117=CARTESIAN_POINT('',(-9.400000,5.000000,6.850000));
#118=POLY_LOOP('',(#114,#115,#116,#117));
#119=FACE_OUTER_BOUND('',#118,.T.);
#120=ADVANCED_FACE('',(#119),#113,.T.);
#121=CARTESIAN_POINT('',(-12.600000,-5.000000,6.850000));
#122=DIRECTION('',(0.000000000,0.000000000,1.000000000));
#123=DIRECTION('',(0.000000000,1.000000000,0.000000000));
#124=AXIS2_PLACEMENT_3D('',#121,#122,#123);
#125=PLANE('',#124);
#126=CARTESIAN_POINT('',(-12.600000,-5.000000,6.850000));
#127=CARTESIAN_POINT('',(-9.400000,-5.000000,6.850000));
#128=CARTESIAN_POINT('',(-9.400000,5.000000,6.850000));
#129=CARTESIAN_POINT('',(-12.600000,5.000000,6.850000));
#130=POLY_LOOP('',(#126,#127,#128,#129));
#131=FACE_OUTER_BOUND('',#130,.T.);
#132=ADVANCED_FACE('',(#131),#125,.T.);
#133=CARTESIAN_POINT('',(-9.400000,-5.000000,1.450000));
#134=DIRECTION('',(0.000000000,0.000000000,-1.000000000));
#135=DIRECTION('',(0.000000000,-1.000000000,0.000000000));
#136=AXIS2_PLACEMENT_3D('',#133,#134,#135);
#137=PLANE('',#136);
#138=CARTESIAN_POINT('',(-9.400000,-5.000000,1.450000));
#139=CARTESIAN_POINT('',(-12.600000,-5.000000,1.450000));
#140=CARTESIAN_POINT('',(-12.600000,5.000000,1.450000));
#141=CARTESIAN_POINT('',(-9.400000,5.000000,1.450000));
#142=POLY_LOOP('',(#138,#139,#140,#141));
#143=FACE_OUTER_BOUND('',#142,.T.);
#144=ADVANCED_FACE('',(#143),#137,.T.);
#145=CARTESIAN_POINT('',(9.400000,-5.000000,1.450000));
#146=DIRECTION('',(-1.000000000,0.000000000,0.000000000));
#147=DIRECTION('',(0.000000000,0.000000000,-1.000000000));
#148=AXIS2_PLACEMENT_3D('',#145,#146,#147);
#149=PLANE('',#148);
#150=CARTESIAN_POINT('',(9.400000,-5.000000,1.450000));
#151=CARTESIAN_POINT('',(9.400000,-5.000000,6.850000));
#152=CARTESIAN_POINT('',(9.400000,5.000000,6.850000));
#153=CARTESIAN_POINT('',(9.400000,5.000000,1.450000));
#154=POLY_LOOP('',(#150,#151,#152,#153));
#155=FACE_OUTER_BOUND('',#154,.T.);
#156=ADVANCED_FACE('',(#155),#149,.T.);
#157=CARTESIAN_POINT('',(12.600000,-5.000000,6.850000));
#158=DIRECTION('',(1.000000000,0.000000000,0.000000000));
#159=DIRECTION('',(0.000000000,0.000000000,1.000000000));
#160=AXIS2_PLACEMENT_3D('',#157,#158,#159);
#161=PLANE('',#160);
#162=CARTESIAN_POINT('',(12.600000,-5.000000,6.850000));
#163=CARTESIAN_POINT('',(12.600000,-5.000000,1.450000));
#164=CARTESIAN_POINT('',(12.600000,5.000000,1.450000));
#165=CARTESIAN_POINT('',(12.600000,5.000000,6.850000));
#166=POLY_LOOP('',(#162,#163,#164,#165));
#167=FACE_OUTER_BOUND('',#166,.T.);
#168=ADVANCED_FACE('',(#167),#161,.T.);
#169=CARTESIAN_POINT('',(9.400000,-5.000000,6.850000));
#170=DIRECTION('',(0.000000000,0.000000000,1.000000000));
#171=DIRECTION('',(0.000000000,1.000000000,0.000000000));
#172=AXIS2_PLACEMENT_3D('',#169,#170,#171);
#173=PLANE('',#172);
#174=CARTESIAN_POINT('',(9.400000,-5.000000,6.850000));
#175=CARTESIAN_POINT('',(12.600000,-5.000000,6.850000));
#176=CARTESIAN_POINT('',(12.600000,5.000000,6.850000));
#177=CARTESIAN_POINT('',(9.400000,5.000000,6.850000));
#178=POLY_LOOP('',(#174,#175,#176,#177));
#179=FACE_OUTER_BOUND('',#178,.T.);
#180=ADVANCED_FACE('',(#179),#173,.T.);
#181=CARTESIAN_POINT('',(12.600000,-5.000000,1.450000));
#182=DIRECTION('',(0.000000000,0.000000000,-1.000000000));
#183=DIRECTION('',(0.000000000,-1.000000000,0.000000000));
#184=AXIS2_PLACEMENT_3D('',#181,#182,#183);
#185=PLANE('',#184);
#186=CARTESIAN_POINT('',(12.600000,-5.000000,1.450000));
#187=CARTESIAN_POINT('',(9.400000,-5.000000,1.450000));
#188=CARTESIAN_POINT('',(9.400000,5.000000,1.450000));
#189=CARTESIAN_POINT('',(12.600000,5.000000,1.450000));
#190=POLY_LOOP('',(#186,#187,#188,#189));
#191=FACE_OUTER_BOUND('',#190,.T.);
#192=ADVANCED_FACE('',(#191),#185,.T.);
#193=CLOSED_SHELL('',(#24,#48,#60,#72,#84,#96,#108,#120,#132,#144,#156,#168,#180,#192));
#194=MANIFOLD_SOLID_BREP('MK02_corps',#193);
#195=(GEOMETRIC_REPRESENTATION_CONTEXT(3)GLOBAL_UNIT_ASSIGNED_CONTEXT((#UNITMM,#UNITRAD,#UNITSR))GLOBAL_UNCERTAINTY_ASSIGNED_CONTEXT((#UNCERT))REPRESENTATION_CONTEXT('',''));
#196=SHAPE_REPRESENTATION('MK02',(#194),#195);
#197=PRODUCT('MK02','MK02','corps 32.4×10×16.8 mm, enveloppe 32.4×10×16.8 mm',(#PC));
#PDF=PRODUCT_DEFINITION_FORMATION('','',#197);
#PD=PRODUCT_DEFINITION('','',#PDF,#PDC);
#PDC=PRODUCT_DEFINITION_CONTEXT('',#PC2,'design');
#PDS=PRODUCT_DEFINITION_SHAPE('','',#PD);
#SDR=SHAPE_DEFINITION_REPRESENTATION(#PDS,#196);
ENDSEC;
END-ISO-10303-21;
