ISO-10303-21;
HEADER;
FILE_DESCRIPTION(('STEP d''encombrement · modèle simplifié | capteur MK05 | corps 23×5.9×19.4 mm, enveloppe 23×5.9×19.4 mm | provenance : MK05.pdf, page 1 | Ce fichier n''est ni un fichier fabricant ni une CAO de fabrication : géométrie d''encombrement approximée (FACETED_BREP), générée par scripts/generate-step-envelopes.ts.'),'2;1');
FILE_NAME('step/MK05.step','2026-01-01T00:00:00',('Standex Sensor Studio'),('Standex Detect'),'generate-step-envelopes.ts','','');
FILE_SCHEMA(('AUTOMOTIVE_DESIGN { 1 0 10303 214 1 1 1 1 }'));
ENDSEC;
DATA;
#UNITMM=(NAMED_UNIT(*)LENGTH_UNIT()SI_UNIT(.MILLI.,.METRE.));
#UNITRAD=(NAMED_UNIT(*)PLANE_ANGLE_UNIT()SI_UNIT($,.RADIAN.));
#UNITSR=(NAMED_UNIT(*)SOLID_ANGLE_UNIT()SI_UNIT($,.STERADIAN.));
#UNCERT=UNCERTAINTY_MEASURE_WITH_UNIT(LENGTH_MEASURE(1.0E-6),#UNITMM,'','');
#PC=PRODUCT_CONTEXT('',#PC2,'mechanical');
#PC2=APPLICATION_CONTEXT('encombrement capteur reed - modele simplifie');
#1=CARTESIAN_POINT('',(-11.500000,2.950000,-9.700000));
#2=DIRECTION('',(0.000000000,-1.000000000,0.000000000));
#3=DIRECTION('',(0.000000000,0.000000000,1.000000000));
#4=AXIS2_PLACEMENT_3D('',#1,#2,#3);
#5=PLANE('',#4);
#6=CARTESIAN_POINT('',(-11.500000,2.950000,-9.700000));
#7=CARTESIAN_POINT('',(11.500000,2.950000,-9.700000));
#8=CARTESIAN_POINT('',(11.500000,2.950000,9.700000));
#9=CARTESIAN_POINT('',(-11.500000,2.950000,9.700000));
#10=POLY_LOOP('',(#6,#7,#8,#9));
#11=FACE_OUTER_BOUND('',#10,.T.);
#12=CARTESIAN_POINT('',(-8.500000,2.950000,6.250000));
#13=CARTESIAN_POINT('',(8.500000,2.950000,6.250000));
#14=CARTESIAN_POINT('',(8.500000,2.950000,1.150000));
#15=CARTESIAN_POINT('',(-8.500000,2.950000,1.150000));
#16=POLY_LOOP('',(#12,#13,#14,#15));
#17=FACE_BOUND('',#16,.F.);
#18=ADVANCED_FACE('',(#11,#17),#5,.T.);
#19=CARTESIAN_POINT('',(-11.500000,-2.950000,9.700000));
#20=DIRECTION('',(0.000000000,1.000000000,0.000000000));
#21=DIRECTION('',(0.000000000,0.000000000,-1.000000000));
#22=AXIS2_PLACEMENT_3D('',#19,#20,#21);
#23=PLANE('',#22);
#24=CARTESIAN_POINT('',(-11.500000,-2.950000,9.700000));
#25=CARTESIAN_POINT('',(11.500000,-2.950000,9.700000));
#26=CARTESIAN_POINT('',(11.500000,-2.950000,-9.700000));
#27=CARTESIAN_POINT('',(-11.500000,-2.950000,-9.700000));
#28=POLY_LOOP('',(#24,#25,#26,#27));
#29=FACE_OUTER_BOUND('',#28,.T.);
#30=CARTESIAN_POINT('',(-8.500000,-2.950000,1.150000));
#31=CARTESIAN_POINT('',(8.500000,-2.950000,1.150000));
#32=CARTESIAN_POINT('',(8.500000,-2.950000,6.250000));
#33=CARTESIAN_POINT('',(-8.500000,-2.950000,6.250000));
#34=POLY_LOOP('',(#30,#31,#32,#33));
#35=FACE_BOUND('',#34,.F.);
#36=ADVANCED_FACE('',(#29,#35),#23,.T.);
#37=CARTESIAN_POINT('',(-11.500000,-2.950000,-9.700000));
#38=DIRECTION('',(1.000000000,0.000000000,0.000000000));
#39=DIRECTION('',(0.000000000,0.000000000,1.000000000));
#40=AXIS2_PLACEMENT_3D('',#37,#38,#39);
#41=PLANE('',#40);
#42=CARTESIAN_POINT('',(-11.500000,-2.950000,-9.700000));
#43=CARTESIAN_POINT('',(-11.500000,2.950000,-9.700000));
#44=CARTESIAN_POINT('',(-11.500000,2.950000,9.700000));
#45=CARTESIAN_POINT('',(-11.500000,-2.950000,9.700000));
#46=POLY_LOOP('',(#42,#43,#44,#45));
#47=FACE_OUTER_BOUND('',#46,.T.);
#48=ADVANCED_FACE('',(#47),#41,.T.);
#49=CARTESIAN_POINT('',(11.500000,-2.950000,9.700000));
#50=DIRECTION('',(-1.000000000,0.000000000,0.000000000));
#51=DIRECTION('',(0.000000000,0.000000000,-1.000000000));
#52=AXIS2_PLACEMENT_3D('',#49,#50,#51);
#53=PLANE('',#52);
#54=CARTESIAN_POINT('',(11.500000,-2.950000,9.700000));
#55=CARTESIAN_POINT('',(11.500000,2.950000,9.700000));
#56=CARTESIAN_POINT('',(11.500000,2.950000,-9.700000));
#57=CARTESIAN_POINT('',(11.500000,-2.950000,-9.700000));
#58=POLY_LOOP('',(#54,#55,#56,#57));
#59=FACE_OUTER_BOUND('',#58,.T.);
#60=ADVANCED_FACE('',(#59),#53,.T.);
#61=CARTESIAN_POINT('',(-11.500000,-2.950000,-9.700000));
#62=DIRECTION('',(0.000000000,0.000000000,1.000000000));
#63=DIRECTION('',(0.000000000,1.000000000,0.000000000));
#64=AXIS2_PLACEMENT_3D('',#61,#62,#63);
#65=PLANE('',#64);
#66=CARTESIAN_POINT('',(-11.500000,-2.950000,-9.700000));
#67=CARTESIAN_POINT('',(11.500000,-2.950000,-9.700000));
#68=CARTESIAN_POINT('',(11.500000,2.950000,-9.700000));
#69=CARTESIAN_POINT('',(-11.500000,2.950000,-9.700000));
#70=POLY_LOOP('',(#66,#67,#68,#69));
#71=FACE_OUTER_BOUND('',#70,.T.);
#72=ADVANCED_FACE('',(#71),#65,.T.);
#73=CARTESIAN_POINT('',(11.500000,-2.950000,9.700000));
#74=DIRECTION('',(0.000000000,0.000000000,-1.000000000));
#75=DIRECTION('',(0.000000000,-1.000000000,0.000000000));
#76=AXIS2_PLACEMENT_3D('',#73,#74,#75);
#77=PLANE('',#76);
#78=CARTESIAN_POINT('',(11.500000,-2.950000,9.700000));
#79=CARTESIAN_POINT('',(-11.500000,-2.950000,9.700000));
#80=CARTESIAN_POINT('',(-11.500000,2.950000,9.700000));
#81=CARTESIAN_POINT('',(11.500000,2.950000,9.700000));
#82=POLY_LOOP('',(#78,#79,#80,#81));
#83=FACE_OUTER_BOUND('',#82,.T.);
#84=ADVANCED_FACE('',(#83),#77,.T.);
#85=CARTESIAN_POINT('',(-8.500000,-2.950000,1.150000));
#86=DIRECTION('',(-1.000000000,0.000000000,0.000000000));
#87=DIRECTION('',(0.000000000,0.000000000,-1.000000000));
#88=AXIS2_PLACEMENT_3D('',#85,#86,#87);
#89=PLANE('',#88);
#90=CARTESIAN_POINT('',(-8.500000,-2.950000,1.150000));
#91=CARTESIAN_POINT('',(-8.500000,-2.950000,6.250000));
#92=CARTESIAN_POINT('',(-8.500000,2.950000,6.250000));
#93=CARTESIAN_POINT('',(-8.500000,2.950000,1.150000));
#94=POLY_LOOP('',(#90,#91,#92,#93));
#95=FACE_OUTER_BOUND('',#94,.T.);
#96=ADVANCED_FACE('',(#95),#89,.T.);
#97=CARTESIAN_POINT('',(8.500000,-2.950000,6.250000));
#98=DIRECTION('',(1.000000000,0.000000000,0.000000000));
#99=DIRECTION('',(0.000000000,0.000000000,1.000000000));
#100=AXIS2_PLACEMENT_3D('',#97,#98,#99);
#101=PLANE('',#100);
#102=CARTESIAN_POINT('',(8.500000,-2.950000,6.250000));
#103=CARTESIAN_POINT('',(8.500000,-2.950000,1.150000));
#104=CARTESIAN_POINT('',(8.500000,2.950000,1.150000));
#105=CARTESIAN_POINT('',(8.500000,2.950000,6.250000));
#106=POLY_LOOP('',(#102,#103,#104,#105));
#107=FACE_OUTER_BOUND('',#106,.T.);
#108=ADVANCED_FACE('',(#107),#101,.T.);
#109=CARTESIAN_POINT('',(-8.500000,-2.950000,6.250000));
#110=DIRECTION('',(0.000000000,0.000000000,1.000000000));
#111=DIRECTION('',(0.000000000,1.000000000,0.000000000));
#112=AXIS2_PLACEMENT_3D('',#109,#110,#111);
#113=PLANE('',#112);
#114=CARTESIAN_POINT('',(-8.500000,-2.950000,6.250000));
#115=CARTESIAN_POINT('',(8.500000,-2.950000,6.250000));
#116=CARTESIAN_POINT('',(8.500000,2.950000,6.250000));
#117=CARTESIAN_POINT('',(-8.500000,2.950000,6.250000));
#118=POLY_LOOP('',(#114,#115,#116,#117));
#119=FACE_OUTER_BOUND('',#118,.T.);
#120=ADVANCED_FACE('',(#119),#113,.T.);
#121=CARTESIAN_POINT('',(8.500000,-2.950000,1.150000));
#122=DIRECTION('',(0.000000000,0.000000000,-1.000000000));
#123=DIRECTION('',(0.000000000,-1.000000000,0.000000000));
#124=AXIS2_PLACEMENT_3D('',#121,#122,#123);
#125=PLANE('',#124);
#126=CARTESIAN_POINT('',(8.500000,-2.950000,1.150000));
#127=CARTESIAN_POINT('',(-8.500000,-2.950000,1.150000));
#128=CARTESIAN_POINT('',(-8.500000,2.950000,1.150000));
#129=CARTESIAN_POINT('',(8.500000,2.950000,1.150000));
#130=POLY_LOOP('',(#126,#127,#128,#129));
#131=FACE_OUTER_BOUND('',#130,.T.);
#132=ADVANCED_FACE('',(#131),#125,.T.);
#133=CLOSED_SHELL('',(#18,#36,#48,#60,#72,#84,#96,#108,#120,#132));
#134=MANIFOLD_SOLID_BREP('MK05_corps',#133);
#135=(GEOMETRIC_REPRESENTATION_CONTEXT(3)GLOBAL_UNIT_ASSIGNED_CONTEXT((#UNITMM,#UNITRAD,#UNITSR))GLOBAL_UNCERTAINTY_ASSIGNED_CONTEXT((#UNCERT))REPRESENTATION_CONTEXT('',''));
#136=SHAPE_REPRESENTATION('MK05',(#134),#135);
#137=PRODUCT('MK05','MK05','corps 23×5.9×19.4 mm, enveloppe 23×5.9×19.4 mm',(#PC));
#PDF=PRODUCT_DEFINITION_FORMATION('','',#137);
#PD=PRODUCT_DEFINITION('','',#PDF,#PDC);
#PDC=PRODUCT_DEFINITION_CONTEXT('',#PC2,'design');
#PDS=PRODUCT_DEFINITION_SHAPE('','',#PD);
#SDR=SHAPE_DEFINITION_REPRESENTATION(#PDS,#136);
ENDSEC;
END-ISO-10303-21;
