ISO-10303-21;
HEADER;
FILE_DESCRIPTION(('STEP d''encombrement · modèle simplifié | capteur MK06-4 | corps 12.06×3.3×3.3 mm, terminaisons 12.06 mm, enveloppe 12.06×3.3×3.3 mm | provenance : MK06.pdf, page 1 | Ce fichier n''est ni un fichier fabricant ni une CAO de fabrication : géométrie d''encombrement approximée (FACETED_BREP), générée par scripts/generate-step-envelopes.ts.'),'2;1');
FILE_NAME('step/MK06-4.step','2026-01-01T00:00:00',('Standex Sensor Studio'),('Standex Detect'),'generate-step-envelopes.ts','','');
FILE_SCHEMA(('AUTOMOTIVE_DESIGN { 1 0 10303 214 1 1 1 1 }'));
ENDSEC;
DATA;
#1=(NAMED_UNIT(*)LENGTH_UNIT()SI_UNIT(.MILLI.,.METRE.));
#2=(NAMED_UNIT(*)PLANE_ANGLE_UNIT()SI_UNIT($,.RADIAN.));
#3=(NAMED_UNIT(*)SOLID_ANGLE_UNIT()SI_UNIT($,.STERADIAN.));
#4=UNCERTAINTY_MEASURE_WITH_UNIT(LENGTH_MEASURE(1.0E-6),#1,'distance_accuracy_value','');
#5=APPLICATION_CONTEXT('encombrement capteur reed - modele simplifie');
#6=PRODUCT_CONTEXT('',#5,'mechanical');
#7=PRODUCT_DEFINITION_CONTEXT('',#5,'design');
#8=CARTESIAN_POINT('',(-6.030000,1.650000,-1.650000));
#9=DIRECTION('',(0.000000000,-1.000000000,0.000000000));
#10=DIRECTION('',(0.000000000,0.000000000,1.000000000));
#11=AXIS2_PLACEMENT_3D('',#8,#9,#10);
#12=PLANE('',#11);
#13=CARTESIAN_POINT('',(6.030000,1.650000,-1.650000));
#14=CARTESIAN_POINT('',(6.030000,1.650000,1.650000));
#15=CARTESIAN_POINT('',(-6.030000,1.650000,1.650000));
#16=POLY_LOOP('',(#8,#13,#14,#15));
#17=FACE_OUTER_BOUND('',#16,.T.);
#18=FACE_SURFACE('',(#17),#12,.T.);
#19=CARTESIAN_POINT('',(-6.030000,-1.650000,1.650000));
#20=DIRECTION('',(0.000000000,1.000000000,0.000000000));
#21=DIRECTION('',(0.000000000,0.000000000,-1.000000000));
#22=AXIS2_PLACEMENT_3D('',#19,#20,#21);
#23=PLANE('',#22);
#24=CARTESIAN_POINT('',(6.030000,-1.650000,1.650000));
#25=CARTESIAN_POINT('',(6.030000,-1.650000,-1.650000));
#26=CARTESIAN_POINT('',(-6.030000,-1.650000,-1.650000));
#27=POLY_LOOP('',(#19,#24,#25,#26));
#28=FACE_OUTER_BOUND('',#27,.T.);
#29=FACE_SURFACE('',(#28),#23,.T.);
#30=DIRECTION('',(1.000000000,0.000000000,0.000000000));
#31=AXIS2_PLACEMENT_3D('',#26,#30,#10);
#32=PLANE('',#31);
#33=POLY_LOOP('',(#26,#8,#15,#19));
#34=FACE_OUTER_BOUND('',#33,.T.);
#35=FACE_SURFACE('',(#34),#32,.T.);
#36=DIRECTION('',(-1.000000000,0.000000000,0.000000000));
#37=AXIS2_PLACEMENT_3D('',#24,#36,#21);
#38=PLANE('',#37);
#39=POLY_LOOP('',(#24,#14,#13,#25));
#40=FACE_OUTER_BOUND('',#39,.T.);
#41=FACE_SURFACE('',(#40),#38,.T.);
#42=AXIS2_PLACEMENT_3D('',#26,#10,#20);
#43=PLANE('',#42);
#44=POLY_LOOP('',(#26,#25,#13,#8));
#45=FACE_OUTER_BOUND('',#44,.T.);
#46=FACE_SURFACE('',(#45),#43,.T.);
#47=AXIS2_PLACEMENT_3D('',#24,#21,#9);
#48=PLANE('',#47);
#49=POLY_LOOP('',(#24,#19,#15,#14));
#50=FACE_OUTER_BOUND('',#49,.T.);
#51=FACE_SURFACE('',(#50),#48,.T.);
#52=CLOSED_SHELL('',(#18,#29,#35,#41,#46,#51));
#53=FACETED_BREP('MK06-4_corps',#52);
#54=(GEOMETRIC_REPRESENTATION_CONTEXT(3)GLOBAL_UNIT_ASSIGNED_CONTEXT((#1,#2,#3))GLOBAL_UNCERTAINTY_ASSIGNED_CONTEXT((#4))REPRESENTATION_CONTEXT('',''));
#55=FACETED_BREP_SHAPE_REPRESENTATION('MK06-4',(#53),#54);
#56=PRODUCT('MK06-4','MK06 · taille 4','corps 12.06×3.3×3.3 mm, terminaisons 12.06 mm, enveloppe 12.06×3.3×3.3 mm',(#6));
#57=PRODUCT_DEFINITION_FORMATION('','',#56);
#58=PRODUCT_DEFINITION('','',#57,#7);
#59=PRODUCT_DEFINITION_SHAPE('','',#58);
#60=SHAPE_DEFINITION_REPRESENTATION(#59,#55);
ENDSEC;
END-ISO-10303-21;
