ISO-10303-21;
HEADER;
FILE_DESCRIPTION(('STEP d''encombrement · modèle simplifié | capteur MK11-M5 | corps 25×5×5 mm, écrou 7 mm sur plats, enveloppe 25×5×5 mm | provenance : MK11-Stainless.pdf, page 1 | Ce fichier n''est ni un fichier fabricant ni une CAO de fabrication : géométrie d''encombrement approximée (FACETED_BREP), générée par scripts/generate-step-envelopes.ts.'),'2;1');
FILE_NAME('step/MK11-M5.step','2026-01-01T00:00:00',('Standex Sensor Studio'),('Standex Detect'),'generate-step-envelopes.ts','','');
FILE_SCHEMA(('AUTOMOTIVE_DESIGN { 1 0 10303 214 1 1 1 1 }'));
ENDSEC;
DATA;
#1=(NAMED_UNIT(*)LENGTH_UNIT()SI_UNIT(.MILLI.,.METRE.));
#2=(NAMED_UNIT(*)PLANE_ANGLE_UNIT()SI_UNIT($,.RADIAN.));
#3=(NAMED_UNIT(*)SOLID_ANGLE_UNIT()SI_UNIT($,.STERADIAN.));
#4=UNCERTAINTY_MEASURE_WITH_UNIT(LENGTH_MEASURE(1.0E-6),#1,'distance_accuracy_value','');
#5=APPLICATION_CONTEXT('encombrement capteur reed - modele simplifie');
#6=PRODUCT_CONTEXT('',#5,'mechanical');
#7=PRODUCT_DEFINITION_CONTEXT('',#5,'design');
#8=CARTESIAN_POINT('',(-12.500000,2.414815,-0.647048));
#9=DIRECTION('',(-1.000000000,0.000000000,0.000000000));
#10=DIRECTION('',(0.000000000,0.000000000,-1.000000000));
#11=AXIS2_PLACEMENT_3D('',#8,#9,#10);
#12=PLANE('',#11);
#13=CARTESIAN_POINT('',(-12.500000,2.414815,-0.647048));
#14=CARTESIAN_POINT('',(-12.500000,2.165064,-1.250000));
#15=CARTESIAN_POINT('',(-12.500000,1.767767,-1.767767));
#16=CARTESIAN_POINT('',(-12.500000,1.250000,-2.165064));
#17=CARTESIAN_POINT('',(-12.500000,0.647048,-2.414815));
#18=CARTESIAN_POINT('',(-12.500000,-0.000000,-2.500000));
#19=CARTESIAN_POINT('',(-12.500000,-0.647048,-2.414815));
#20=CARTESIAN_POINT('',(-12.500000,-1.250000,-2.165064));
#21=CARTESIAN_POINT('',(-12.500000,-1.767767,-1.767767));
#22=CARTESIAN_POINT('',(-12.500000,-2.165064,-1.250000));
#23=CARTESIAN_POINT('',(-12.500000,-2.414815,-0.647048));
#24=CARTESIAN_POINT('',(-12.500000,-2.500000,0.000000));
#25=CARTESIAN_POINT('',(-12.500000,-2.414815,0.647048));
#26=CARTESIAN_POINT('',(-12.500000,-2.165064,1.250000));
#27=CARTESIAN_POINT('',(-12.500000,-1.767767,1.767767));
#28=CARTESIAN_POINT('',(-12.500000,-1.250000,2.165064));
#29=CARTESIAN_POINT('',(-12.500000,-0.647048,2.414815));
#30=CARTESIAN_POINT('',(-12.500000,0.000000,2.500000));
#31=CARTESIAN_POINT('',(-12.500000,0.647048,2.414815));
#32=CARTESIAN_POINT('',(-12.500000,1.250000,2.165064));
#33=CARTESIAN_POINT('',(-12.500000,1.767767,1.767767));
#34=CARTESIAN_POINT('',(-12.500000,2.165064,1.250000));
#35=CARTESIAN_POINT('',(-12.500000,2.414815,0.647048));
#36=CARTESIAN_POINT('',(-12.500000,2.500000,0.000000));
#37=POLY_LOOP('',(#13,#14,#15,#16,#17,#18,#19,#20,#21,#22,#23,#24,#25,#26,#27,#28,#29,#30,#31,#32,#33,#34,#35,#36));
#38=FACE_OUTER_BOUND('',#37,.T.);
#39=ADVANCED_FACE('',(#38),#12,.T.);
#40=CARTESIAN_POINT('',(12.500000,2.500000,0.000000));
#41=DIRECTION('',(1.000000000,0.000000000,0.000000000));
#42=DIRECTION('',(0.000000000,0.000000000,1.000000000));
#43=AXIS2_PLACEMENT_3D('',#40,#41,#42);
#44=PLANE('',#43);
#45=CARTESIAN_POINT('',(12.500000,2.500000,0.000000));
#46=CARTESIAN_POINT('',(12.500000,2.414815,0.647048));
#47=CARTESIAN_POINT('',(12.500000,2.165064,1.250000));
#48=CARTESIAN_POINT('',(12.500000,1.767767,1.767767));
#49=CARTESIAN_POINT('',(12.500000,1.250000,2.165064));
#50=CARTESIAN_POINT('',(12.500000,0.647048,2.414815));
#51=CARTESIAN_POINT('',(12.500000,0.000000,2.500000));
#52=CARTESIAN_POINT('',(12.500000,-0.647048,2.414815));
#53=CARTESIAN_POINT('',(12.500000,-1.250000,2.165064));
#54=CARTESIAN_POINT('',(12.500000,-1.767767,1.767767));
#55=CARTESIAN_POINT('',(12.500000,-2.165064,1.250000));
#56=CARTESIAN_POINT('',(12.500000,-2.414815,0.647048));
#57=CARTESIAN_POINT('',(12.500000,-2.500000,0.000000));
#58=CARTESIAN_POINT('',(12.500000,-2.414815,-0.647048));
#59=CARTESIAN_POINT('',(12.500000,-2.165064,-1.250000));
#60=CARTESIAN_POINT('',(12.500000,-1.767767,-1.767767));
#61=CARTESIAN_POINT('',(12.500000,-1.250000,-2.165064));
#62=CARTESIAN_POINT('',(12.500000,-0.647048,-2.414815));
#63=CARTESIAN_POINT('',(12.500000,-0.000000,-2.500000));
#64=CARTESIAN_POINT('',(12.500000,0.647048,-2.414815));
#65=CARTESIAN_POINT('',(12.500000,1.250000,-2.165064));
#66=CARTESIAN_POINT('',(12.500000,1.767767,-1.767767));
#67=CARTESIAN_POINT('',(12.500000,2.165064,-1.250000));
#68=CARTESIAN_POINT('',(12.500000,2.414815,-0.647048));
#69=POLY_LOOP('',(#45,#46,#47,#48,#49,#50,#51,#52,#53,#54,#55,#56,#57,#58,#59,#60,#61,#62,#63,#64,#65,#66,#67,#68));
#70=FACE_OUTER_BOUND('',#69,.T.);
#71=ADVANCED_FACE('',(#70),#44,.T.);
#72=CARTESIAN_POINT('',(-12.500000,2.500000,0.000000));
#73=DIRECTION('',(0.000000000,-0.991444861,-0.130526192));
#74=DIRECTION('',(0.000000000,-0.130526192,0.991444861));
#75=AXIS2_PLACEMENT_3D('',#72,#73,#74);
#76=PLANE('',#75);
#77=CARTESIAN_POINT('',(-12.500000,2.500000,0.000000));
#78=CARTESIAN_POINT('',(12.500000,2.500000,0.000000));
#79=CARTESIAN_POINT('',(12.500000,2.414815,0.647048));
#80=CARTESIAN_POINT('',(-12.500000,2.414815,0.647048));
#81=POLY_LOOP('',(#77,#78,#79,#80));
#82=FACE_OUTER_BOUND('',#81,.T.);
#83=ADVANCED_FACE('',(#82),#76,.T.);
#84=CARTESIAN_POINT('',(-12.500000,2.414815,0.647048));
#85=DIRECTION('',(0.000000000,-0.923879533,-0.382683432));
#86=DIRECTION('',(0.000000000,-0.382683432,0.923879533));
#87=AXIS2_PLACEMENT_3D('',#84,#85,#86);
#88=PLANE('',#87);
#89=CARTESIAN_POINT('',(-12.500000,2.414815,0.647048));
#90=CARTESIAN_POINT('',(12.500000,2.414815,0.647048));
#91=CARTESIAN_POINT('',(12.500000,2.165064,1.250000));
#92=CARTESIAN_POINT('',(-12.500000,2.165064,1.250000));
#93=POLY_LOOP('',(#89,#90,#91,#92));
#94=FACE_OUTER_BOUND('',#93,.T.);
#95=ADVANCED_FACE('',(#94),#88,.T.);
#96=CARTESIAN_POINT('',(-12.500000,2.165064,1.250000));
#97=DIRECTION('',(0.000000000,-0.793353340,-0.608761429));
#98=DIRECTION('',(0.000000000,-0.608761429,0.793353340));
#99=AXIS2_PLACEMENT_3D('',#96,#97,#98);
#100=PLANE('',#99);
#101=CARTESIAN_POINT('',(-12.500000,2.165064,1.250000));
#102=CARTESIAN_POINT('',(12.500000,2.165064,1.250000));
#103=CARTESIAN_POINT('',(12.500000,1.767767,1.767767));
#104=CARTESIAN_POINT('',(-12.500000,1.767767,1.767767));
#105=POLY_LOOP('',(#101,#102,#103,#104));
#106=FACE_OUTER_BOUND('',#105,.T.);
#107=ADVANCED_FACE('',(#106),#100,.T.);
#108=CARTESIAN_POINT('',(-12.500000,1.767767,1.767767));
#109=DIRECTION('',(0.000000000,-0.608761429,-0.793353340));
#110=DIRECTION('',(0.000000000,-0.793353340,0.608761429));
#111=AXIS2_PLACEMENT_3D('',#108,#109,#110);
#112=PLANE('',#111);
#113=CARTESIAN_POINT('',(-12.500000,1.767767,1.767767));
#114=CARTESIAN_POINT('',(12.500000,1.767767,1.767767));
#115=CARTESIAN_POINT('',(12.500000,1.250000,2.165064));
#116=CARTESIAN_POINT('',(-12.500000,1.250000,2.165064));
#117=POLY_LOOP('',(#113,#114,#115,#116));
#118=FACE_OUTER_BOUND('',#117,.T.);
#119=ADVANCED_FACE('',(#118),#112,.T.);
#120=CARTESIAN_POINT('',(-12.500000,1.250000,2.165064));
#121=DIRECTION('',(0.000000000,-0.382683432,-0.923879533));
#122=DIRECTION('',(0.000000000,-0.923879533,0.382683432));
#123=AXIS2_PLACEMENT_3D('',#120,#121,#122);
#124=PLANE('',#123);
#125=CARTESIAN_POINT('',(-12.500000,1.250000,2.165064));
#126=CARTESIAN_POINT('',(12.500000,1.250000,2.165064));
#127=CARTESIAN_POINT('',(12.500000,0.647048,2.414815));
#128=CARTESIAN_POINT('',(-12.500000,0.647048,2.414815));
#129=POLY_LOOP('',(#125,#126,#127,#128));
#130=FACE_OUTER_BOUND('',#129,.T.);
#131=ADVANCED_FACE('',(#130),#124,.T.);
#132=CARTESIAN_POINT('',(-12.500000,0.647048,2.414815));
#133=DIRECTION('',(0.000000000,-0.130526192,-0.991444861));
#134=DIRECTION('',(0.000000000,-0.991444861,0.130526192));
#135=AXIS2_PLACEMENT_3D('',#132,#133,#134);
#136=PLANE('',#135);
#137=CARTESIAN_POINT('',(-12.500000,0.647048,2.414815));
#138=CARTESIAN_POINT('',(12.500000,0.647048,2.414815));
#139=CARTESIAN_POINT('',(12.500000,0.000000,2.500000));
#140=CARTESIAN_POINT('',(-12.500000,0.000000,2.500000));
#141=POLY_LOOP('',(#137,#138,#139,#140));
#142=FACE_OUTER_BOUND('',#141,.T.);
#143=ADVANCED_FACE('',(#142),#136,.T.);
#144=CARTESIAN_POINT('',(-12.500000,0.000000,2.500000));
#145=DIRECTION('',(0.000000000,0.130526192,-0.991444861));
#146=DIRECTION('',(0.000000000,-0.991444861,-0.130526192));
#147=AXIS2_PLACEMENT_3D('',#144,#145,#146);
#148=PLANE('',#147);
#149=CARTESIAN_POINT('',(-12.500000,0.000000,2.500000));
#150=CARTESIAN_POINT('',(12.500000,0.000000,2.500000));
#151=CARTESIAN_POINT('',(12.500000,-0.647048,2.414815));
#152=CARTESIAN_POINT('',(-12.500000,-0.647048,2.414815));
#153=POLY_LOOP('',(#149,#150,#151,#152));
#154=FACE_OUTER_BOUND('',#153,.T.);
#155=ADVANCED_FACE('',(#154),#148,.T.);
#156=CARTESIAN_POINT('',(-12.500000,-0.647048,2.414815));
#157=DIRECTION('',(0.000000000,0.382683432,-0.923879533));
#158=DIRECTION('',(0.000000000,-0.923879533,-0.382683432));
#159=AXIS2_PLACEMENT_3D('',#156,#157,#158);
#160=PLANE('',#159);
#161=CARTESIAN_POINT('',(-12.500000,-0.647048,2.414815));
#162=CARTESIAN_POINT('',(12.500000,-0.647048,2.414815));
#163=CARTESIAN_POINT('',(12.500000,-1.250000,2.165064));
#164=CARTESIAN_POINT('',(-12.500000,-1.250000,2.165064));
#165=POLY_LOOP('',(#161,#162,#163,#164));
#166=FACE_OUTER_BOUND('',#165,.T.);
#167=ADVANCED_FACE('',(#166),#160,.T.);
#168=CARTESIAN_POINT('',(-12.500000,-1.250000,2.165064));
#169=DIRECTION('',(0.000000000,0.608761429,-0.793353340));
#170=DIRECTION('',(0.000000000,-0.793353340,-0.608761429));
#171=AXIS2_PLACEMENT_3D('',#168,#169,#170);
#172=PLANE('',#171);
#173=CARTESIAN_POINT('',(-12.500000,-1.250000,2.165064));
#174=CARTESIAN_POINT('',(12.500000,-1.250000,2.165064));
#175=CARTESIAN_POINT('',(12.500000,-1.767767,1.767767));
#176=CARTESIAN_POINT('',(-12.500000,-1.767767,1.767767));
#177=POLY_LOOP('',(#173,#174,#175,#176));
#178=FACE_OUTER_BOUND('',#177,.T.);
#179=ADVANCED_FACE('',(#178),#172,.T.);
#180=CARTESIAN_POINT('',(-12.500000,-1.767767,1.767767));
#181=DIRECTION('',(0.000000000,0.793353340,-0.608761429));
#182=DIRECTION('',(0.000000000,-0.608761429,-0.793353340));
#183=AXIS2_PLACEMENT_3D('',#180,#181,#182);
#184=PLANE('',#183);
#185=CARTESIAN_POINT('',(-12.500000,-1.767767,1.767767));
#186=CARTESIAN_POINT('',(12.500000,-1.767767,1.767767));
#187=CARTESIAN_POINT('',(12.500000,-2.165064,1.250000));
#188=CARTESIAN_POINT('',(-12.500000,-2.165064,1.250000));
#189=POLY_LOOP('',(#185,#186,#187,#188));
#190=FACE_OUTER_BOUND('',#189,.T.);
#191=ADVANCED_FACE('',(#190),#184,.T.);
#192=CARTESIAN_POINT('',(-12.500000,-2.165064,1.250000));
#193=DIRECTION('',(0.000000000,0.923879533,-0.382683432));
#194=DIRECTION('',(0.000000000,-0.382683432,-0.923879533));
#195=AXIS2_PLACEMENT_3D('',#192,#193,#194);
#196=PLANE('',#195);
#197=CARTESIAN_POINT('',(-12.500000,-2.165064,1.250000));
#198=CARTESIAN_POINT('',(12.500000,-2.165064,1.250000));
#199=CARTESIAN_POINT('',(12.500000,-2.414815,0.647048));
#200=CARTESIAN_POINT('',(-12.500000,-2.414815,0.647048));
#201=POLY_LOOP('',(#197,#198,#199,#200));
#202=FACE_OUTER_BOUND('',#201,.T.);
#203=ADVANCED_FACE('',(#202),#196,.T.);
#204=CARTESIAN_POINT('',(-12.500000,-2.414815,0.647048));
#205=DIRECTION('',(0.000000000,0.991444861,-0.130526192));
#206=DIRECTION('',(0.000000000,-0.130526192,-0.991444861));
#207=AXIS2_PLACEMENT_3D('',#204,#205,#206);
#208=PLANE('',#207);
#209=CARTESIAN_POINT('',(-12.500000,-2.414815,0.647048));
#210=CARTESIAN_POINT('',(12.500000,-2.414815,0.647048));
#211=CARTESIAN_POINT('',(12.500000,-2.500000,0.000000));
#212=CARTESIAN_POINT('',(-12.500000,-2.500000,0.000000));
#213=POLY_LOOP('',(#209,#210,#211,#212));
#214=FACE_OUTER_BOUND('',#213,.T.);
#215=ADVANCED_FACE('',(#214),#208,.T.);
#216=CARTESIAN_POINT('',(-12.500000,-2.500000,0.000000));
#217=DIRECTION('',(0.000000000,0.991444861,0.130526192));
#218=DIRECTION('',(0.000000000,0.130526192,-0.991444861));
#219=AXIS2_PLACEMENT_3D('',#216,#217,#218);
#220=PLANE('',#219);
#221=CARTESIAN_POINT('',(-12.500000,-2.500000,0.000000));
#222=CARTESIAN_POINT('',(12.500000,-2.500000,0.000000));
#223=CARTESIAN_POINT('',(12.500000,-2.414815,-0.647048));
#224=CARTESIAN_POINT('',(-12.500000,-2.414815,-0.647048));
#225=POLY_LOOP('',(#221,#222,#223,#224));
#226=FACE_OUTER_BOUND('',#225,.T.);
#227=ADVANCED_FACE('',(#226),#220,.T.);
#228=CARTESIAN_POINT('',(-12.500000,-2.414815,-0.647048));
#229=DIRECTION('',(0.000000000,0.923879533,0.382683432));
#230=DIRECTION('',(0.000000000,0.382683432,-0.923879533));
#231=AXIS2_PLACEMENT_3D('',#228,#229,#230);
#232=PLANE('',#231);
#233=CARTESIAN_POINT('',(-12.500000,-2.414815,-0.647048));
#234=CARTESIAN_POINT('',(12.500000,-2.414815,-0.647048));
#235=CARTESIAN_POINT('',(12.500000,-2.165064,-1.250000));
#236=CARTESIAN_POINT('',(-12.500000,-2.165064,-1.250000));
#237=POLY_LOOP('',(#233,#234,#235,#236));
#238=FACE_OUTER_BOUND('',#237,.T.);
#239=ADVANCED_FACE('',(#238),#232,.T.);
#240=CARTESIAN_POINT('',(-12.500000,-2.165064,-1.250000));
#241=DIRECTION('',(0.000000000,0.793353340,0.608761429));
#242=DIRECTION('',(0.000000000,0.608761429,-0.793353340));
#243=AXIS2_PLACEMENT_3D('',#240,#241,#242);
#244=PLANE('',#243);
#245=CARTESIAN_POINT('',(-12.500000,-2.165064,-1.250000));
#246=CARTESIAN_POINT('',(12.500000,-2.165064,-1.250000));
#247=CARTESIAN_POINT('',(12.500000,-1.767767,-1.767767));
#248=CARTESIAN_POINT('',(-12.500000,-1.767767,-1.767767));
#249=POLY_LOOP('',(#245,#246,#247,#248));
#250=FACE_OUTER_BOUND('',#249,.T.);
#251=ADVANCED_FACE('',(#250),#244,.T.);
#252=CARTESIAN_POINT('',(-12.500000,-1.767767,-1.767767));
#253=DIRECTION('',(0.000000000,0.608761429,0.793353340));
#254=DIRECTION('',(0.000000000,0.793353340,-0.608761429));
#255=AXIS2_PLACEMENT_3D('',#252,#253,#254);
#256=PLANE('',#255);
#257=CARTESIAN_POINT('',(-12.500000,-1.767767,-1.767767));
#258=CARTESIAN_POINT('',(12.500000,-1.767767,-1.767767));
#259=CARTESIAN_POINT('',(12.500000,-1.250000,-2.165064));
#260=CARTESIAN_POINT('',(-12.500000,-1.250000,-2.165064));
#261=POLY_LOOP('',(#257,#258,#259,#260));
#262=FACE_OUTER_BOUND('',#261,.T.);
#263=ADVANCED_FACE('',(#262),#256,.T.);
#264=CARTESIAN_POINT('',(-12.500000,-1.250000,-2.165064));
#265=DIRECTION('',(0.000000000,0.382683432,0.923879533));
#266=DIRECTION('',(0.000000000,0.923879533,-0.382683432));
#267=AXIS2_PLACEMENT_3D('',#264,#265,#266);
#268=PLANE('',#267);
#269=CARTESIAN_POINT('',(-12.500000,-1.250000,-2.165064));
#270=CARTESIAN_POINT('',(12.500000,-1.250000,-2.165064));
#271=CARTESIAN_POINT('',(12.500000,-0.647048,-2.414815));
#272=CARTESIAN_POINT('',(-12.500000,-0.647048,-2.414815));
#273=POLY_LOOP('',(#269,#270,#271,#272));
#274=FACE_OUTER_BOUND('',#273,.T.);
#275=ADVANCED_FACE('',(#274),#268,.T.);
#276=CARTESIAN_POINT('',(-12.500000,-0.647048,-2.414815));
#277=DIRECTION('',(0.000000000,0.130526192,0.991444861));
#278=DIRECTION('',(0.000000000,0.991444861,-0.130526192));
#279=AXIS2_PLACEMENT_3D('',#276,#277,#278);
#280=PLANE('',#279);
#281=CARTESIAN_POINT('',(-12.500000,-0.647048,-2.414815));
#282=CARTESIAN_POINT('',(12.500000,-0.647048,-2.414815));
#283=CARTESIAN_POINT('',(12.500000,-0.000000,-2.500000));
#284=CARTESIAN_POINT('',(-12.500000,-0.000000,-2.500000));
#285=POLY_LOOP('',(#281,#282,#283,#284));
#286=FACE_OUTER_BOUND('',#285,.T.);
#287=ADVANCED_FACE('',(#286),#280,.T.);
#288=CARTESIAN_POINT('',(-12.500000,-0.000000,-2.500000));
#289=DIRECTION('',(0.000000000,-0.130526192,0.991444861));
#290=DIRECTION('',(0.000000000,0.991444861,0.130526192));
#291=AXIS2_PLACEMENT_3D('',#288,#289,#290);
#292=PLANE('',#291);
#293=CARTESIAN_POINT('',(-12.500000,-0.000000,-2.500000));
#294=CARTESIAN_POINT('',(12.500000,-0.000000,-2.500000));
#295=CARTESIAN_POINT('',(12.500000,0.647048,-2.414815));
#296=CARTESIAN_POINT('',(-12.500000,0.647048,-2.414815));
#297=POLY_LOOP('',(#293,#294,#295,#296));
#298=FACE_OUTER_BOUND('',#297,.T.);
#299=ADVANCED_FACE('',(#298),#292,.T.);
#300=CARTESIAN_POINT('',(-12.500000,0.647048,-2.414815));
#301=DIRECTION('',(0.000000000,-0.382683432,0.923879533));
#302=DIRECTION('',(0.000000000,0.923879533,0.382683432));
#303=AXIS2_PLACEMENT_3D('',#300,#301,#302);
#304=PLANE('',#303);
#305=CARTESIAN_POINT('',(-12.500000,0.647048,-2.414815));
#306=CARTESIAN_POINT('',(12.500000,0.647048,-2.414815));
#307=CARTESIAN_POINT('',(12.500000,1.250000,-2.165064));
#308=CARTESIAN_POINT('',(-12.500000,1.250000,-2.165064));
#309=POLY_LOOP('',(#305,#306,#307,#308));
#310=FACE_OUTER_BOUND('',#309,.T.);
#311=ADVANCED_FACE('',(#310),#304,.T.);
#312=CARTESIAN_POINT('',(-12.500000,1.250000,-2.165064));
#313=DIRECTION('',(0.000000000,-0.608761429,0.793353340));
#314=DIRECTION('',(0.000000000,0.793353340,0.608761429));
#315=AXIS2_PLACEMENT_3D('',#312,#313,#314);
#316=PLANE('',#315);
#317=CARTESIAN_POINT('',(-12.500000,1.250000,-2.165064));
#318=CARTESIAN_POINT('',(12.500000,1.250000,-2.165064));
#319=CARTESIAN_POINT('',(12.500000,1.767767,-1.767767));
#320=CARTESIAN_POINT('',(-12.500000,1.767767,-1.767767));
#321=POLY_LOOP('',(#317,#318,#319,#320));
#322=FACE_OUTER_BOUND('',#321,.T.);
#323=ADVANCED_FACE('',(#322),#316,.T.);
#324=CARTESIAN_POINT('',(-12.500000,1.767767,-1.767767));
#325=DIRECTION('',(0.000000000,-0.793353340,0.608761429));
#326=DIRECTION('',(0.000000000,0.608761429,0.793353340));
#327=AXIS2_PLACEMENT_3D('',#324,#325,#326);
#328=PLANE('',#327);
#329=CARTESIAN_POINT('',(-12.500000,1.767767,-1.767767));
#330=CARTESIAN_POINT('',(12.500000,1.767767,-1.767767));
#331=CARTESIAN_POINT('',(12.500000,2.165064,-1.250000));
#332=CARTESIAN_POINT('',(-12.500000,2.165064,-1.250000));
#333=POLY_LOOP('',(#329,#330,#331,#332));
#334=FACE_OUTER_BOUND('',#333,.T.);
#335=ADVANCED_FACE('',(#334),#328,.T.);
#336=CARTESIAN_POINT('',(-12.500000,2.165064,-1.250000));
#337=DIRECTION('',(0.000000000,-0.923879533,0.382683432));
#338=DIRECTION('',(0.000000000,0.382683432,0.923879533));
#339=AXIS2_PLACEMENT_3D('',#336,#337,#338);
#340=PLANE('',#339);
#341=CARTESIAN_POINT('',(-12.500000,2.165064,-1.250000));
#342=CARTESIAN_POINT('',(12.500000,2.165064,-1.250000));
#343=CARTESIAN_POINT('',(12.500000,2.414815,-0.647048));
#344=CARTESIAN_POINT('',(-12.500000,2.414815,-0.647048));
#345=POLY_LOOP('',(#341,#342,#343,#344));
#346=FACE_OUTER_BOUND('',#345,.T.);
#347=ADVANCED_FACE('',(#346),#340,.T.);
#348=CARTESIAN_POINT('',(-12.500000,2.414815,-0.647048));
#349=DIRECTION('',(0.000000000,-0.991444861,0.130526192));
#350=DIRECTION('',(0.000000000,0.130526192,0.991444861));
#351=AXIS2_PLACEMENT_3D('',#348,#349,#350);
#352=PLANE('',#351);
#353=CARTESIAN_POINT('',(-12.500000,2.414815,-0.647048));
#354=CARTESIAN_POINT('',(12.500000,2.414815,-0.647048));
#355=CARTESIAN_POINT('',(12.500000,2.500000,0.000000));
#356=CARTESIAN_POINT('',(-12.500000,2.500000,0.000000));
#357=POLY_LOOP('',(#353,#354,#355,#356));
#358=FACE_OUTER_BOUND('',#357,.T.);
#359=ADVANCED_FACE('',(#358),#352,.T.);
#360=CLOSED_SHELL('',(#39,#71,#83,#95,#107,#119,#131,#143,#155,#167,#179,#191,#203,#215,#227,#239,#251,#263,#275,#287,#299,#311,#323,#335,#347,#359));
#361=MANIFOLD_SOLID_BREP('MK11-M5_corps',#360);
#362=CARTESIAN_POINT('',(-12.500000,-2.020726,3.500000));
#363=DIRECTION('',(1.000000000,0.000000000,0.000000000));
#364=DIRECTION('',(0.000000000,0.000000000,1.000000000));
#365=AXIS2_PLACEMENT_3D('',#362,#363,#364);
#366=PLANE('',#365);
#367=CARTESIAN_POINT('',(-12.500000,-2.020726,3.500000));
#368=CARTESIAN_POINT('',(-12.500000,-4.041452,-0.000000));
#369=CARTESIAN_POINT('',(-12.500000,-2.020726,-3.500000));
#370=CARTESIAN_POINT('',(-12.500000,2.020726,-3.500000));
#371=CARTESIAN_POINT('',(-12.500000,4.041452,0.000000));
#372=CARTESIAN_POINT('',(-12.500000,2.020726,3.500000));
#373=POLY_LOOP('',(#367,#368,#369,#370,#371,#372));
#374=FACE_OUTER_BOUND('',#373,.T.);
#375=ADVANCED_FACE('',(#374),#366,.T.);
#376=CARTESIAN_POINT('',(-5.500000,2.020726,3.500000));
#377=DIRECTION('',(-1.000000000,0.000000000,0.000000000));
#378=DIRECTION('',(0.000000000,0.000000000,-1.000000000));
#379=AXIS2_PLACEMENT_3D('',#376,#377,#378);
#380=PLANE('',#379);
#381=CARTESIAN_POINT('',(-5.500000,2.020726,3.500000));
#382=CARTESIAN_POINT('',(-5.500000,4.041452,0.000000));
#383=CARTESIAN_POINT('',(-5.500000,2.020726,-3.500000));
#384=CARTESIAN_POINT('',(-5.500000,-2.020726,-3.500000));
#385=CARTESIAN_POINT('',(-5.500000,-4.041452,-0.000000));
#386=CARTESIAN_POINT('',(-5.500000,-2.020726,3.500000));
#387=POLY_LOOP('',(#381,#382,#383,#384,#385,#386));
#388=FACE_OUTER_BOUND('',#387,.T.);
#389=ADVANCED_FACE('',(#388),#380,.T.);
#390=CARTESIAN_POINT('',(-12.500000,2.020726,3.500000));
#391=DIRECTION('',(0.000000000,0.866025404,0.500000000));
#392=DIRECTION('',(0.000000000,0.500000000,-0.866025404));
#393=AXIS2_PLACEMENT_3D('',#390,#391,#392);
#394=PLANE('',#393);
#395=CARTESIAN_POINT('',(-12.500000,2.020726,3.500000));
#396=CARTESIAN_POINT('',(-5.500000,2.020726,3.500000));
#397=CARTESIAN_POINT('',(-5.500000,4.041452,0.000000));
#398=CARTESIAN_POINT('',(-12.500000,4.041452,0.000000));
#399=POLY_LOOP('',(#395,#396,#397,#398));
#400=FACE_OUTER_BOUND('',#399,.T.);
#401=ADVANCED_FACE('',(#400),#394,.T.);
#402=CARTESIAN_POINT('',(-12.500000,4.041452,0.000000));
#403=DIRECTION('',(0.000000000,0.866025404,-0.500000000));
#404=DIRECTION('',(0.000000000,-0.500000000,-0.866025404));
#405=AXIS2_PLACEMENT_3D('',#402,#403,#404);
#406=PLANE('',#405);
#407=CARTESIAN_POINT('',(-12.500000,4.041452,0.000000));
#408=CARTESIAN_POINT('',(-5.500000,4.041452,0.000000));
#409=CARTESIAN_POINT('',(-5.500000,2.020726,-3.500000));
#410=CARTESIAN_POINT('',(-12.500000,2.020726,-3.500000));
#411=POLY_LOOP('',(#407,#408,#409,#410));
#412=FACE_OUTER_BOUND('',#411,.T.);
#413=ADVANCED_FACE('',(#412),#406,.T.);
#414=CARTESIAN_POINT('',(-12.500000,2.020726,-3.500000));
#415=DIRECTION('',(0.000000000,0.000000000,-1.000000000));
#416=DIRECTION('',(0.000000000,-1.000000000,-0.000000000));
#417=AXIS2_PLACEMENT_3D('',#414,#415,#416);
#418=PLANE('',#417);
#419=CARTESIAN_POINT('',(-12.500000,2.020726,-3.500000));
#420=CARTESIAN_POINT('',(-5.500000,2.020726,-3.500000));
#421=CARTESIAN_POINT('',(-5.500000,-2.020726,-3.500000));
#422=CARTESIAN_POINT('',(-12.500000,-2.020726,-3.500000));
#423=POLY_LOOP('',(#419,#420,#421,#422));
#424=FACE_OUTER_BOUND('',#423,.T.);
#425=ADVANCED_FACE('',(#424),#418,.T.);
#426=CARTESIAN_POINT('',(-12.500000,-2.020726,-3.500000));
#427=DIRECTION('',(0.000000000,-0.866025404,-0.500000000));
#428=DIRECTION('',(0.000000000,-0.500000000,0.866025404));
#429=AXIS2_PLACEMENT_3D('',#426,#427,#428);
#430=PLANE('',#429);
#431=CARTESIAN_POINT('',(-12.500000,-2.020726,-3.500000));
#432=CARTESIAN_POINT('',(-5.500000,-2.020726,-3.500000));
#433=CARTESIAN_POINT('',(-5.500000,-4.041452,-0.000000));
#434=CARTESIAN_POINT('',(-12.500000,-4.041452,-0.000000));
#435=POLY_LOOP('',(#431,#432,#433,#434));
#436=FACE_OUTER_BOUND('',#435,.T.);
#437=ADVANCED_FACE('',(#436),#430,.T.);
#438=CARTESIAN_POINT('',(-12.500000,-4.041452,-0.000000));
#439=DIRECTION('',(0.000000000,-0.866025404,0.500000000));
#440=DIRECTION('',(0.000000000,0.500000000,0.866025404));
#441=AXIS2_PLACEMENT_3D('',#438,#439,#440);
#442=PLANE('',#441);
#443=CARTESIAN_POINT('',(-12.500000,-4.041452,-0.000000));
#444=CARTESIAN_POINT('',(-5.500000,-4.041452,-0.000000));
#445=CARTESIAN_POINT('',(-5.500000,-2.020726,3.500000));
#446=CARTESIAN_POINT('',(-12.500000,-2.020726,3.500000));
#447=POLY_LOOP('',(#443,#444,#445,#446));
#448=FACE_OUTER_BOUND('',#447,.T.);
#449=ADVANCED_FACE('',(#448),#442,.T.);
#450=CARTESIAN_POINT('',(-12.500000,-2.020726,3.500000));
#451=DIRECTION('',(0.000000000,-0.000000000,1.000000000));
#452=DIRECTION('',(0.000000000,1.000000000,0.000000000));
#453=AXIS2_PLACEMENT_3D('',#450,#451,#452);
#454=PLANE('',#453);
#455=CARTESIAN_POINT('',(-12.500000,-2.020726,3.500000));
#456=CARTESIAN_POINT('',(-5.500000,-2.020726,3.500000));
#457=CARTESIAN_POINT('',(-5.500000,2.020726,3.500000));
#458=CARTESIAN_POINT('',(-12.500000,2.020726,3.500000));
#459=POLY_LOOP('',(#455,#456,#457,#458));
#460=FACE_OUTER_BOUND('',#459,.T.);
#461=ADVANCED_FACE('',(#460),#454,.T.);
#462=CLOSED_SHELL('',(#375,#389,#401,#413,#425,#437,#449,#461));
#463=MANIFOLD_SOLID_BREP('MK11-M5_ecrou',#462);
#464=CARTESIAN_POINT('',(5.500000,-2.020726,3.500000));
#465=DIRECTION('',(1.000000000,0.000000000,0.000000000));
#466=DIRECTION('',(0.000000000,0.000000000,1.000000000));
#467=AXIS2_PLACEMENT_3D('',#464,#465,#466);
#468=PLANE('',#467);
#469=CARTESIAN_POINT('',(5.500000,-2.020726,3.500000));
#470=CARTESIAN_POINT('',(5.500000,-4.041452,-0.000000));
#471=CARTESIAN_POINT('',(5.500000,-2.020726,-3.500000));
#472=CARTESIAN_POINT('',(5.500000,2.020726,-3.500000));
#473=CARTESIAN_POINT('',(5.500000,4.041452,0.000000));
#474=CARTESIAN_POINT('',(5.500000,2.020726,3.500000));
#475=POLY_LOOP('',(#469,#470,#471,#472,#473,#474));
#476=FACE_OUTER_BOUND('',#475,.T.);
#477=ADVANCED_FACE('',(#476),#468,.T.);
#478=CARTESIAN_POINT('',(12.500000,2.020726,3.500000));
#479=DIRECTION('',(-1.000000000,0.000000000,0.000000000));
#480=DIRECTION('',(0.000000000,0.000000000,-1.000000000));
#481=AXIS2_PLACEMENT_3D('',#478,#479,#480);
#482=PLANE('',#481);
#483=CARTESIAN_POINT('',(12.500000,2.020726,3.500000));
#484=CARTESIAN_POINT('',(12.500000,4.041452,0.000000));
#485=CARTESIAN_POINT('',(12.500000,2.020726,-3.500000));
#486=CARTESIAN_POINT('',(12.500000,-2.020726,-3.500000));
#487=CARTESIAN_POINT('',(12.500000,-4.041452,-0.000000));
#488=CARTESIAN_POINT('',(12.500000,-2.020726,3.500000));
#489=POLY_LOOP('',(#483,#484,#485,#486,#487,#488));
#490=FACE_OUTER_BOUND('',#489,.T.);
#491=ADVANCED_FACE('',(#490),#482,.T.);
#492=CARTESIAN_POINT('',(5.500000,2.020726,3.500000));
#493=DIRECTION('',(0.000000000,0.866025404,0.500000000));
#494=DIRECTION('',(0.000000000,0.500000000,-0.866025404));
#495=AXIS2_PLACEMENT_3D('',#492,#493,#494);
#496=PLANE('',#495);
#497=CARTESIAN_POINT('',(5.500000,2.020726,3.500000));
#498=CARTESIAN_POINT('',(12.500000,2.020726,3.500000));
#499=CARTESIAN_POINT('',(12.500000,4.041452,0.000000));
#500=CARTESIAN_POINT('',(5.500000,4.041452,0.000000));
#501=POLY_LOOP('',(#497,#498,#499,#500));
#502=FACE_OUTER_BOUND('',#501,.T.);
#503=ADVANCED_FACE('',(#502),#496,.T.);
#504=CARTESIAN_POINT('',(5.500000,4.041452,0.000000));
#505=DIRECTION('',(0.000000000,0.866025404,-0.500000000));
#506=DIRECTION('',(0.000000000,-0.500000000,-0.866025404));
#507=AXIS2_PLACEMENT_3D('',#504,#505,#506);
#508=PLANE('',#507);
#509=CARTESIAN_POINT('',(5.500000,4.041452,0.000000));
#510=CARTESIAN_POINT('',(12.500000,4.041452,0.000000));
#511=CARTESIAN_POINT('',(12.500000,2.020726,-3.500000));
#512=CARTESIAN_POINT('',(5.500000,2.020726,-3.500000));
#513=POLY_LOOP('',(#509,#510,#511,#512));
#514=FACE_OUTER_BOUND('',#513,.T.);
#515=ADVANCED_FACE('',(#514),#508,.T.);
#516=CARTESIAN_POINT('',(5.500000,2.020726,-3.500000));
#517=DIRECTION('',(0.000000000,0.000000000,-1.000000000));
#518=DIRECTION('',(0.000000000,-1.000000000,-0.000000000));
#519=AXIS2_PLACEMENT_3D('',#516,#517,#518);
#520=PLANE('',#519);
#521=CARTESIAN_POINT('',(5.500000,2.020726,-3.500000));
#522=CARTESIAN_POINT('',(12.500000,2.020726,-3.500000));
#523=CARTESIAN_POINT('',(12.500000,-2.020726,-3.500000));
#524=CARTESIAN_POINT('',(5.500000,-2.020726,-3.500000));
#525=POLY_LOOP('',(#521,#522,#523,#524));
#526=FACE_OUTER_BOUND('',#525,.T.);
#527=ADVANCED_FACE('',(#526),#520,.T.);
#528=CARTESIAN_POINT('',(5.500000,-2.020726,-3.500000));
#529=DIRECTION('',(0.000000000,-0.866025404,-0.500000000));
#530=DIRECTION('',(0.000000000,-0.500000000,0.866025404));
#531=AXIS2_PLACEMENT_3D('',#528,#529,#530);
#532=PLANE('',#531);
#533=CARTESIAN_POINT('',(5.500000,-2.020726,-3.500000));
#534=CARTESIAN_POINT('',(12.500000,-2.020726,-3.500000));
#535=CARTESIAN_POINT('',(12.500000,-4.041452,-0.000000));
#536=CARTESIAN_POINT('',(5.500000,-4.041452,-0.000000));
#537=POLY_LOOP('',(#533,#534,#535,#536));
#538=FACE_OUTER_BOUND('',#537,.T.);
#539=ADVANCED_FACE('',(#538),#532,.T.);
#540=CARTESIAN_POINT('',(5.500000,-4.041452,-0.000000));
#541=DIRECTION('',(0.000000000,-0.866025404,0.500000000));
#542=DIRECTION('',(0.000000000,0.500000000,0.866025404));
#543=AXIS2_PLACEMENT_3D('',#540,#541,#542);
#544=PLANE('',#543);
#545=CARTESIAN_POINT('',(5.500000,-4.041452,-0.000000));
#546=CARTESIAN_POINT('',(12.500000,-4.041452,-0.000000));
#547=CARTESIAN_POINT('',(12.500000,-2.020726,3.500000));
#548=CARTESIAN_POINT('',(5.500000,-2.020726,3.500000));
#549=POLY_LOOP('',(#545,#546,#547,#548));
#550=FACE_OUTER_BOUND('',#549,.T.);
#551=ADVANCED_FACE('',(#550),#544,.T.);
#552=CARTESIAN_POINT('',(5.500000,-2.020726,3.500000));
#553=DIRECTION('',(0.000000000,-0.000000000,1.000000000));
#554=DIRECTION('',(0.000000000,1.000000000,0.000000000));
#555=AXIS2_PLACEMENT_3D('',#552,#553,#554);
#556=PLANE('',#555);
#557=CARTESIAN_POINT('',(5.500000,-2.020726,3.500000));
#558=CARTESIAN_POINT('',(12.500000,-2.020726,3.500000));
#559=CARTESIAN_POINT('',(12.500000,2.020726,3.500000));
#560=CARTESIAN_POINT('',(5.500000,2.020726,3.500000));
#561=POLY_LOOP('',(#557,#558,#559,#560));
#562=FACE_OUTER_BOUND('',#561,.T.);
#563=ADVANCED_FACE('',(#562),#556,.T.);
#564=CLOSED_SHELL('',(#477,#491,#503,#515,#527,#539,#551,#563));
#565=MANIFOLD_SOLID_BREP('MK11-M5_ecrou',#564);
#566=(GEOMETRIC_REPRESENTATION_CONTEXT(3)GLOBAL_UNIT_ASSIGNED_CONTEXT((#1,#2,#3))GLOBAL_UNCERTAINTY_ASSIGNED_CONTEXT((#4))REPRESENTATION_CONTEXT('',''));
#567=SHAPE_REPRESENTATION('MK11-M5',(#361,#463,#565),#566);
#568=PRODUCT('MK11-M5','MK11 · inox M5','corps 25×5×5 mm, écrou 7 mm sur plats, enveloppe 25×5×5 mm',(#6));
#569=PRODUCT_DEFINITION_FORMATION('','',#568);
#570=PRODUCT_DEFINITION('','',#569,#7);
#571=PRODUCT_DEFINITION_SHAPE('','',#570);
#572=SHAPE_DEFINITION_REPRESENTATION(#571,#567);
ENDSEC;
END-ISO-10303-21;
