ISO-10303-21;
HEADER;
FILE_DESCRIPTION(('STEP d''encombrement · modèle simplifié | capteur MK11-M8 | corps 50×8×8 mm, écrou 13 mm sur plats, enveloppe 50×8×8 mm | provenance : MK11-Stainless.pdf, page 1 | Ce fichier n''est ni un fichier fabricant ni une CAO de fabrication : géométrie d''encombrement approximée (FACETED_BREP), générée par scripts/generate-step-envelopes.ts.'),'2;1');
FILE_NAME('step/MK11-M8.step','2026-01-01T00:00:00',('Standex Sensor Studio'),('Standex Detect'),'generate-step-envelopes.ts','','');
FILE_SCHEMA(('AUTOMOTIVE_DESIGN { 1 0 10303 214 1 1 1 1 }'));
ENDSEC;
DATA;
#UNITMM=(NAMED_UNIT(*)LENGTH_UNIT()SI_UNIT(.MILLI.,.METRE.));
#UNITRAD=(NAMED_UNIT(*)PLANE_ANGLE_UNIT()SI_UNIT($,.RADIAN.));
#UNITSR=(NAMED_UNIT(*)SOLID_ANGLE_UNIT()SI_UNIT($,.STERADIAN.));
#UNCERT=UNCERTAINTY_MEASURE_WITH_UNIT(LENGTH_MEASURE(1.0E-6),#UNITMM,'','');
#PC=PRODUCT_CONTEXT('',#PC2,'mechanical');
#PC2=APPLICATION_CONTEXT('encombrement capteur reed - modele simplifie');
#1=CARTESIAN_POINT('',(-25.000000,3.863703,-1.035276));
#2=DIRECTION('',(-1.000000000,0.000000000,0.000000000));
#3=DIRECTION('',(0.000000000,0.000000000,-1.000000000));
#4=AXIS2_PLACEMENT_3D('',#1,#2,#3);
#5=PLANE('',#4);
#6=CARTESIAN_POINT('',(-25.000000,3.863703,-1.035276));
#7=CARTESIAN_POINT('',(-25.000000,3.464102,-2.000000));
#8=CARTESIAN_POINT('',(-25.000000,2.828427,-2.828427));
#9=CARTESIAN_POINT('',(-25.000000,2.000000,-3.464102));
#10=CARTESIAN_POINT('',(-25.000000,1.035276,-3.863703));
#11=CARTESIAN_POINT('',(-25.000000,-0.000000,-4.000000));
#12=CARTESIAN_POINT('',(-25.000000,-1.035276,-3.863703));
#13=CARTESIAN_POINT('',(-25.000000,-2.000000,-3.464102));
#14=CARTESIAN_POINT('',(-25.000000,-2.828427,-2.828427));
#15=CARTESIAN_POINT('',(-25.000000,-3.464102,-2.000000));
#16=CARTESIAN_POINT('',(-25.000000,-3.863703,-1.035276));
#17=CARTESIAN_POINT('',(-25.000000,-4.000000,0.000000));
#18=CARTESIAN_POINT('',(-25.000000,-3.863703,1.035276));
#19=CARTESIAN_POINT('',(-25.000000,-3.464102,2.000000));
#20=CARTESIAN_POINT('',(-25.000000,-2.828427,2.828427));
#21=CARTESIAN_POINT('',(-25.000000,-2.000000,3.464102));
#22=CARTESIAN_POINT('',(-25.000000,-1.035276,3.863703));
#23=CARTESIAN_POINT('',(-25.000000,0.000000,4.000000));
#24=CARTESIAN_POINT('',(-25.000000,1.035276,3.863703));
#25=CARTESIAN_POINT('',(-25.000000,2.000000,3.464102));
#26=CARTESIAN_POINT('',(-25.000000,2.828427,2.828427));
#27=CARTESIAN_POINT('',(-25.000000,3.464102,2.000000));
#28=CARTESIAN_POINT('',(-25.000000,3.863703,1.035276));
#29=CARTESIAN_POINT('',(-25.000000,4.000000,0.000000));
#30=POLY_LOOP('',(#6,#7,#8,#9,#10,#11,#12,#13,#14,#15,#16,#17,#18,#19,#20,#21,#22,#23,#24,#25,#26,#27,#28,#29));
#31=FACE_OUTER_BOUND('',#30,.T.);
#32=ADVANCED_FACE('',(#31),#5,.T.);
#33=CARTESIAN_POINT('',(25.000000,4.000000,0.000000));
#34=DIRECTION('',(1.000000000,0.000000000,0.000000000));
#35=DIRECTION('',(0.000000000,0.000000000,1.000000000));
#36=AXIS2_PLACEMENT_3D('',#33,#34,#35);
#37=PLANE('',#36);
#38=CARTESIAN_POINT('',(25.000000,4.000000,0.000000));
#39=CARTESIAN_POINT('',(25.000000,3.863703,1.035276));
#40=CARTESIAN_POINT('',(25.000000,3.464102,2.000000));
#41=CARTESIAN_POINT('',(25.000000,2.828427,2.828427));
#42=CARTESIAN_POINT('',(25.000000,2.000000,3.464102));
#43=CARTESIAN_POINT('',(25.000000,1.035276,3.863703));
#44=CARTESIAN_POINT('',(25.000000,0.000000,4.000000));
#45=CARTESIAN_POINT('',(25.000000,-1.035276,3.863703));
#46=CARTESIAN_POINT('',(25.000000,-2.000000,3.464102));
#47=CARTESIAN_POINT('',(25.000000,-2.828427,2.828427));
#48=CARTESIAN_POINT('',(25.000000,-3.464102,2.000000));
#49=CARTESIAN_POINT('',(25.000000,-3.863703,1.035276));
#50=CARTESIAN_POINT('',(25.000000,-4.000000,0.000000));
#51=CARTESIAN_POINT('',(25.000000,-3.863703,-1.035276));
#52=CARTESIAN_POINT('',(25.000000,-3.464102,-2.000000));
#53=CARTESIAN_POINT('',(25.000000,-2.828427,-2.828427));
#54=CARTESIAN_POINT('',(25.000000,-2.000000,-3.464102));
#55=CARTESIAN_POINT('',(25.000000,-1.035276,-3.863703));
#56=CARTESIAN_POINT('',(25.000000,-0.000000,-4.000000));
#57=CARTESIAN_POINT('',(25.000000,1.035276,-3.863703));
#58=CARTESIAN_POINT('',(25.000000,2.000000,-3.464102));
#59=CARTESIAN_POINT('',(25.000000,2.828427,-2.828427));
#60=CARTESIAN_POINT('',(25.000000,3.464102,-2.000000));
#61=CARTESIAN_POINT('',(25.000000,3.863703,-1.035276));
#62=POLY_LOOP('',(#38,#39,#40,#41,#42,#43,#44,#45,#46,#47,#48,#49,#50,#51,#52,#53,#54,#55,#56,#57,#58,#59,#60,#61));
#63=FACE_OUTER_BOUND('',#62,.T.);
#64=ADVANCED_FACE('',(#63),#37,.T.);
#65=CARTESIAN_POINT('',(-25.000000,4.000000,0.000000));
#66=DIRECTION('',(0.000000000,-0.991444861,-0.130526192));
#67=DIRECTION('',(0.000000000,-0.130526192,0.991444861));
#68=AXIS2_PLACEMENT_3D('',#65,#66,#67);
#69=PLANE('',#68);
#70=CARTESIAN_POINT('',(-25.000000,4.000000,0.000000));
#71=CARTESIAN_POINT('',(25.000000,4.000000,0.000000));
#72=CARTESIAN_POINT('',(25.000000,3.863703,1.035276));
#73=CARTESIAN_POINT('',(-25.000000,3.863703,1.035276));
#74=POLY_LOOP('',(#70,#71,#72,#73));
#75=FACE_OUTER_BOUND('',#74,.T.);
#76=ADVANCED_FACE('',(#75),#69,.T.);
#77=CARTESIAN_POINT('',(-25.000000,3.863703,1.035276));
#78=DIRECTION('',(0.000000000,-0.923879533,-0.382683432));
#79=DIRECTION('',(0.000000000,-0.382683432,0.923879533));
#80=AXIS2_PLACEMENT_3D('',#77,#78,#79);
#81=PLANE('',#80);
#82=CARTESIAN_POINT('',(-25.000000,3.863703,1.035276));
#83=CARTESIAN_POINT('',(25.000000,3.863703,1.035276));
#84=CARTESIAN_POINT('',(25.000000,3.464102,2.000000));
#85=CARTESIAN_POINT('',(-25.000000,3.464102,2.000000));
#86=POLY_LOOP('',(#82,#83,#84,#85));
#87=FACE_OUTER_BOUND('',#86,.T.);
#88=ADVANCED_FACE('',(#87),#81,.T.);
#89=CARTESIAN_POINT('',(-25.000000,3.464102,2.000000));
#90=DIRECTION('',(0.000000000,-0.793353340,-0.608761429));
#91=DIRECTION('',(0.000000000,-0.608761429,0.793353340));
#92=AXIS2_PLACEMENT_3D('',#89,#90,#91);
#93=PLANE('',#92);
#94=CARTESIAN_POINT('',(-25.000000,3.464102,2.000000));
#95=CARTESIAN_POINT('',(25.000000,3.464102,2.000000));
#96=CARTESIAN_POINT('',(25.000000,2.828427,2.828427));
#97=CARTESIAN_POINT('',(-25.000000,2.828427,2.828427));
#98=POLY_LOOP('',(#94,#95,#96,#97));
#99=FACE_OUTER_BOUND('',#98,.T.);
#100=ADVANCED_FACE('',(#99),#93,.T.);
#101=CARTESIAN_POINT('',(-25.000000,2.828427,2.828427));
#102=DIRECTION('',(0.000000000,-0.608761429,-0.793353340));
#103=DIRECTION('',(0.000000000,-0.793353340,0.608761429));
#104=AXIS2_PLACEMENT_3D('',#101,#102,#103);
#105=PLANE('',#104);
#106=CARTESIAN_POINT('',(-25.000000,2.828427,2.828427));
#107=CARTESIAN_POINT('',(25.000000,2.828427,2.828427));
#108=CARTESIAN_POINT('',(25.000000,2.000000,3.464102));
#109=CARTESIAN_POINT('',(-25.000000,2.000000,3.464102));
#110=POLY_LOOP('',(#106,#107,#108,#109));
#111=FACE_OUTER_BOUND('',#110,.T.);
#112=ADVANCED_FACE('',(#111),#105,.T.);
#113=CARTESIAN_POINT('',(-25.000000,2.000000,3.464102));
#114=DIRECTION('',(0.000000000,-0.382683432,-0.923879533));
#115=DIRECTION('',(0.000000000,-0.923879533,0.382683432));
#116=AXIS2_PLACEMENT_3D('',#113,#114,#115);
#117=PLANE('',#116);
#118=CARTESIAN_POINT('',(-25.000000,2.000000,3.464102));
#119=CARTESIAN_POINT('',(25.000000,2.000000,3.464102));
#120=CARTESIAN_POINT('',(25.000000,1.035276,3.863703));
#121=CARTESIAN_POINT('',(-25.000000,1.035276,3.863703));
#122=POLY_LOOP('',(#118,#119,#120,#121));
#123=FACE_OUTER_BOUND('',#122,.T.);
#124=ADVANCED_FACE('',(#123),#117,.T.);
#125=CARTESIAN_POINT('',(-25.000000,1.035276,3.863703));
#126=DIRECTION('',(0.000000000,-0.130526192,-0.991444861));
#127=DIRECTION('',(0.000000000,-0.991444861,0.130526192));
#128=AXIS2_PLACEMENT_3D('',#125,#126,#127);
#129=PLANE('',#128);
#130=CARTESIAN_POINT('',(-25.000000,1.035276,3.863703));
#131=CARTESIAN_POINT('',(25.000000,1.035276,3.863703));
#132=CARTESIAN_POINT('',(25.000000,0.000000,4.000000));
#133=CARTESIAN_POINT('',(-25.000000,0.000000,4.000000));
#134=POLY_LOOP('',(#130,#131,#132,#133));
#135=FACE_OUTER_BOUND('',#134,.T.);
#136=ADVANCED_FACE('',(#135),#129,.T.);
#137=CARTESIAN_POINT('',(-25.000000,0.000000,4.000000));
#138=DIRECTION('',(0.000000000,0.130526192,-0.991444861));
#139=DIRECTION('',(0.000000000,-0.991444861,-0.130526192));
#140=AXIS2_PLACEMENT_3D('',#137,#138,#139);
#141=PLANE('',#140);
#142=CARTESIAN_POINT('',(-25.000000,0.000000,4.000000));
#143=CARTESIAN_POINT('',(25.000000,0.000000,4.000000));
#144=CARTESIAN_POINT('',(25.000000,-1.035276,3.863703));
#145=CARTESIAN_POINT('',(-25.000000,-1.035276,3.863703));
#146=POLY_LOOP('',(#142,#143,#144,#145));
#147=FACE_OUTER_BOUND('',#146,.T.);
#148=ADVANCED_FACE('',(#147),#141,.T.);
#149=CARTESIAN_POINT('',(-25.000000,-1.035276,3.863703));
#150=DIRECTION('',(0.000000000,0.382683432,-0.923879533));
#151=DIRECTION('',(0.000000000,-0.923879533,-0.382683432));
#152=AXIS2_PLACEMENT_3D('',#149,#150,#151);
#153=PLANE('',#152);
#154=CARTESIAN_POINT('',(-25.000000,-1.035276,3.863703));
#155=CARTESIAN_POINT('',(25.000000,-1.035276,3.863703));
#156=CARTESIAN_POINT('',(25.000000,-2.000000,3.464102));
#157=CARTESIAN_POINT('',(-25.000000,-2.000000,3.464102));
#158=POLY_LOOP('',(#154,#155,#156,#157));
#159=FACE_OUTER_BOUND('',#158,.T.);
#160=ADVANCED_FACE('',(#159),#153,.T.);
#161=CARTESIAN_POINT('',(-25.000000,-2.000000,3.464102));
#162=DIRECTION('',(0.000000000,0.608761429,-0.793353340));
#163=DIRECTION('',(0.000000000,-0.793353340,-0.608761429));
#164=AXIS2_PLACEMENT_3D('',#161,#162,#163);
#165=PLANE('',#164);
#166=CARTESIAN_POINT('',(-25.000000,-2.000000,3.464102));
#167=CARTESIAN_POINT('',(25.000000,-2.000000,3.464102));
#168=CARTESIAN_POINT('',(25.000000,-2.828427,2.828427));
#169=CARTESIAN_POINT('',(-25.000000,-2.828427,2.828427));
#170=POLY_LOOP('',(#166,#167,#168,#169));
#171=FACE_OUTER_BOUND('',#170,.T.);
#172=ADVANCED_FACE('',(#171),#165,.T.);
#173=CARTESIAN_POINT('',(-25.000000,-2.828427,2.828427));
#174=DIRECTION('',(0.000000000,0.793353340,-0.608761429));
#175=DIRECTION('',(0.000000000,-0.608761429,-0.793353340));
#176=AXIS2_PLACEMENT_3D('',#173,#174,#175);
#177=PLANE('',#176);
#178=CARTESIAN_POINT('',(-25.000000,-2.828427,2.828427));
#179=CARTESIAN_POINT('',(25.000000,-2.828427,2.828427));
#180=CARTESIAN_POINT('',(25.000000,-3.464102,2.000000));
#181=CARTESIAN_POINT('',(-25.000000,-3.464102,2.000000));
#182=POLY_LOOP('',(#178,#179,#180,#181));
#183=FACE_OUTER_BOUND('',#182,.T.);
#184=ADVANCED_FACE('',(#183),#177,.T.);
#185=CARTESIAN_POINT('',(-25.000000,-3.464102,2.000000));
#186=DIRECTION('',(0.000000000,0.923879533,-0.382683432));
#187=DIRECTION('',(0.000000000,-0.382683432,-0.923879533));
#188=AXIS2_PLACEMENT_3D('',#185,#186,#187);
#189=PLANE('',#188);
#190=CARTESIAN_POINT('',(-25.000000,-3.464102,2.000000));
#191=CARTESIAN_POINT('',(25.000000,-3.464102,2.000000));
#192=CARTESIAN_POINT('',(25.000000,-3.863703,1.035276));
#193=CARTESIAN_POINT('',(-25.000000,-3.863703,1.035276));
#194=POLY_LOOP('',(#190,#191,#192,#193));
#195=FACE_OUTER_BOUND('',#194,.T.);
#196=ADVANCED_FACE('',(#195),#189,.T.);
#197=CARTESIAN_POINT('',(-25.000000,-3.863703,1.035276));
#198=DIRECTION('',(0.000000000,0.991444861,-0.130526192));
#199=DIRECTION('',(0.000000000,-0.130526192,-0.991444861));
#200=AXIS2_PLACEMENT_3D('',#197,#198,#199);
#201=PLANE('',#200);
#202=CARTESIAN_POINT('',(-25.000000,-3.863703,1.035276));
#203=CARTESIAN_POINT('',(25.000000,-3.863703,1.035276));
#204=CARTESIAN_POINT('',(25.000000,-4.000000,0.000000));
#205=CARTESIAN_POINT('',(-25.000000,-4.000000,0.000000));
#206=POLY_LOOP('',(#202,#203,#204,#205));
#207=FACE_OUTER_BOUND('',#206,.T.);
#208=ADVANCED_FACE('',(#207),#201,.T.);
#209=CARTESIAN_POINT('',(-25.000000,-4.000000,0.000000));
#210=DIRECTION('',(0.000000000,0.991444861,0.130526192));
#211=DIRECTION('',(0.000000000,0.130526192,-0.991444861));
#212=AXIS2_PLACEMENT_3D('',#209,#210,#211);
#213=PLANE('',#212);
#214=CARTESIAN_POINT('',(-25.000000,-4.000000,0.000000));
#215=CARTESIAN_POINT('',(25.000000,-4.000000,0.000000));
#216=CARTESIAN_POINT('',(25.000000,-3.863703,-1.035276));
#217=CARTESIAN_POINT('',(-25.000000,-3.863703,-1.035276));
#218=POLY_LOOP('',(#214,#215,#216,#217));
#219=FACE_OUTER_BOUND('',#218,.T.);
#220=ADVANCED_FACE('',(#219),#213,.T.);
#221=CARTESIAN_POINT('',(-25.000000,-3.863703,-1.035276));
#222=DIRECTION('',(0.000000000,0.923879533,0.382683432));
#223=DIRECTION('',(0.000000000,0.382683432,-0.923879533));
#224=AXIS2_PLACEMENT_3D('',#221,#222,#223);
#225=PLANE('',#224);
#226=CARTESIAN_POINT('',(-25.000000,-3.863703,-1.035276));
#227=CARTESIAN_POINT('',(25.000000,-3.863703,-1.035276));
#228=CARTESIAN_POINT('',(25.000000,-3.464102,-2.000000));
#229=CARTESIAN_POINT('',(-25.000000,-3.464102,-2.000000));
#230=POLY_LOOP('',(#226,#227,#228,#229));
#231=FACE_OUTER_BOUND('',#230,.T.);
#232=ADVANCED_FACE('',(#231),#225,.T.);
#233=CARTESIAN_POINT('',(-25.000000,-3.464102,-2.000000));
#234=DIRECTION('',(0.000000000,0.793353340,0.608761429));
#235=DIRECTION('',(0.000000000,0.608761429,-0.793353340));
#236=AXIS2_PLACEMENT_3D('',#233,#234,#235);
#237=PLANE('',#236);
#238=CARTESIAN_POINT('',(-25.000000,-3.464102,-2.000000));
#239=CARTESIAN_POINT('',(25.000000,-3.464102,-2.000000));
#240=CARTESIAN_POINT('',(25.000000,-2.828427,-2.828427));
#241=CARTESIAN_POINT('',(-25.000000,-2.828427,-2.828427));
#242=POLY_LOOP('',(#238,#239,#240,#241));
#243=FACE_OUTER_BOUND('',#242,.T.);
#244=ADVANCED_FACE('',(#243),#237,.T.);
#245=CARTESIAN_POINT('',(-25.000000,-2.828427,-2.828427));
#246=DIRECTION('',(0.000000000,0.608761429,0.793353340));
#247=DIRECTION('',(0.000000000,0.793353340,-0.608761429));
#248=AXIS2_PLACEMENT_3D('',#245,#246,#247);
#249=PLANE('',#248);
#250=CARTESIAN_POINT('',(-25.000000,-2.828427,-2.828427));
#251=CARTESIAN_POINT('',(25.000000,-2.828427,-2.828427));
#252=CARTESIAN_POINT('',(25.000000,-2.000000,-3.464102));
#253=CARTESIAN_POINT('',(-25.000000,-2.000000,-3.464102));
#254=POLY_LOOP('',(#250,#251,#252,#253));
#255=FACE_OUTER_BOUND('',#254,.T.);
#256=ADVANCED_FACE('',(#255),#249,.T.);
#257=CARTESIAN_POINT('',(-25.000000,-2.000000,-3.464102));
#258=DIRECTION('',(0.000000000,0.382683432,0.923879533));
#259=DIRECTION('',(0.000000000,0.923879533,-0.382683432));
#260=AXIS2_PLACEMENT_3D('',#257,#258,#259);
#261=PLANE('',#260);
#262=CARTESIAN_POINT('',(-25.000000,-2.000000,-3.464102));
#263=CARTESIAN_POINT('',(25.000000,-2.000000,-3.464102));
#264=CARTESIAN_POINT('',(25.000000,-1.035276,-3.863703));
#265=CARTESIAN_POINT('',(-25.000000,-1.035276,-3.863703));
#266=POLY_LOOP('',(#262,#263,#264,#265));
#267=FACE_OUTER_BOUND('',#266,.T.);
#268=ADVANCED_FACE('',(#267),#261,.T.);
#269=CARTESIAN_POINT('',(-25.000000,-1.035276,-3.863703));
#270=DIRECTION('',(0.000000000,0.130526192,0.991444861));
#271=DIRECTION('',(0.000000000,0.991444861,-0.130526192));
#272=AXIS2_PLACEMENT_3D('',#269,#270,#271);
#273=PLANE('',#272);
#274=CARTESIAN_POINT('',(-25.000000,-1.035276,-3.863703));
#275=CARTESIAN_POINT('',(25.000000,-1.035276,-3.863703));
#276=CARTESIAN_POINT('',(25.000000,-0.000000,-4.000000));
#277=CARTESIAN_POINT('',(-25.000000,-0.000000,-4.000000));
#278=POLY_LOOP('',(#274,#275,#276,#277));
#279=FACE_OUTER_BOUND('',#278,.T.);
#280=ADVANCED_FACE('',(#279),#273,.T.);
#281=CARTESIAN_POINT('',(-25.000000,-0.000000,-4.000000));
#282=DIRECTION('',(0.000000000,-0.130526192,0.991444861));
#283=DIRECTION('',(0.000000000,0.991444861,0.130526192));
#284=AXIS2_PLACEMENT_3D('',#281,#282,#283);
#285=PLANE('',#284);
#286=CARTESIAN_POINT('',(-25.000000,-0.000000,-4.000000));
#287=CARTESIAN_POINT('',(25.000000,-0.000000,-4.000000));
#288=CARTESIAN_POINT('',(25.000000,1.035276,-3.863703));
#289=CARTESIAN_POINT('',(-25.000000,1.035276,-3.863703));
#290=POLY_LOOP('',(#286,#287,#288,#289));
#291=FACE_OUTER_BOUND('',#290,.T.);
#292=ADVANCED_FACE('',(#291),#285,.T.);
#293=CARTESIAN_POINT('',(-25.000000,1.035276,-3.863703));
#294=DIRECTION('',(0.000000000,-0.382683432,0.923879533));
#295=DIRECTION('',(0.000000000,0.923879533,0.382683432));
#296=AXIS2_PLACEMENT_3D('',#293,#294,#295);
#297=PLANE('',#296);
#298=CARTESIAN_POINT('',(-25.000000,1.035276,-3.863703));
#299=CARTESIAN_POINT('',(25.000000,1.035276,-3.863703));
#300=CARTESIAN_POINT('',(25.000000,2.000000,-3.464102));
#301=CARTESIAN_POINT('',(-25.000000,2.000000,-3.464102));
#302=POLY_LOOP('',(#298,#299,#300,#301));
#303=FACE_OUTER_BOUND('',#302,.T.);
#304=ADVANCED_FACE('',(#303),#297,.T.);
#305=CARTESIAN_POINT('',(-25.000000,2.000000,-3.464102));
#306=DIRECTION('',(0.000000000,-0.608761429,0.793353340));
#307=DIRECTION('',(0.000000000,0.793353340,0.608761429));
#308=AXIS2_PLACEMENT_3D('',#305,#306,#307);
#309=PLANE('',#308);
#310=CARTESIAN_POINT('',(-25.000000,2.000000,-3.464102));
#311=CARTESIAN_POINT('',(25.000000,2.000000,-3.464102));
#312=CARTESIAN_POINT('',(25.000000,2.828427,-2.828427));
#313=CARTESIAN_POINT('',(-25.000000,2.828427,-2.828427));
#314=POLY_LOOP('',(#310,#311,#312,#313));
#315=FACE_OUTER_BOUND('',#314,.T.);
#316=ADVANCED_FACE('',(#315),#309,.T.);
#317=CARTESIAN_POINT('',(-25.000000,2.828427,-2.828427));
#318=DIRECTION('',(0.000000000,-0.793353340,0.608761429));
#319=DIRECTION('',(0.000000000,0.608761429,0.793353340));
#320=AXIS2_PLACEMENT_3D('',#317,#318,#319);
#321=PLANE('',#320);
#322=CARTESIAN_POINT('',(-25.000000,2.828427,-2.828427));
#323=CARTESIAN_POINT('',(25.000000,2.828427,-2.828427));
#324=CARTESIAN_POINT('',(25.000000,3.464102,-2.000000));
#325=CARTESIAN_POINT('',(-25.000000,3.464102,-2.000000));
#326=POLY_LOOP('',(#322,#323,#324,#325));
#327=FACE_OUTER_BOUND('',#326,.T.);
#328=ADVANCED_FACE('',(#327),#321,.T.);
#329=CARTESIAN_POINT('',(-25.000000,3.464102,-2.000000));
#330=DIRECTION('',(0.000000000,-0.923879533,0.382683432));
#331=DIRECTION('',(0.000000000,0.382683432,0.923879533));
#332=AXIS2_PLACEMENT_3D('',#329,#330,#331);
#333=PLANE('',#332);
#334=CARTESIAN_POINT('',(-25.000000,3.464102,-2.000000));
#335=CARTESIAN_POINT('',(25.000000,3.464102,-2.000000));
#336=CARTESIAN_POINT('',(25.000000,3.863703,-1.035276));
#337=CARTESIAN_POINT('',(-25.000000,3.863703,-1.035276));
#338=POLY_LOOP('',(#334,#335,#336,#337));
#339=FACE_OUTER_BOUND('',#338,.T.);
#340=ADVANCED_FACE('',(#339),#333,.T.);
#341=CARTESIAN_POINT('',(-25.000000,3.863703,-1.035276));
#342=DIRECTION('',(0.000000000,-0.991444861,0.130526192));
#343=DIRECTION('',(0.000000000,0.130526192,0.991444861));
#344=AXIS2_PLACEMENT_3D('',#341,#342,#343);
#345=PLANE('',#344);
#346=CARTESIAN_POINT('',(-25.000000,3.863703,-1.035276));
#347=CARTESIAN_POINT('',(25.000000,3.863703,-1.035276));
#348=CARTESIAN_POINT('',(25.000000,4.000000,0.000000));
#349=CARTESIAN_POINT('',(-25.000000,4.000000,0.000000));
#350=POLY_LOOP('',(#346,#347,#348,#349));
#351=FACE_OUTER_BOUND('',#350,.T.);
#352=ADVANCED_FACE('',(#351),#345,.T.);
#353=CLOSED_SHELL('',(#32,#64,#76,#88,#100,#112,#124,#136,#148,#160,#172,#184,#196,#208,#220,#232,#244,#256,#268,#280,#292,#304,#316,#328,#340,#352));
#354=MANIFOLD_SOLID_BREP('MK11-M8_corps',#353);
#355=CARTESIAN_POINT('',(-25.000000,-3.752777,6.500000));
#356=DIRECTION('',(1.000000000,0.000000000,0.000000000));
#357=DIRECTION('',(0.000000000,0.000000000,1.000000000));
#358=AXIS2_PLACEMENT_3D('',#355,#356,#357);
#359=PLANE('',#358);
#360=CARTESIAN_POINT('',(-25.000000,-3.752777,6.500000));
#361=CARTESIAN_POINT('',(-25.000000,-7.505553,-0.000000));
#362=CARTESIAN_POINT('',(-25.000000,-3.752777,-6.500000));
#363=CARTESIAN_POINT('',(-25.000000,3.752777,-6.500000));
#364=CARTESIAN_POINT('',(-25.000000,7.505553,0.000000));
#365=CARTESIAN_POINT('',(-25.000000,3.752777,6.500000));
#366=POLY_LOOP('',(#360,#361,#362,#363,#364,#365));
#367=FACE_OUTER_BOUND('',#366,.T.);
#368=ADVANCED_FACE('',(#367),#359,.T.);
#369=CARTESIAN_POINT('',(-12.000000,3.752777,6.500000));
#370=DIRECTION('',(-1.000000000,0.000000000,0.000000000));
#371=DIRECTION('',(0.000000000,0.000000000,-1.000000000));
#372=AXIS2_PLACEMENT_3D('',#369,#370,#371);
#373=PLANE('',#372);
#374=CARTESIAN_POINT('',(-12.000000,3.752777,6.500000));
#375=CARTESIAN_POINT('',(-12.000000,7.505553,0.000000));
#376=CARTESIAN_POINT('',(-12.000000,3.752777,-6.500000));
#377=CARTESIAN_POINT('',(-12.000000,-3.752777,-6.500000));
#378=CARTESIAN_POINT('',(-12.000000,-7.505553,-0.000000));
#379=CARTESIAN_POINT('',(-12.000000,-3.752777,6.500000));
#380=POLY_LOOP('',(#374,#375,#376,#377,#378,#379));
#381=FACE_OUTER_BOUND('',#380,.T.);
#382=ADVANCED_FACE('',(#381),#373,.T.);
#383=CARTESIAN_POINT('',(-25.000000,3.752777,6.500000));
#384=DIRECTION('',(0.000000000,0.866025404,0.500000000));
#385=DIRECTION('',(0.000000000,0.500000000,-0.866025404));
#386=AXIS2_PLACEMENT_3D('',#383,#384,#385);
#387=PLANE('',#386);
#388=CARTESIAN_POINT('',(-25.000000,3.752777,6.500000));
#389=CARTESIAN_POINT('',(-12.000000,3.752777,6.500000));
#390=CARTESIAN_POINT('',(-12.000000,7.505553,0.000000));
#391=CARTESIAN_POINT('',(-25.000000,7.505553,0.000000));
#392=POLY_LOOP('',(#388,#389,#390,#391));
#393=FACE_OUTER_BOUND('',#392,.T.);
#394=ADVANCED_FACE('',(#393),#387,.T.);
#395=CARTESIAN_POINT('',(-25.000000,7.505553,0.000000));
#396=DIRECTION('',(0.000000000,0.866025404,-0.500000000));
#397=DIRECTION('',(0.000000000,-0.500000000,-0.866025404));
#398=AXIS2_PLACEMENT_3D('',#395,#396,#397);
#399=PLANE('',#398);
#400=CARTESIAN_POINT('',(-25.000000,7.505553,0.000000));
#401=CARTESIAN_POINT('',(-12.000000,7.505553,0.000000));
#402=CARTESIAN_POINT('',(-12.000000,3.752777,-6.500000));
#403=CARTESIAN_POINT('',(-25.000000,3.752777,-6.500000));
#404=POLY_LOOP('',(#400,#401,#402,#403));
#405=FACE_OUTER_BOUND('',#404,.T.);
#406=ADVANCED_FACE('',(#405),#399,.T.);
#407=CARTESIAN_POINT('',(-25.000000,3.752777,-6.500000));
#408=DIRECTION('',(0.000000000,0.000000000,-1.000000000));
#409=DIRECTION('',(0.000000000,-1.000000000,-0.000000000));
#410=AXIS2_PLACEMENT_3D('',#407,#408,#409);
#411=PLANE('',#410);
#412=CARTESIAN_POINT('',(-25.000000,3.752777,-6.500000));
#413=CARTESIAN_POINT('',(-12.000000,3.752777,-6.500000));
#414=CARTESIAN_POINT('',(-12.000000,-3.752777,-6.500000));
#415=CARTESIAN_POINT('',(-25.000000,-3.752777,-6.500000));
#416=POLY_LOOP('',(#412,#413,#414,#415));
#417=FACE_OUTER_BOUND('',#416,.T.);
#418=ADVANCED_FACE('',(#417),#411,.T.);
#419=CARTESIAN_POINT('',(-25.000000,-3.752777,-6.500000));
#420=DIRECTION('',(0.000000000,-0.866025404,-0.500000000));
#421=DIRECTION('',(0.000000000,-0.500000000,0.866025404));
#422=AXIS2_PLACEMENT_3D('',#419,#420,#421);
#423=PLANE('',#422);
#424=CARTESIAN_POINT('',(-25.000000,-3.752777,-6.500000));
#425=CARTESIAN_POINT('',(-12.000000,-3.752777,-6.500000));
#426=CARTESIAN_POINT('',(-12.000000,-7.505553,-0.000000));
#427=CARTESIAN_POINT('',(-25.000000,-7.505553,-0.000000));
#428=POLY_LOOP('',(#424,#425,#426,#427));
#429=FACE_OUTER_BOUND('',#428,.T.);
#430=ADVANCED_FACE('',(#429),#423,.T.);
#431=CARTESIAN_POINT('',(-25.000000,-7.505553,-0.000000));
#432=DIRECTION('',(0.000000000,-0.866025404,0.500000000));
#433=DIRECTION('',(0.000000000,0.500000000,0.866025404));
#434=AXIS2_PLACEMENT_3D('',#431,#432,#433);
#435=PLANE('',#434);
#436=CARTESIAN_POINT('',(-25.000000,-7.505553,-0.000000));
#437=CARTESIAN_POINT('',(-12.000000,-7.505553,-0.000000));
#438=CARTESIAN_POINT('',(-12.000000,-3.752777,6.500000));
#439=CARTESIAN_POINT('',(-25.000000,-3.752777,6.500000));
#440=POLY_LOOP('',(#436,#437,#438,#439));
#441=FACE_OUTER_BOUND('',#440,.T.);
#442=ADVANCED_FACE('',(#441),#435,.T.);
#443=CARTESIAN_POINT('',(-25.000000,-3.752777,6.500000));
#444=DIRECTION('',(0.000000000,-0.000000000,1.000000000));
#445=DIRECTION('',(0.000000000,1.000000000,0.000000000));
#446=AXIS2_PLACEMENT_3D('',#443,#444,#445);
#447=PLANE('',#446);
#448=CARTESIAN_POINT('',(-25.000000,-3.752777,6.500000));
#449=CARTESIAN_POINT('',(-12.000000,-3.752777,6.500000));
#450=CARTESIAN_POINT('',(-12.000000,3.752777,6.500000));
#451=CARTESIAN_POINT('',(-25.000000,3.752777,6.500000));
#452=POLY_LOOP('',(#448,#449,#450,#451));
#453=FACE_OUTER_BOUND('',#452,.T.);
#454=ADVANCED_FACE('',(#453),#447,.T.);
#455=CLOSED_SHELL('',(#368,#382,#394,#406,#418,#430,#442,#454));
#456=MANIFOLD_SOLID_BREP('MK11-M8_ecrou',#455);
#457=CARTESIAN_POINT('',(12.000000,-3.752777,6.500000));
#458=DIRECTION('',(1.000000000,0.000000000,0.000000000));
#459=DIRECTION('',(0.000000000,0.000000000,1.000000000));
#460=AXIS2_PLACEMENT_3D('',#457,#458,#459);
#461=PLANE('',#460);
#462=CARTESIAN_POINT('',(12.000000,-3.752777,6.500000));
#463=CARTESIAN_POINT('',(12.000000,-7.505553,-0.000000));
#464=CARTESIAN_POINT('',(12.000000,-3.752777,-6.500000));
#465=CARTESIAN_POINT('',(12.000000,3.752777,-6.500000));
#466=CARTESIAN_POINT('',(12.000000,7.505553,0.000000));
#467=CARTESIAN_POINT('',(12.000000,3.752777,6.500000));
#468=POLY_LOOP('',(#462,#463,#464,#465,#466,#467));
#469=FACE_OUTER_BOUND('',#468,.T.);
#470=ADVANCED_FACE('',(#469),#461,.T.);
#471=CARTESIAN_POINT('',(25.000000,3.752777,6.500000));
#472=DIRECTION('',(-1.000000000,0.000000000,0.000000000));
#473=DIRECTION('',(0.000000000,0.000000000,-1.000000000));
#474=AXIS2_PLACEMENT_3D('',#471,#472,#473);
#475=PLANE('',#474);
#476=CARTESIAN_POINT('',(25.000000,3.752777,6.500000));
#477=CARTESIAN_POINT('',(25.000000,7.505553,0.000000));
#478=CARTESIAN_POINT('',(25.000000,3.752777,-6.500000));
#479=CARTESIAN_POINT('',(25.000000,-3.752777,-6.500000));
#480=CARTESIAN_POINT('',(25.000000,-7.505553,-0.000000));
#481=CARTESIAN_POINT('',(25.000000,-3.752777,6.500000));
#482=POLY_LOOP('',(#476,#477,#478,#479,#480,#481));
#483=FACE_OUTER_BOUND('',#482,.T.);
#484=ADVANCED_FACE('',(#483),#475,.T.);
#485=CARTESIAN_POINT('',(12.000000,3.752777,6.500000));
#486=DIRECTION('',(0.000000000,0.866025404,0.500000000));
#487=DIRECTION('',(0.000000000,0.500000000,-0.866025404));
#488=AXIS2_PLACEMENT_3D('',#485,#486,#487);
#489=PLANE('',#488);
#490=CARTESIAN_POINT('',(12.000000,3.752777,6.500000));
#491=CARTESIAN_POINT('',(25.000000,3.752777,6.500000));
#492=CARTESIAN_POINT('',(25.000000,7.505553,0.000000));
#493=CARTESIAN_POINT('',(12.000000,7.505553,0.000000));
#494=POLY_LOOP('',(#490,#491,#492,#493));
#495=FACE_OUTER_BOUND('',#494,.T.);
#496=ADVANCED_FACE('',(#495),#489,.T.);
#497=CARTESIAN_POINT('',(12.000000,7.505553,0.000000));
#498=DIRECTION('',(0.000000000,0.866025404,-0.500000000));
#499=DIRECTION('',(0.000000000,-0.500000000,-0.866025404));
#500=AXIS2_PLACEMENT_3D('',#497,#498,#499);
#501=PLANE('',#500);
#502=CARTESIAN_POINT('',(12.000000,7.505553,0.000000));
#503=CARTESIAN_POINT('',(25.000000,7.505553,0.000000));
#504=CARTESIAN_POINT('',(25.000000,3.752777,-6.500000));
#505=CARTESIAN_POINT('',(12.000000,3.752777,-6.500000));
#506=POLY_LOOP('',(#502,#503,#504,#505));
#507=FACE_OUTER_BOUND('',#506,.T.);
#508=ADVANCED_FACE('',(#507),#501,.T.);
#509=CARTESIAN_POINT('',(12.000000,3.752777,-6.500000));
#510=DIRECTION('',(0.000000000,0.000000000,-1.000000000));
#511=DIRECTION('',(0.000000000,-1.000000000,-0.000000000));
#512=AXIS2_PLACEMENT_3D('',#509,#510,#511);
#513=PLANE('',#512);
#514=CARTESIAN_POINT('',(12.000000,3.752777,-6.500000));
#515=CARTESIAN_POINT('',(25.000000,3.752777,-6.500000));
#516=CARTESIAN_POINT('',(25.000000,-3.752777,-6.500000));
#517=CARTESIAN_POINT('',(12.000000,-3.752777,-6.500000));
#518=POLY_LOOP('',(#514,#515,#516,#517));
#519=FACE_OUTER_BOUND('',#518,.T.);
#520=ADVANCED_FACE('',(#519),#513,.T.);
#521=CARTESIAN_POINT('',(12.000000,-3.752777,-6.500000));
#522=DIRECTION('',(0.000000000,-0.866025404,-0.500000000));
#523=DIRECTION('',(0.000000000,-0.500000000,0.866025404));
#524=AXIS2_PLACEMENT_3D('',#521,#522,#523);
#525=PLANE('',#524);
#526=CARTESIAN_POINT('',(12.000000,-3.752777,-6.500000));
#527=CARTESIAN_POINT('',(25.000000,-3.752777,-6.500000));
#528=CARTESIAN_POINT('',(25.000000,-7.505553,-0.000000));
#529=CARTESIAN_POINT('',(12.000000,-7.505553,-0.000000));
#530=POLY_LOOP('',(#526,#527,#528,#529));
#531=FACE_OUTER_BOUND('',#530,.T.);
#532=ADVANCED_FACE('',(#531),#525,.T.);
#533=CARTESIAN_POINT('',(12.000000,-7.505553,-0.000000));
#534=DIRECTION('',(0.000000000,-0.866025404,0.500000000));
#535=DIRECTION('',(0.000000000,0.500000000,0.866025404));
#536=AXIS2_PLACEMENT_3D('',#533,#534,#535);
#537=PLANE('',#536);
#538=CARTESIAN_POINT('',(12.000000,-7.505553,-0.000000));
#539=CARTESIAN_POINT('',(25.000000,-7.505553,-0.000000));
#540=CARTESIAN_POINT('',(25.000000,-3.752777,6.500000));
#541=CARTESIAN_POINT('',(12.000000,-3.752777,6.500000));
#542=POLY_LOOP('',(#538,#539,#540,#541));
#543=FACE_OUTER_BOUND('',#542,.T.);
#544=ADVANCED_FACE('',(#543),#537,.T.);
#545=CARTESIAN_POINT('',(12.000000,-3.752777,6.500000));
#546=DIRECTION('',(0.000000000,-0.000000000,1.000000000));
#547=DIRECTION('',(0.000000000,1.000000000,0.000000000));
#548=AXIS2_PLACEMENT_3D('',#545,#546,#547);
#549=PLANE('',#548);
#550=CARTESIAN_POINT('',(12.000000,-3.752777,6.500000));
#551=CARTESIAN_POINT('',(25.000000,-3.752777,6.500000));
#552=CARTESIAN_POINT('',(25.000000,3.752777,6.500000));
#553=CARTESIAN_POINT('',(12.000000,3.752777,6.500000));
#554=POLY_LOOP('',(#550,#551,#552,#553));
#555=FACE_OUTER_BOUND('',#554,.T.);
#556=ADVANCED_FACE('',(#555),#549,.T.);
#557=CLOSED_SHELL('',(#470,#484,#496,#508,#520,#532,#544,#556));
#558=MANIFOLD_SOLID_BREP('MK11-M8_ecrou',#557);
#559=(GEOMETRIC_REPRESENTATION_CONTEXT(3)GLOBAL_UNIT_ASSIGNED_CONTEXT((#UNITMM,#UNITRAD,#UNITSR))GLOBAL_UNCERTAINTY_ASSIGNED_CONTEXT((#UNCERT))REPRESENTATION_CONTEXT('',''));
#560=SHAPE_REPRESENTATION('MK11-M8',(#354,#456,#558),#559);
#561=PRODUCT('MK11-M8','MK11 · inox M8','corps 50×8×8 mm, écrou 13 mm sur plats, enveloppe 50×8×8 mm',(#PC));
#PDF=PRODUCT_DEFINITION_FORMATION('','',#561);
#PD=PRODUCT_DEFINITION('','',#PDF,#PDC);
#PDC=PRODUCT_DEFINITION_CONTEXT('',#PC2,'design');
#PDS=PRODUCT_DEFINITION_SHAPE('','',#PD);
#SDR=SHAPE_DEFINITION_REPRESENTATION(#PDS,#560);
ENDSEC;
END-ISO-10303-21;
