ISO-10303-21;
HEADER;
FILE_DESCRIPTION(('STEP d''encombrement · modèle simplifié | capteur MK17 | corps 8.5×2.1×2.1 mm, terminaisons 12.3 mm, enveloppe 12.3×2.1×2.1 mm | provenance : MK17.pdf, page 1 | Ce fichier n''est ni un fichier fabricant ni une CAO de fabrication : géométrie d''encombrement approximée (FACETED_BREP), générée par scripts/generate-step-envelopes.ts.'),'2;1');
FILE_NAME('step/MK17.step','2026-01-01T00:00:00',('Standex Sensor Studio'),('Standex Detect'),'generate-step-envelopes.ts','','');
FILE_SCHEMA(('AUTOMOTIVE_DESIGN { 1 0 10303 214 1 1 1 1 }'));
ENDSEC;
DATA;
#1=(NAMED_UNIT(*)LENGTH_UNIT()SI_UNIT(.MILLI.,.METRE.));
#2=(NAMED_UNIT(*)PLANE_ANGLE_UNIT()SI_UNIT($,.RADIAN.));
#3=(NAMED_UNIT(*)SOLID_ANGLE_UNIT()SI_UNIT($,.STERADIAN.));
#4=UNCERTAINTY_MEASURE_WITH_UNIT(LENGTH_MEASURE(1.0E-6),#1,'distance_accuracy_value','');
#5=APPLICATION_CONTEXT('encombrement capteur reed - modele simplifie');
#6=PRODUCT_CONTEXT('',#5,'mechanical');
#7=PRODUCT_DEFINITION_CONTEXT('',#5,'design');
#8=CARTESIAN_POINT('',(-6.150000,1.050000,-1.050000));
#9=DIRECTION('',(0.000000000,-1.000000000,0.000000000));
#10=DIRECTION('',(0.000000000,0.000000000,1.000000000));
#11=AXIS2_PLACEMENT_3D('',#8,#9,#10);
#12=PLANE('',#11);
#13=CARTESIAN_POINT('',(-6.150000,1.050000,-1.050000));
#14=CARTESIAN_POINT('',(6.150000,1.050000,-1.050000));
#15=CARTESIAN_POINT('',(6.150000,1.050000,1.050000));
#16=CARTESIAN_POINT('',(-6.150000,1.050000,1.050000));
#17=POLY_LOOP('',(#13,#14,#15,#16));
#18=FACE_OUTER_BOUND('',#17,.T.);
#19=ADVANCED_FACE('',(#18),#12,.T.);
#20=CARTESIAN_POINT('',(-6.150000,-1.050000,1.050000));
#21=DIRECTION('',(0.000000000,1.000000000,0.000000000));
#22=DIRECTION('',(0.000000000,0.000000000,-1.000000000));
#23=AXIS2_PLACEMENT_3D('',#20,#21,#22);
#24=PLANE('',#23);
#25=CARTESIAN_POINT('',(-6.150000,-1.050000,1.050000));
#26=CARTESIAN_POINT('',(6.150000,-1.050000,1.050000));
#27=CARTESIAN_POINT('',(6.150000,-1.050000,-1.050000));
#28=CARTESIAN_POINT('',(-6.150000,-1.050000,-1.050000));
#29=POLY_LOOP('',(#25,#26,#27,#28));
#30=FACE_OUTER_BOUND('',#29,.T.);
#31=ADVANCED_FACE('',(#30),#24,.T.);
#32=CARTESIAN_POINT('',(-6.150000,-1.050000,-1.050000));
#33=DIRECTION('',(1.000000000,0.000000000,0.000000000));
#34=DIRECTION('',(0.000000000,0.000000000,1.000000000));
#35=AXIS2_PLACEMENT_3D('',#32,#33,#34);
#36=PLANE('',#35);
#37=CARTESIAN_POINT('',(-6.150000,-1.050000,-1.050000));
#38=CARTESIAN_POINT('',(-6.150000,1.050000,-1.050000));
#39=CARTESIAN_POINT('',(-6.150000,1.050000,1.050000));
#40=CARTESIAN_POINT('',(-6.150000,-1.050000,1.050000));
#41=POLY_LOOP('',(#37,#38,#39,#40));
#42=FACE_OUTER_BOUND('',#41,.T.);
#43=ADVANCED_FACE('',(#42),#36,.T.);
#44=CARTESIAN_POINT('',(6.150000,-1.050000,1.050000));
#45=DIRECTION('',(-1.000000000,0.000000000,0.000000000));
#46=DIRECTION('',(0.000000000,0.000000000,-1.000000000));
#47=AXIS2_PLACEMENT_3D('',#44,#45,#46);
#48=PLANE('',#47);
#49=CARTESIAN_POINT('',(6.150000,-1.050000,1.050000));
#50=CARTESIAN_POINT('',(6.150000,1.050000,1.050000));
#51=CARTESIAN_POINT('',(6.150000,1.050000,-1.050000));
#52=CARTESIAN_POINT('',(6.150000,-1.050000,-1.050000));
#53=POLY_LOOP('',(#49,#50,#51,#52));
#54=FACE_OUTER_BOUND('',#53,.T.);
#55=ADVANCED_FACE('',(#54),#48,.T.);
#56=CARTESIAN_POINT('',(-6.150000,-1.050000,-1.050000));
#57=DIRECTION('',(0.000000000,0.000000000,1.000000000));
#58=DIRECTION('',(0.000000000,1.000000000,0.000000000));
#59=AXIS2_PLACEMENT_3D('',#56,#57,#58);
#60=PLANE('',#59);
#61=CARTESIAN_POINT('',(-6.150000,-1.050000,-1.050000));
#62=CARTESIAN_POINT('',(6.150000,-1.050000,-1.050000));
#63=CARTESIAN_POINT('',(6.150000,1.050000,-1.050000));
#64=CARTESIAN_POINT('',(-6.150000,1.050000,-1.050000));
#65=POLY_LOOP('',(#61,#62,#63,#64));
#66=FACE_OUTER_BOUND('',#65,.T.);
#67=ADVANCED_FACE('',(#66),#60,.T.);
#68=CARTESIAN_POINT('',(6.150000,-1.050000,1.050000));
#69=DIRECTION('',(0.000000000,0.000000000,-1.000000000));
#70=DIRECTION('',(0.000000000,-1.000000000,0.000000000));
#71=AXIS2_PLACEMENT_3D('',#68,#69,#70);
#72=PLANE('',#71);
#73=CARTESIAN_POINT('',(6.150000,-1.050000,1.050000));
#74=CARTESIAN_POINT('',(-6.150000,-1.050000,1.050000));
#75=CARTESIAN_POINT('',(-6.150000,1.050000,1.050000));
#76=CARTESIAN_POINT('',(6.150000,1.050000,1.050000));
#77=POLY_LOOP('',(#73,#74,#75,#76));
#78=FACE_OUTER_BOUND('',#77,.T.);
#79=ADVANCED_FACE('',(#78),#72,.T.);
#80=CLOSED_SHELL('',(#19,#31,#43,#55,#67,#79));
#81=MANIFOLD_SOLID_BREP('MK17_corps',#80);
#82=(GEOMETRIC_REPRESENTATION_CONTEXT(3)GLOBAL_UNIT_ASSIGNED_CONTEXT((#1,#2,#3))GLOBAL_UNCERTAINTY_ASSIGNED_CONTEXT((#4))REPRESENTATION_CONTEXT('',''));
#83=SHAPE_REPRESENTATION('MK17',(#81),#82);
#84=PRODUCT('MK17','MK17','corps 8.5×2.1×2.1 mm, terminaisons 12.3 mm, enveloppe 12.3×2.1×2.1 mm',(#6));
#85=PRODUCT_DEFINITION_FORMATION('','',#84);
#86=PRODUCT_DEFINITION('','',#85,#7);
#87=PRODUCT_DEFINITION_SHAPE('','',#86);
#88=SHAPE_DEFINITION_REPRESENTATION(#87,#83);
ENDSEC;
END-ISO-10303-21;
