ISO-10303-21;
HEADER;
FILE_DESCRIPTION(('STEP d''encombrement · modèle simplifié | capteur MK20_1 | corps 10×3×2.7 mm, enveloppe 10×3×2.7 mm | provenance : MK20_1.pdf, page 1 | Ce fichier n''est ni un fichier fabricant ni une CAO de fabrication : géométrie d''encombrement approximée (FACETED_BREP), générée par scripts/generate-step-envelopes.ts.'),'2;1');
FILE_NAME('step/MK20_1.step','2026-01-01T00:00:00',('Standex Sensor Studio'),('Standex Detect'),'generate-step-envelopes.ts','','');
FILE_SCHEMA(('AUTOMOTIVE_DESIGN { 1 0 10303 214 1 1 1 1 }'));
ENDSEC;
DATA;
#UNITMM=(NAMED_UNIT(*)LENGTH_UNIT()SI_UNIT(.MILLI.,.METRE.));
#UNITRAD=(NAMED_UNIT(*)PLANE_ANGLE_UNIT()SI_UNIT($,.RADIAN.));
#UNITSR=(NAMED_UNIT(*)SOLID_ANGLE_UNIT()SI_UNIT($,.STERADIAN.));
#UNCERT=UNCERTAINTY_MEASURE_WITH_UNIT(LENGTH_MEASURE(1.0E-6),#UNITMM,'','');
#PC=PRODUCT_CONTEXT('',#PC2,'mechanical');
#PC2=APPLICATION_CONTEXT('encombrement capteur reed - modele simplifie');
#1=CARTESIAN_POINT('',(-5.000000,1.448889,-0.349406));
#2=DIRECTION('',(-1.000000000,0.000000000,0.000000000));
#3=DIRECTION('',(0.000000000,0.000000000,-1.000000000));
#4=AXIS2_PLACEMENT_3D('',#1,#2,#3);
#5=PLANE('',#4);
#6=CARTESIAN_POINT('',(-5.000000,1.448889,-0.349406));
#7=CARTESIAN_POINT('',(-5.000000,1.299038,-0.675000));
#8=CARTESIAN_POINT('',(-5.000000,1.060660,-0.954594));
#9=CARTESIAN_POINT('',(-5.000000,0.750000,-1.169134));
#10=CARTESIAN_POINT('',(-5.000000,0.388229,-1.304000));
#11=CARTESIAN_POINT('',(-5.000000,-0.000000,-1.350000));
#12=CARTESIAN_POINT('',(-5.000000,-0.388229,-1.304000));
#13=CARTESIAN_POINT('',(-5.000000,-0.750000,-1.169134));
#14=CARTESIAN_POINT('',(-5.000000,-1.060660,-0.954594));
#15=CARTESIAN_POINT('',(-5.000000,-1.299038,-0.675000));
#16=CARTESIAN_POINT('',(-5.000000,-1.448889,-0.349406));
#17=CARTESIAN_POINT('',(-5.000000,-1.500000,0.000000));
#18=CARTESIAN_POINT('',(-5.000000,-1.448889,0.349406));
#19=CARTESIAN_POINT('',(-5.000000,-1.299038,0.675000));
#20=CARTESIAN_POINT('',(-5.000000,-1.060660,0.954594));
#21=CARTESIAN_POINT('',(-5.000000,-0.750000,1.169134));
#22=CARTESIAN_POINT('',(-5.000000,-0.388229,1.304000));
#23=CARTESIAN_POINT('',(-5.000000,0.000000,1.350000));
#24=CARTESIAN_POINT('',(-5.000000,0.388229,1.304000));
#25=CARTESIAN_POINT('',(-5.000000,0.750000,1.169134));
#26=CARTESIAN_POINT('',(-5.000000,1.060660,0.954594));
#27=CARTESIAN_POINT('',(-5.000000,1.299038,0.675000));
#28=CARTESIAN_POINT('',(-5.000000,1.448889,0.349406));
#29=CARTESIAN_POINT('',(-5.000000,1.500000,0.000000));
#30=POLY_LOOP('',(#6,#7,#8,#9,#10,#11,#12,#13,#14,#15,#16,#17,#18,#19,#20,#21,#22,#23,#24,#25,#26,#27,#28,#29));
#31=FACE_OUTER_BOUND('',#30,.T.);
#32=ADVANCED_FACE('',(#31),#5,.T.);
#33=CARTESIAN_POINT('',(5.000000,1.500000,0.000000));
#34=DIRECTION('',(1.000000000,0.000000000,0.000000000));
#35=DIRECTION('',(0.000000000,0.000000000,1.000000000));
#36=AXIS2_PLACEMENT_3D('',#33,#34,#35);
#37=PLANE('',#36);
#38=CARTESIAN_POINT('',(5.000000,1.500000,0.000000));
#39=CARTESIAN_POINT('',(5.000000,1.448889,0.349406));
#40=CARTESIAN_POINT('',(5.000000,1.299038,0.675000));
#41=CARTESIAN_POINT('',(5.000000,1.060660,0.954594));
#42=CARTESIAN_POINT('',(5.000000,0.750000,1.169134));
#43=CARTESIAN_POINT('',(5.000000,0.388229,1.304000));
#44=CARTESIAN_POINT('',(5.000000,0.000000,1.350000));
#45=CARTESIAN_POINT('',(5.000000,-0.388229,1.304000));
#46=CARTESIAN_POINT('',(5.000000,-0.750000,1.169134));
#47=CARTESIAN_POINT('',(5.000000,-1.060660,0.954594));
#48=CARTESIAN_POINT('',(5.000000,-1.299038,0.675000));
#49=CARTESIAN_POINT('',(5.000000,-1.448889,0.349406));
#50=CARTESIAN_POINT('',(5.000000,-1.500000,0.000000));
#51=CARTESIAN_POINT('',(5.000000,-1.448889,-0.349406));
#52=CARTESIAN_POINT('',(5.000000,-1.299038,-0.675000));
#53=CARTESIAN_POINT('',(5.000000,-1.060660,-0.954594));
#54=CARTESIAN_POINT('',(5.000000,-0.750000,-1.169134));
#55=CARTESIAN_POINT('',(5.000000,-0.388229,-1.304000));
#56=CARTESIAN_POINT('',(5.000000,-0.000000,-1.350000));
#57=CARTESIAN_POINT('',(5.000000,0.388229,-1.304000));
#58=CARTESIAN_POINT('',(5.000000,0.750000,-1.169134));
#59=CARTESIAN_POINT('',(5.000000,1.060660,-0.954594));
#60=CARTESIAN_POINT('',(5.000000,1.299038,-0.675000));
#61=CARTESIAN_POINT('',(5.000000,1.448889,-0.349406));
#62=POLY_LOOP('',(#38,#39,#40,#41,#42,#43,#44,#45,#46,#47,#48,#49,#50,#51,#52,#53,#54,#55,#56,#57,#58,#59,#60,#61));
#63=FACE_OUTER_BOUND('',#62,.T.);
#64=ADVANCED_FACE('',(#63),#37,.T.);
#65=CARTESIAN_POINT('',(-5.000000,1.500000,0.000000));
#66=DIRECTION('',(0.000000000,-0.989469697,-0.144740174));
#67=DIRECTION('',(0.000000000,-0.144740174,0.989469697));
#68=AXIS2_PLACEMENT_3D('',#65,#66,#67);
#69=PLANE('',#68);
#70=CARTESIAN_POINT('',(-5.000000,1.500000,0.000000));
#71=CARTESIAN_POINT('',(5.000000,1.500000,0.000000));
#72=CARTESIAN_POINT('',(5.000000,1.448889,0.349406));
#73=CARTESIAN_POINT('',(-5.000000,1.448889,0.349406));
#74=POLY_LOOP('',(#70,#71,#72,#73));
#75=FACE_OUTER_BOUND('',#74,.T.);
#76=ADVANCED_FACE('',(#75),#69,.T.);
#77=CARTESIAN_POINT('',(-5.000000,1.448889,0.349406));
#78=DIRECTION('',(0.000000000,-0.908408596,-0.418083512));
#79=DIRECTION('',(0.000000000,-0.418083512,0.908408596));
#80=AXIS2_PLACEMENT_3D('',#77,#78,#79);
#81=PLANE('',#80);
#82=CARTESIAN_POINT('',(-5.000000,1.448889,0.349406));
#83=CARTESIAN_POINT('',(5.000000,1.448889,0.349406));
#84=CARTESIAN_POINT('',(5.000000,1.299038,0.675000));
#85=CARTESIAN_POINT('',(-5.000000,1.299038,0.675000));
#86=POLY_LOOP('',(#82,#83,#84,#85));
#87=FACE_OUTER_BOUND('',#86,.T.);
#88=ADVANCED_FACE('',(#87),#81,.T.);
#89=CARTESIAN_POINT('',(-5.000000,1.299038,0.675000));
#90=DIRECTION('',(0.000000000,-0.760967555,-0.648789935));
#91=DIRECTION('',(0.000000000,-0.648789935,0.760967555));
#92=AXIS2_PLACEMENT_3D('',#89,#90,#91);
#93=PLANE('',#92);
#94=CARTESIAN_POINT('',(-5.000000,1.299038,0.675000));
#95=CARTESIAN_POINT('',(5.000000,1.299038,0.675000));
#96=CARTESIAN_POINT('',(5.000000,1.060660,0.954594));
#97=CARTESIAN_POINT('',(-5.000000,1.060660,0.954594));
#98=POLY_LOOP('',(#94,#95,#96,#97));
#99=FACE_OUTER_BOUND('',#98,.T.);
#100=ADVANCED_FACE('',(#99),#93,.T.);
#101=CARTESIAN_POINT('',(-5.000000,1.060660,0.954594));
#102=DIRECTION('',(0.000000000,-0.568256520,-0.822851461));
#103=DIRECTION('',(0.000000000,-0.822851461,0.568256520));
#104=AXIS2_PLACEMENT_3D('',#101,#102,#103);
#105=PLANE('',#104);
#106=CARTESIAN_POINT('',(-5.000000,1.060660,0.954594));
#107=CARTESIAN_POINT('',(5.000000,1.060660,0.954594));
#108=CARTESIAN_POINT('',(5.000000,0.750000,1.169134));
#109=CARTESIAN_POINT('',(-5.000000,0.750000,1.169134));
#110=POLY_LOOP('',(#106,#107,#108,#109));
#111=FACE_OUTER_BOUND('',#110,.T.);
#112=ADVANCED_FACE('',(#111),#105,.T.);
#113=CARTESIAN_POINT('',(-5.000000,0.750000,1.169134));
#114=DIRECTION('',(0.000000000,-0.349309111,-0.937007548));
#115=DIRECTION('',(0.000000000,-0.937007548,0.349309111));
#116=AXIS2_PLACEMENT_3D('',#113,#114,#115);
#117=PLANE('',#116);
#118=CARTESIAN_POINT('',(-5.000000,0.750000,1.169134));
#119=CARTESIAN_POINT('',(5.000000,0.750000,1.169134));
#120=CARTESIAN_POINT('',(5.000000,0.388229,1.304000));
#121=CARTESIAN_POINT('',(-5.000000,0.388229,1.304000));
#122=POLY_LOOP('',(#118,#119,#120,#121));
#123=FACE_OUTER_BOUND('',#122,.T.);
#124=ADVANCED_FACE('',(#123),#117,.T.);
#125=CARTESIAN_POINT('',(-5.000000,0.388229,1.304000));
#126=DIRECTION('',(0.000000000,-0.117664170,-0.993053444));
#127=DIRECTION('',(0.000000000,-0.993053444,0.117664170));
#128=AXIS2_PLACEMENT_3D('',#125,#126,#127);
#129=PLANE('',#128);
#130=CARTESIAN_POINT('',(-5.000000,0.388229,1.304000));
#131=CARTESIAN_POINT('',(5.000000,0.388229,1.304000));
#132=CARTESIAN_POINT('',(5.000000,0.000000,1.350000));
#133=CARTESIAN_POINT('',(-5.000000,0.000000,1.350000));
#134=POLY_LOOP('',(#130,#131,#132,#133));
#135=FACE_OUTER_BOUND('',#134,.T.);
#136=ADVANCED_FACE('',(#135),#129,.T.);
#137=CARTESIAN_POINT('',(-5.000000,0.000000,1.350000));
#138=DIRECTION('',(0.000000000,0.117664170,-0.993053444));
#139=DIRECTION('',(0.000000000,-0.993053444,-0.117664170));
#140=AXIS2_PLACEMENT_3D('',#137,#138,#139);
#141=PLANE('',#140);
#142=CARTESIAN_POINT('',(-5.000000,0.000000,1.350000));
#143=CARTESIAN_POINT('',(5.000000,0.000000,1.350000));
#144=CARTESIAN_POINT('',(5.000000,-0.388229,1.304000));
#145=CARTESIAN_POINT('',(-5.000000,-0.388229,1.304000));
#146=POLY_LOOP('',(#142,#143,#144,#145));
#147=FACE_OUTER_BOUND('',#146,.T.);
#148=ADVANCED_FACE('',(#147),#141,.T.);
#149=CARTESIAN_POINT('',(-5.000000,-0.388229,1.304000));
#150=DIRECTION('',(0.000000000,0.349309111,-0.937007548));
#151=DIRECTION('',(0.000000000,-0.937007548,-0.349309111));
#152=AXIS2_PLACEMENT_3D('',#149,#150,#151);
#153=PLANE('',#152);
#154=CARTESIAN_POINT('',(-5.000000,-0.388229,1.304000));
#155=CARTESIAN_POINT('',(5.000000,-0.388229,1.304000));
#156=CARTESIAN_POINT('',(5.000000,-0.750000,1.169134));
#157=CARTESIAN_POINT('',(-5.000000,-0.750000,1.169134));
#158=POLY_LOOP('',(#154,#155,#156,#157));
#159=FACE_OUTER_BOUND('',#158,.T.);
#160=ADVANCED_FACE('',(#159),#153,.T.);
#161=CARTESIAN_POINT('',(-5.000000,-0.750000,1.169134));
#162=DIRECTION('',(0.000000000,0.568256520,-0.822851461));
#163=DIRECTION('',(0.000000000,-0.822851461,-0.568256520));
#164=AXIS2_PLACEMENT_3D('',#161,#162,#163);
#165=PLANE('',#164);
#166=CARTESIAN_POINT('',(-5.000000,-0.750000,1.169134));
#167=CARTESIAN_POINT('',(5.000000,-0.750000,1.169134));
#168=CARTESIAN_POINT('',(5.000000,-1.060660,0.954594));
#169=CARTESIAN_POINT('',(-5.000000,-1.060660,0.954594));
#170=POLY_LOOP('',(#166,#167,#168,#169));
#171=FACE_OUTER_BOUND('',#170,.T.);
#172=ADVANCED_FACE('',(#171),#165,.T.);
#173=CARTESIAN_POINT('',(-5.000000,-1.060660,0.954594));
#174=DIRECTION('',(0.000000000,0.760967555,-0.648789935));
#175=DIRECTION('',(0.000000000,-0.648789935,-0.760967555));
#176=AXIS2_PLACEMENT_3D('',#173,#174,#175);
#177=PLANE('',#176);
#178=CARTESIAN_POINT('',(-5.000000,-1.060660,0.954594));
#179=CARTESIAN_POINT('',(5.000000,-1.060660,0.954594));
#180=CARTESIAN_POINT('',(5.000000,-1.299038,0.675000));
#181=CARTESIAN_POINT('',(-5.000000,-1.299038,0.675000));
#182=POLY_LOOP('',(#178,#179,#180,#181));
#183=FACE_OUTER_BOUND('',#182,.T.);
#184=ADVANCED_FACE('',(#183),#177,.T.);
#185=CARTESIAN_POINT('',(-5.000000,-1.299038,0.675000));
#186=DIRECTION('',(0.000000000,0.908408596,-0.418083512));
#187=DIRECTION('',(0.000000000,-0.418083512,-0.908408596));
#188=AXIS2_PLACEMENT_3D('',#185,#186,#187);
#189=PLANE('',#188);
#190=CARTESIAN_POINT('',(-5.000000,-1.299038,0.675000));
#191=CARTESIAN_POINT('',(5.000000,-1.299038,0.675000));
#192=CARTESIAN_POINT('',(5.000000,-1.448889,0.349406));
#193=CARTESIAN_POINT('',(-5.000000,-1.448889,0.349406));
#194=POLY_LOOP('',(#190,#191,#192,#193));
#195=FACE_OUTER_BOUND('',#194,.T.);
#196=ADVANCED_FACE('',(#195),#189,.T.);
#197=CARTESIAN_POINT('',(-5.000000,-1.448889,0.349406));
#198=DIRECTION('',(0.000000000,0.989469697,-0.144740174));
#199=DIRECTION('',(0.000000000,-0.144740174,-0.989469697));
#200=AXIS2_PLACEMENT_3D('',#197,#198,#199);
#201=PLANE('',#200);
#202=CARTESIAN_POINT('',(-5.000000,-1.448889,0.349406));
#203=CARTESIAN_POINT('',(5.000000,-1.448889,0.349406));
#204=CARTESIAN_POINT('',(5.000000,-1.500000,0.000000));
#205=CARTESIAN_POINT('',(-5.000000,-1.500000,0.000000));
#206=POLY_LOOP('',(#202,#203,#204,#205));
#207=FACE_OUTER_BOUND('',#206,.T.);
#208=ADVANCED_FACE('',(#207),#201,.T.);
#209=CARTESIAN_POINT('',(-5.000000,-1.500000,0.000000));
#210=DIRECTION('',(0.000000000,0.989469697,0.144740174));
#211=DIRECTION('',(0.000000000,0.144740174,-0.989469697));
#212=AXIS2_PLACEMENT_3D('',#209,#210,#211);
#213=PLANE('',#212);
#214=CARTESIAN_POINT('',(-5.000000,-1.500000,0.000000));
#215=CARTESIAN_POINT('',(5.000000,-1.500000,0.000000));
#216=CARTESIAN_POINT('',(5.000000,-1.448889,-0.349406));
#217=CARTESIAN_POINT('',(-5.000000,-1.448889,-0.349406));
#218=POLY_LOOP('',(#214,#215,#216,#217));
#219=FACE_OUTER_BOUND('',#218,.T.);
#220=ADVANCED_FACE('',(#219),#213,.T.);
#221=CARTESIAN_POINT('',(-5.000000,-1.448889,-0.349406));
#222=DIRECTION('',(0.000000000,0.908408596,0.418083512));
#223=DIRECTION('',(0.000000000,0.418083512,-0.908408596));
#224=AXIS2_PLACEMENT_3D('',#221,#222,#223);
#225=PLANE('',#224);
#226=CARTESIAN_POINT('',(-5.000000,-1.448889,-0.349406));
#227=CARTESIAN_POINT('',(5.000000,-1.448889,-0.349406));
#228=CARTESIAN_POINT('',(5.000000,-1.299038,-0.675000));
#229=CARTESIAN_POINT('',(-5.000000,-1.299038,-0.675000));
#230=POLY_LOOP('',(#226,#227,#228,#229));
#231=FACE_OUTER_BOUND('',#230,.T.);
#232=ADVANCED_FACE('',(#231),#225,.T.);
#233=CARTESIAN_POINT('',(-5.000000,-1.299038,-0.675000));
#234=DIRECTION('',(0.000000000,0.760967555,0.648789935));
#235=DIRECTION('',(0.000000000,0.648789935,-0.760967555));
#236=AXIS2_PLACEMENT_3D('',#233,#234,#235);
#237=PLANE('',#236);
#238=CARTESIAN_POINT('',(-5.000000,-1.299038,-0.675000));
#239=CARTESIAN_POINT('',(5.000000,-1.299038,-0.675000));
#240=CARTESIAN_POINT('',(5.000000,-1.060660,-0.954594));
#241=CARTESIAN_POINT('',(-5.000000,-1.060660,-0.954594));
#242=POLY_LOOP('',(#238,#239,#240,#241));
#243=FACE_OUTER_BOUND('',#242,.T.);
#244=ADVANCED_FACE('',(#243),#237,.T.);
#245=CARTESIAN_POINT('',(-5.000000,-1.060660,-0.954594));
#246=DIRECTION('',(0.000000000,0.568256520,0.822851461));
#247=DIRECTION('',(0.000000000,0.822851461,-0.568256520));
#248=AXIS2_PLACEMENT_3D('',#245,#246,#247);
#249=PLANE('',#248);
#250=CARTESIAN_POINT('',(-5.000000,-1.060660,-0.954594));
#251=CARTESIAN_POINT('',(5.000000,-1.060660,-0.954594));
#252=CARTESIAN_POINT('',(5.000000,-0.750000,-1.169134));
#253=CARTESIAN_POINT('',(-5.000000,-0.750000,-1.169134));
#254=POLY_LOOP('',(#250,#251,#252,#253));
#255=FACE_OUTER_BOUND('',#254,.T.);
#256=ADVANCED_FACE('',(#255),#249,.T.);
#257=CARTESIAN_POINT('',(-5.000000,-0.750000,-1.169134));
#258=DIRECTION('',(0.000000000,0.349309111,0.937007548));
#259=DIRECTION('',(0.000000000,0.937007548,-0.349309111));
#260=AXIS2_PLACEMENT_3D('',#257,#258,#259);
#261=PLANE('',#260);
#262=CARTESIAN_POINT('',(-5.000000,-0.750000,-1.169134));
#263=CARTESIAN_POINT('',(5.000000,-0.750000,-1.169134));
#264=CARTESIAN_POINT('',(5.000000,-0.388229,-1.304000));
#265=CARTESIAN_POINT('',(-5.000000,-0.388229,-1.304000));
#266=POLY_LOOP('',(#262,#263,#264,#265));
#267=FACE_OUTER_BOUND('',#266,.T.);
#268=ADVANCED_FACE('',(#267),#261,.T.);
#269=CARTESIAN_POINT('',(-5.000000,-0.388229,-1.304000));
#270=DIRECTION('',(0.000000000,0.117664170,0.993053444));
#271=DIRECTION('',(0.000000000,0.993053444,-0.117664170));
#272=AXIS2_PLACEMENT_3D('',#269,#270,#271);
#273=PLANE('',#272);
#274=CARTESIAN_POINT('',(-5.000000,-0.388229,-1.304000));
#275=CARTESIAN_POINT('',(5.000000,-0.388229,-1.304000));
#276=CARTESIAN_POINT('',(5.000000,-0.000000,-1.350000));
#277=CARTESIAN_POINT('',(-5.000000,-0.000000,-1.350000));
#278=POLY_LOOP('',(#274,#275,#276,#277));
#279=FACE_OUTER_BOUND('',#278,.T.);
#280=ADVANCED_FACE('',(#279),#273,.T.);
#281=CARTESIAN_POINT('',(-5.000000,-0.000000,-1.350000));
#282=DIRECTION('',(0.000000000,-0.117664170,0.993053444));
#283=DIRECTION('',(0.000000000,0.993053444,0.117664170));
#284=AXIS2_PLACEMENT_3D('',#281,#282,#283);
#285=PLANE('',#284);
#286=CARTESIAN_POINT('',(-5.000000,-0.000000,-1.350000));
#287=CARTESIAN_POINT('',(5.000000,-0.000000,-1.350000));
#288=CARTESIAN_POINT('',(5.000000,0.388229,-1.304000));
#289=CARTESIAN_POINT('',(-5.000000,0.388229,-1.304000));
#290=POLY_LOOP('',(#286,#287,#288,#289));
#291=FACE_OUTER_BOUND('',#290,.T.);
#292=ADVANCED_FACE('',(#291),#285,.T.);
#293=CARTESIAN_POINT('',(-5.000000,0.388229,-1.304000));
#294=DIRECTION('',(0.000000000,-0.349309111,0.937007548));
#295=DIRECTION('',(0.000000000,0.937007548,0.349309111));
#296=AXIS2_PLACEMENT_3D('',#293,#294,#295);
#297=PLANE('',#296);
#298=CARTESIAN_POINT('',(-5.000000,0.388229,-1.304000));
#299=CARTESIAN_POINT('',(5.000000,0.388229,-1.304000));
#300=CARTESIAN_POINT('',(5.000000,0.750000,-1.169134));
#301=CARTESIAN_POINT('',(-5.000000,0.750000,-1.169134));
#302=POLY_LOOP('',(#298,#299,#300,#301));
#303=FACE_OUTER_BOUND('',#302,.T.);
#304=ADVANCED_FACE('',(#303),#297,.T.);
#305=CARTESIAN_POINT('',(-5.000000,0.750000,-1.169134));
#306=DIRECTION('',(0.000000000,-0.568256520,0.822851461));
#307=DIRECTION('',(0.000000000,0.822851461,0.568256520));
#308=AXIS2_PLACEMENT_3D('',#305,#306,#307);
#309=PLANE('',#308);
#310=CARTESIAN_POINT('',(-5.000000,0.750000,-1.169134));
#311=CARTESIAN_POINT('',(5.000000,0.750000,-1.169134));
#312=CARTESIAN_POINT('',(5.000000,1.060660,-0.954594));
#313=CARTESIAN_POINT('',(-5.000000,1.060660,-0.954594));
#314=POLY_LOOP('',(#310,#311,#312,#313));
#315=FACE_OUTER_BOUND('',#314,.T.);
#316=ADVANCED_FACE('',(#315),#309,.T.);
#317=CARTESIAN_POINT('',(-5.000000,1.060660,-0.954594));
#318=DIRECTION('',(0.000000000,-0.760967555,0.648789935));
#319=DIRECTION('',(0.000000000,0.648789935,0.760967555));
#320=AXIS2_PLACEMENT_3D('',#317,#318,#319);
#321=PLANE('',#320);
#322=CARTESIAN_POINT('',(-5.000000,1.060660,-0.954594));
#323=CARTESIAN_POINT('',(5.000000,1.060660,-0.954594));
#324=CARTESIAN_POINT('',(5.000000,1.299038,-0.675000));
#325=CARTESIAN_POINT('',(-5.000000,1.299038,-0.675000));
#326=POLY_LOOP('',(#322,#323,#324,#325));
#327=FACE_OUTER_BOUND('',#326,.T.);
#328=ADVANCED_FACE('',(#327),#321,.T.);
#329=CARTESIAN_POINT('',(-5.000000,1.299038,-0.675000));
#330=DIRECTION('',(0.000000000,-0.908408596,0.418083512));
#331=DIRECTION('',(0.000000000,0.418083512,0.908408596));
#332=AXIS2_PLACEMENT_3D('',#329,#330,#331);
#333=PLANE('',#332);
#334=CARTESIAN_POINT('',(-5.000000,1.299038,-0.675000));
#335=CARTESIAN_POINT('',(5.000000,1.299038,-0.675000));
#336=CARTESIAN_POINT('',(5.000000,1.448889,-0.349406));
#337=CARTESIAN_POINT('',(-5.000000,1.448889,-0.349406));
#338=POLY_LOOP('',(#334,#335,#336,#337));
#339=FACE_OUTER_BOUND('',#338,.T.);
#340=ADVANCED_FACE('',(#339),#333,.T.);
#341=CARTESIAN_POINT('',(-5.000000,1.448889,-0.349406));
#342=DIRECTION('',(0.000000000,-0.989469697,0.144740174));
#343=DIRECTION('',(0.000000000,0.144740174,0.989469697));
#344=AXIS2_PLACEMENT_3D('',#341,#342,#343);
#345=PLANE('',#344);
#346=CARTESIAN_POINT('',(-5.000000,1.448889,-0.349406));
#347=CARTESIAN_POINT('',(5.000000,1.448889,-0.349406));
#348=CARTESIAN_POINT('',(5.000000,1.500000,0.000000));
#349=CARTESIAN_POINT('',(-5.000000,1.500000,0.000000));
#350=POLY_LOOP('',(#346,#347,#348,#349));
#351=FACE_OUTER_BOUND('',#350,.T.);
#352=ADVANCED_FACE('',(#351),#345,.T.);
#353=CLOSED_SHELL('',(#32,#64,#76,#88,#100,#112,#124,#136,#148,#160,#172,#184,#196,#208,#220,#232,#244,#256,#268,#280,#292,#304,#316,#328,#340,#352));
#354=MANIFOLD_SOLID_BREP('MK20_1_corps',#353);
#355=(GEOMETRIC_REPRESENTATION_CONTEXT(3)GLOBAL_UNIT_ASSIGNED_CONTEXT((#UNITMM,#UNITRAD,#UNITSR))GLOBAL_UNCERTAINTY_ASSIGNED_CONTEXT((#UNCERT))REPRESENTATION_CONTEXT('',''));
#356=SHAPE_REPRESENTATION('MK20_1',(#354),#355);
#357=PRODUCT('MK20_1','MK20/1','corps 10×3×2.7 mm, enveloppe 10×3×2.7 mm',(#PC));
#PDF=PRODUCT_DEFINITION_FORMATION('','',#357);
#PD=PRODUCT_DEFINITION('','',#PDF,#PDC);
#PDC=PRODUCT_DEFINITION_CONTEXT('',#PC2,'design');
#PDS=PRODUCT_DEFINITION_SHAPE('','',#PD);
#SDR=SHAPE_DEFINITION_REPRESENTATION(#PDS,#356);
ENDSEC;
END-ISO-10303-21;
