ISO-10303-21;
HEADER;
FILE_DESCRIPTION(('STEP d''encombrement · modèle simplifié | capteur MK20_2 | corps 7.5×2.7×2.5 mm, enveloppe 7.5×2.7×2.5 mm | provenance : MK20_2.pdf, page 1 | Ce fichier n''est ni un fichier fabricant ni une CAO de fabrication : géométrie d''encombrement approximée (FACETED_BREP), générée par scripts/generate-step-envelopes.ts.'),'2;1');
FILE_NAME('step/MK20_2.step','2026-01-01T00:00:00',('Standex Sensor Studio'),('Standex Detect'),'generate-step-envelopes.ts','','');
FILE_SCHEMA(('AUTOMOTIVE_DESIGN { 1 0 10303 214 1 1 1 1 }'));
ENDSEC;
DATA;
#1=(NAMED_UNIT(*)LENGTH_UNIT()SI_UNIT(.MILLI.,.METRE.));
#2=(NAMED_UNIT(*)PLANE_ANGLE_UNIT()SI_UNIT($,.RADIAN.));
#3=(NAMED_UNIT(*)SOLID_ANGLE_UNIT()SI_UNIT($,.STERADIAN.));
#4=UNCERTAINTY_MEASURE_WITH_UNIT(LENGTH_MEASURE(1.0E-6),#1,'distance_accuracy_value','');
#5=APPLICATION_CONTEXT('encombrement capteur reed - modele simplifie');
#6=PRODUCT_CONTEXT('',#5,'mechanical');
#7=PRODUCT_DEFINITION_CONTEXT('',#5,'design');
#8=CARTESIAN_POINT('',(-3.750000,1.304000,-0.323524));
#9=DIRECTION('',(-1.000000000,0.000000000,0.000000000));
#10=DIRECTION('',(0.000000000,0.000000000,-1.000000000));
#11=AXIS2_PLACEMENT_3D('',#8,#9,#10);
#12=PLANE('',#11);
#13=CARTESIAN_POINT('',(-3.750000,1.169134,-0.625000));
#14=CARTESIAN_POINT('',(-3.750000,0.954594,-0.883883));
#15=CARTESIAN_POINT('',(-3.750000,0.675000,-1.082532));
#16=CARTESIAN_POINT('',(-3.750000,0.349406,-1.207407));
#17=CARTESIAN_POINT('',(-3.750000,-0.000000,-1.250000));
#18=CARTESIAN_POINT('',(-3.750000,-0.349406,-1.207407));
#19=CARTESIAN_POINT('',(-3.750000,-0.675000,-1.082532));
#20=CARTESIAN_POINT('',(-3.750000,-0.954594,-0.883883));
#21=CARTESIAN_POINT('',(-3.750000,-1.169134,-0.625000));
#22=CARTESIAN_POINT('',(-3.750000,-1.304000,-0.323524));
#23=CARTESIAN_POINT('',(-3.750000,-1.350000,0.000000));
#24=CARTESIAN_POINT('',(-3.750000,-1.304000,0.323524));
#25=CARTESIAN_POINT('',(-3.750000,-1.169134,0.625000));
#26=CARTESIAN_POINT('',(-3.750000,-0.954594,0.883883));
#27=CARTESIAN_POINT('',(-3.750000,-0.675000,1.082532));
#28=CARTESIAN_POINT('',(-3.750000,-0.349406,1.207407));
#29=CARTESIAN_POINT('',(-3.750000,0.000000,1.250000));
#30=CARTESIAN_POINT('',(-3.750000,0.349406,1.207407));
#31=CARTESIAN_POINT('',(-3.750000,0.675000,1.082532));
#32=CARTESIAN_POINT('',(-3.750000,0.954594,0.883883));
#33=CARTESIAN_POINT('',(-3.750000,1.169134,0.625000));
#34=CARTESIAN_POINT('',(-3.750000,1.304000,0.323524));
#35=CARTESIAN_POINT('',(-3.750000,1.350000,0.000000));
#36=POLY_LOOP('',(#8,#13,#14,#15,#16,#17,#18,#19,#20,#21,#22,#23,#24,#25,#26,#27,#28,#29,#30,#31,#32,#33,#34,#35));
#37=FACE_OUTER_BOUND('',#36,.T.);
#38=FACE_SURFACE('',(#37),#12,.T.);
#39=CARTESIAN_POINT('',(3.750000,1.350000,0.000000));
#40=DIRECTION('',(1.000000000,0.000000000,0.000000000));
#41=DIRECTION('',(0.000000000,0.000000000,1.000000000));
#42=AXIS2_PLACEMENT_3D('',#39,#40,#41);
#43=PLANE('',#42);
#44=CARTESIAN_POINT('',(3.750000,1.304000,0.323524));
#45=CARTESIAN_POINT('',(3.750000,1.169134,0.625000));
#46=CARTESIAN_POINT('',(3.750000,0.954594,0.883883));
#47=CARTESIAN_POINT('',(3.750000,0.675000,1.082532));
#48=CARTESIAN_POINT('',(3.750000,0.349406,1.207407));
#49=CARTESIAN_POINT('',(3.750000,0.000000,1.250000));
#50=CARTESIAN_POINT('',(3.750000,-0.349406,1.207407));
#51=CARTESIAN_POINT('',(3.750000,-0.675000,1.082532));
#52=CARTESIAN_POINT('',(3.750000,-0.954594,0.883883));
#53=CARTESIAN_POINT('',(3.750000,-1.169134,0.625000));
#54=CARTESIAN_POINT('',(3.750000,-1.304000,0.323524));
#55=CARTESIAN_POINT('',(3.750000,-1.350000,0.000000));
#56=CARTESIAN_POINT('',(3.750000,-1.304000,-0.323524));
#57=CARTESIAN_POINT('',(3.750000,-1.169134,-0.625000));
#58=CARTESIAN_POINT('',(3.750000,-0.954594,-0.883883));
#59=CARTESIAN_POINT('',(3.750000,-0.675000,-1.082532));
#60=CARTESIAN_POINT('',(3.750000,-0.349406,-1.207407));
#61=CARTESIAN_POINT('',(3.750000,-0.000000,-1.250000));
#62=CARTESIAN_POINT('',(3.750000,0.349406,-1.207407));
#63=CARTESIAN_POINT('',(3.750000,0.675000,-1.082532));
#64=CARTESIAN_POINT('',(3.750000,0.954594,-0.883883));
#65=CARTESIAN_POINT('',(3.750000,1.169134,-0.625000));
#66=CARTESIAN_POINT('',(3.750000,1.304000,-0.323524));
#67=POLY_LOOP('',(#39,#44,#45,#46,#47,#48,#49,#50,#51,#52,#53,#54,#55,#56,#57,#58,#59,#60,#61,#62,#63,#64,#65,#66));
#68=FACE_OUTER_BOUND('',#67,.T.);
#69=FACE_SURFACE('',(#68),#43,.T.);
#70=DIRECTION('',(0.000000000,0.990042484,0.140768891));
#71=DIRECTION('',(0.000000000,0.140768891,-0.990042484));
#72=AXIS2_PLACEMENT_3D('',#35,#70,#71);
#73=PLANE('',#72);
#74=POLY_LOOP('',(#35,#34,#44,#39));
#75=FACE_OUTER_BOUND('',#74,.T.);
#76=FACE_SURFACE('',(#75),#73,.T.);
#77=DIRECTION('',(0.000000000,0.912824300,0.408352541));
#78=DIRECTION('',(0.000000000,0.408352541,-0.912824300));
#79=AXIS2_PLACEMENT_3D('',#34,#77,#78);
#80=PLANE('',#79);
#81=POLY_LOOP('',(#34,#33,#45,#44));
#82=FACE_OUTER_BOUND('',#81,.T.);
#83=FACE_SURFACE('',(#82),#80,.T.);
#84=DIRECTION('',(0.000000000,0.769967950,0.638082563));
#85=DIRECTION('',(0.000000000,0.638082563,-0.769967950));
#86=AXIS2_PLACEMENT_3D('',#33,#84,#85);
#87=PLANE('',#86);
#88=POLY_LOOP('',(#33,#32,#46,#45));
#89=FACE_OUTER_BOUND('',#88,.T.);
#90=FACE_SURFACE('',(#89),#87,.T.);
#91=DIRECTION('',(0.000000000,0.579186350,0.815195174));
#92=DIRECTION('',(0.000000000,0.815195174,-0.579186350));
#93=AXIS2_PLACEMENT_3D('',#32,#91,#92);
#94=PLANE('',#93);
#95=POLY_LOOP('',(#32,#31,#47,#46));
#96=FACE_OUTER_BOUND('',#95,.T.);
#97=FACE_SURFACE('',(#96),#94,.T.);
#98=DIRECTION('',(0.000000000,0.358096981,0.933684396));
#99=DIRECTION('',(0.000000000,0.933684396,-0.358096981));
#100=AXIS2_PLACEMENT_3D('',#31,#98,#99);
#101=PLANE('',#100);
#102=POLY_LOOP('',(#31,#30,#48,#47));
#103=FACE_OUTER_BOUND('',#102,.T.);
#104=FACE_SURFACE('',(#103),#101,.T.);
#105=DIRECTION('',(0.000000000,0.121004728,0.992651931));
#106=DIRECTION('',(0.000000000,0.992651931,-0.121004728));
#107=AXIS2_PLACEMENT_3D('',#30,#105,#106);
#108=PLANE('',#107);
#109=POLY_LOOP('',(#30,#29,#49,#48));
#110=FACE_OUTER_BOUND('',#109,.T.);
#111=FACE_SURFACE('',(#110),#108,.T.);
#112=DIRECTION('',(0.000000000,-0.121004728,0.992651931));
#113=DIRECTION('',(0.000000000,0.992651931,0.121004728));
#114=AXIS2_PLACEMENT_3D('',#29,#112,#113);
#115=PLANE('',#114);
#116=POLY_LOOP('',(#29,#28,#50,#49));
#117=FACE_OUTER_BOUND('',#116,.T.);
#118=FACE_SURFACE('',(#117),#115,.T.);
#119=DIRECTION('',(0.000000000,-0.358096981,0.933684396));
#120=DIRECTION('',(0.000000000,0.933684396,0.358096981));
#121=AXIS2_PLACEMENT_3D('',#28,#119,#120);
#122=PLANE('',#121);
#123=POLY_LOOP('',(#28,#27,#51,#50));
#124=FACE_OUTER_BOUND('',#123,.T.);
#125=FACE_SURFACE('',(#124),#122,.T.);
#126=DIRECTION('',(0.000000000,-0.579186350,0.815195174));
#127=DIRECTION('',(0.000000000,0.815195174,0.579186350));
#128=AXIS2_PLACEMENT_3D('',#27,#126,#127);
#129=PLANE('',#128);
#130=POLY_LOOP('',(#27,#26,#52,#51));
#131=FACE_OUTER_BOUND('',#130,.T.);
#132=FACE_SURFACE('',(#131),#129,.T.);
#133=DIRECTION('',(0.000000000,-0.769967950,0.638082563));
#134=DIRECTION('',(0.000000000,0.638082563,0.769967950));
#135=AXIS2_PLACEMENT_3D('',#26,#133,#134);
#136=PLANE('',#135);
#137=POLY_LOOP('',(#26,#25,#53,#52));
#138=FACE_OUTER_BOUND('',#137,.T.);
#139=FACE_SURFACE('',(#138),#136,.T.);
#140=DIRECTION('',(0.000000000,-0.912824300,0.408352541));
#141=DIRECTION('',(0.000000000,0.408352541,0.912824300));
#142=AXIS2_PLACEMENT_3D('',#25,#140,#141);
#143=PLANE('',#142);
#144=POLY_LOOP('',(#25,#24,#54,#53));
#145=FACE_OUTER_BOUND('',#144,.T.);
#146=FACE_SURFACE('',(#145),#143,.T.);
#147=DIRECTION('',(0.000000000,-0.990042484,0.140768891));
#148=DIRECTION('',(0.000000000,0.140768891,0.990042484));
#149=AXIS2_PLACEMENT_3D('',#24,#147,#148);
#150=PLANE('',#149);
#151=POLY_LOOP('',(#24,#23,#55,#54));
#152=FACE_OUTER_BOUND('',#151,.T.);
#153=FACE_SURFACE('',(#152),#150,.T.);
#154=DIRECTION('',(0.000000000,-0.990042484,-0.140768891));
#155=DIRECTION('',(0.000000000,-0.140768891,0.990042484));
#156=AXIS2_PLACEMENT_3D('',#23,#154,#155);
#157=PLANE('',#156);
#158=POLY_LOOP('',(#23,#22,#56,#55));
#159=FACE_OUTER_BOUND('',#158,.T.);
#160=FACE_SURFACE('',(#159),#157,.T.);
#161=DIRECTION('',(0.000000000,-0.912824300,-0.408352541));
#162=DIRECTION('',(0.000000000,-0.408352541,0.912824300));
#163=AXIS2_PLACEMENT_3D('',#22,#161,#162);
#164=PLANE('',#163);
#165=POLY_LOOP('',(#22,#21,#57,#56));
#166=FACE_OUTER_BOUND('',#165,.T.);
#167=FACE_SURFACE('',(#166),#164,.T.);
#168=DIRECTION('',(0.000000000,-0.769967950,-0.638082563));
#169=DIRECTION('',(0.000000000,-0.638082563,0.769967950));
#170=AXIS2_PLACEMENT_3D('',#21,#168,#169);
#171=PLANE('',#170);
#172=POLY_LOOP('',(#21,#20,#58,#57));
#173=FACE_OUTER_BOUND('',#172,.T.);
#174=FACE_SURFACE('',(#173),#171,.T.);
#175=DIRECTION('',(0.000000000,-0.579186350,-0.815195174));
#176=DIRECTION('',(0.000000000,-0.815195174,0.579186350));
#177=AXIS2_PLACEMENT_3D('',#20,#175,#176);
#178=PLANE('',#177);
#179=POLY_LOOP('',(#20,#19,#59,#58));
#180=FACE_OUTER_BOUND('',#179,.T.);
#181=FACE_SURFACE('',(#180),#178,.T.);
#182=DIRECTION('',(0.000000000,-0.358096981,-0.933684396));
#183=DIRECTION('',(0.000000000,-0.933684396,0.358096981));
#184=AXIS2_PLACEMENT_3D('',#19,#182,#183);
#185=PLANE('',#184);
#186=POLY_LOOP('',(#19,#18,#60,#59));
#187=FACE_OUTER_BOUND('',#186,.T.);
#188=FACE_SURFACE('',(#187),#185,.T.);
#189=DIRECTION('',(0.000000000,-0.121004728,-0.992651931));
#190=DIRECTION('',(0.000000000,-0.992651931,0.121004728));
#191=AXIS2_PLACEMENT_3D('',#18,#189,#190);
#192=PLANE('',#191);
#193=POLY_LOOP('',(#18,#17,#61,#60));
#194=FACE_OUTER_BOUND('',#193,.T.);
#195=FACE_SURFACE('',(#194),#192,.T.);
#196=DIRECTION('',(0.000000000,0.121004728,-0.992651931));
#197=DIRECTION('',(0.000000000,-0.992651931,-0.121004728));
#198=AXIS2_PLACEMENT_3D('',#17,#196,#197);
#199=PLANE('',#198);
#200=POLY_LOOP('',(#17,#16,#62,#61));
#201=FACE_OUTER_BOUND('',#200,.T.);
#202=FACE_SURFACE('',(#201),#199,.T.);
#203=DIRECTION('',(0.000000000,0.358096981,-0.933684396));
#204=DIRECTION('',(0.000000000,-0.933684396,-0.358096981));
#205=AXIS2_PLACEMENT_3D('',#16,#203,#204);
#206=PLANE('',#205);
#207=POLY_LOOP('',(#16,#15,#63,#62));
#208=FACE_OUTER_BOUND('',#207,.T.);
#209=FACE_SURFACE('',(#208),#206,.T.);
#210=DIRECTION('',(0.000000000,0.579186350,-0.815195174));
#211=DIRECTION('',(0.000000000,-0.815195174,-0.579186350));
#212=AXIS2_PLACEMENT_3D('',#15,#210,#211);
#213=PLANE('',#212);
#214=POLY_LOOP('',(#15,#14,#64,#63));
#215=FACE_OUTER_BOUND('',#214,.T.);
#216=FACE_SURFACE('',(#215),#213,.T.);
#217=DIRECTION('',(0.000000000,0.769967950,-0.638082563));
#218=DIRECTION('',(0.000000000,-0.638082563,-0.769967950));
#219=AXIS2_PLACEMENT_3D('',#14,#217,#218);
#220=PLANE('',#219);
#221=POLY_LOOP('',(#14,#13,#65,#64));
#222=FACE_OUTER_BOUND('',#221,.T.);
#223=FACE_SURFACE('',(#222),#220,.T.);
#224=DIRECTION('',(0.000000000,0.912824300,-0.408352541));
#225=DIRECTION('',(0.000000000,-0.408352541,-0.912824300));
#226=AXIS2_PLACEMENT_3D('',#13,#224,#225);
#227=PLANE('',#226);
#228=POLY_LOOP('',(#13,#8,#66,#65));
#229=FACE_OUTER_BOUND('',#228,.T.);
#230=FACE_SURFACE('',(#229),#227,.T.);
#231=DIRECTION('',(0.000000000,0.990042484,-0.140768891));
#232=DIRECTION('',(0.000000000,-0.140768891,-0.990042484));
#233=AXIS2_PLACEMENT_3D('',#8,#231,#232);
#234=PLANE('',#233);
#235=POLY_LOOP('',(#8,#35,#39,#66));
#236=FACE_OUTER_BOUND('',#235,.T.);
#237=FACE_SURFACE('',(#236),#234,.T.);
#238=CLOSED_SHELL('',(#38,#69,#76,#83,#90,#97,#104,#111,#118,#125,#132,#139,#146,#153,#160,#167,#174,#181,#188,#195,#202,#209,#216,#223,#230,#237));
#239=FACETED_BREP('MK20_2_corps',#238);
#240=(GEOMETRIC_REPRESENTATION_CONTEXT(3)GLOBAL_UNIT_ASSIGNED_CONTEXT((#1,#2,#3))GLOBAL_UNCERTAINTY_ASSIGNED_CONTEXT((#4))REPRESENTATION_CONTEXT('',''));
#241=FACETED_BREP_SHAPE_REPRESENTATION('MK20_2',(#239),#240);
#242=PRODUCT('MK20_2','MK20/2','corps 7.5×2.7×2.5 mm, enveloppe 7.5×2.7×2.5 mm',(#6));
#243=PRODUCT_DEFINITION_FORMATION('','',#242);
#244=PRODUCT_DEFINITION('','',#243,#7);
#245=PRODUCT_DEFINITION_SHAPE('','',#244);
#246=SHAPE_DEFINITION_REPRESENTATION(#245,#241);
ENDSEC;
END-ISO-10303-21;
