ISO-10303-21;
HEADER;
FILE_DESCRIPTION(('STEP d''encombrement · modèle simplifié | capteur MK26 | corps 32×6×10 mm, enveloppe 32×6×10 mm | provenance : MK26.pdf, page 1 | Ce fichier n''est ni un fichier fabricant ni une CAO de fabrication : géométrie d''encombrement approximée (FACETED_BREP), générée par scripts/generate-step-envelopes.ts.'),'2;1');
FILE_NAME('step/MK26.step','2026-01-01T00:00:00',('Standex Sensor Studio'),('Standex Detect'),'generate-step-envelopes.ts','','');
FILE_SCHEMA(('AUTOMOTIVE_DESIGN { 1 0 10303 214 1 1 1 1 }'));
ENDSEC;
DATA;
#1=(NAMED_UNIT(*)LENGTH_UNIT()SI_UNIT(.MILLI.,.METRE.));
#2=(NAMED_UNIT(*)PLANE_ANGLE_UNIT()SI_UNIT($,.RADIAN.));
#3=(NAMED_UNIT(*)SOLID_ANGLE_UNIT()SI_UNIT($,.STERADIAN.));
#4=UNCERTAINTY_MEASURE_WITH_UNIT(LENGTH_MEASURE(1.0E-6),#1,'distance_accuracy_value','');
#5=APPLICATION_CONTEXT('encombrement capteur reed - modele simplifie');
#6=PRODUCT_CONTEXT('',#5,'mechanical');
#7=PRODUCT_DEFINITION_CONTEXT('',#5,'design');
#8=CARTESIAN_POINT('',(-16.000000,3.000000,-5.000000));
#9=DIRECTION('',(0.000000000,-1.000000000,0.000000000));
#10=DIRECTION('',(0.000000000,0.000000000,1.000000000));
#11=AXIS2_PLACEMENT_3D('',#8,#9,#10);
#12=PLANE('',#11);
#13=CARTESIAN_POINT('',(16.000000,3.000000,-5.000000));
#14=CARTESIAN_POINT('',(16.000000,3.000000,5.000000));
#15=CARTESIAN_POINT('',(-16.000000,3.000000,5.000000));
#16=POLY_LOOP('',(#8,#13,#14,#15));
#17=FACE_OUTER_BOUND('',#16,.T.);
#18=CARTESIAN_POINT('',(-14.200000,3.000000,0.150000));
#19=CARTESIAN_POINT('',(-9.800000,3.000000,0.150000));
#20=CARTESIAN_POINT('',(-9.800000,3.000000,-3.150000));
#21=CARTESIAN_POINT('',(-14.200000,3.000000,-3.150000));
#22=POLY_LOOP('',(#18,#19,#20,#21));
#23=FACE_BOUND('',#22,.F.);
#24=CARTESIAN_POINT('',(10.350000,3.000000,0.150000));
#25=CARTESIAN_POINT('',(13.650000,3.000000,0.150000));
#26=CARTESIAN_POINT('',(13.650000,3.000000,-3.150000));
#27=CARTESIAN_POINT('',(10.350000,3.000000,-3.150000));
#28=POLY_LOOP('',(#24,#25,#26,#27));
#29=FACE_BOUND('',#28,.F.);
#30=FACE_SURFACE('',(#17,#23,#29),#12,.T.);
#31=CARTESIAN_POINT('',(-16.000000,-3.000000,5.000000));
#32=DIRECTION('',(0.000000000,1.000000000,0.000000000));
#33=DIRECTION('',(0.000000000,0.000000000,-1.000000000));
#34=AXIS2_PLACEMENT_3D('',#31,#32,#33);
#35=PLANE('',#34);
#36=CARTESIAN_POINT('',(16.000000,-3.000000,5.000000));
#37=CARTESIAN_POINT('',(16.000000,-3.000000,-5.000000));
#38=CARTESIAN_POINT('',(-16.000000,-3.000000,-5.000000));
#39=POLY_LOOP('',(#31,#36,#37,#38));
#40=FACE_OUTER_BOUND('',#39,.T.);
#41=CARTESIAN_POINT('',(-14.200000,-3.000000,-3.150000));
#42=CARTESIAN_POINT('',(-9.800000,-3.000000,-3.150000));
#43=CARTESIAN_POINT('',(-9.800000,-3.000000,0.150000));
#44=CARTESIAN_POINT('',(-14.200000,-3.000000,0.150000));
#45=POLY_LOOP('',(#41,#42,#43,#44));
#46=FACE_BOUND('',#45,.F.);
#47=CARTESIAN_POINT('',(10.350000,-3.000000,-3.150000));
#48=CARTESIAN_POINT('',(13.650000,-3.000000,-3.150000));
#49=CARTESIAN_POINT('',(13.650000,-3.000000,0.150000));
#50=CARTESIAN_POINT('',(10.350000,-3.000000,0.150000));
#51=POLY_LOOP('',(#47,#48,#49,#50));
#52=FACE_BOUND('',#51,.F.);
#53=FACE_SURFACE('',(#40,#46,#52),#35,.T.);
#54=DIRECTION('',(1.000000000,0.000000000,0.000000000));
#55=AXIS2_PLACEMENT_3D('',#38,#54,#10);
#56=PLANE('',#55);
#57=POLY_LOOP('',(#38,#8,#15,#31));
#58=FACE_OUTER_BOUND('',#57,.T.);
#59=FACE_SURFACE('',(#58),#56,.T.);
#60=DIRECTION('',(-1.000000000,0.000000000,0.000000000));
#61=AXIS2_PLACEMENT_3D('',#36,#60,#33);
#62=PLANE('',#61);
#63=POLY_LOOP('',(#36,#14,#13,#37));
#64=FACE_OUTER_BOUND('',#63,.T.);
#65=FACE_SURFACE('',(#64),#62,.T.);
#66=AXIS2_PLACEMENT_3D('',#38,#10,#32);
#67=PLANE('',#66);
#68=POLY_LOOP('',(#38,#37,#13,#8));
#69=FACE_OUTER_BOUND('',#68,.T.);
#70=FACE_SURFACE('',(#69),#67,.T.);
#71=AXIS2_PLACEMENT_3D('',#36,#33,#9);
#72=PLANE('',#71);
#73=POLY_LOOP('',(#36,#31,#15,#14));
#74=FACE_OUTER_BOUND('',#73,.T.);
#75=FACE_SURFACE('',(#74),#72,.T.);
#76=AXIS2_PLACEMENT_3D('',#41,#60,#33);
#77=PLANE('',#76);
#78=POLY_LOOP('',(#41,#44,#18,#21));
#79=FACE_OUTER_BOUND('',#78,.T.);
#80=FACE_SURFACE('',(#79),#77,.T.);
#81=AXIS2_PLACEMENT_3D('',#43,#54,#10);
#82=PLANE('',#81);
#83=POLY_LOOP('',(#43,#42,#20,#19));
#84=FACE_OUTER_BOUND('',#83,.T.);
#85=FACE_SURFACE('',(#84),#82,.T.);
#86=AXIS2_PLACEMENT_3D('',#44,#10,#32);
#87=PLANE('',#86);
#88=POLY_LOOP('',(#44,#43,#19,#18));
#89=FACE_OUTER_BOUND('',#88,.T.);
#90=FACE_SURFACE('',(#89),#87,.T.);
#91=AXIS2_PLACEMENT_3D('',#42,#33,#9);
#92=PLANE('',#91);
#93=POLY_LOOP('',(#42,#41,#21,#20));
#94=FACE_OUTER_BOUND('',#93,.T.);
#95=FACE_SURFACE('',(#94),#92,.T.);
#96=AXIS2_PLACEMENT_3D('',#47,#60,#33);
#97=PLANE('',#96);
#98=POLY_LOOP('',(#47,#50,#24,#27));
#99=FACE_OUTER_BOUND('',#98,.T.);
#100=FACE_SURFACE('',(#99),#97,.T.);
#101=AXIS2_PLACEMENT_3D('',#49,#54,#10);
#102=PLANE('',#101);
#103=POLY_LOOP('',(#49,#48,#26,#25));
#104=FACE_OUTER_BOUND('',#103,.T.);
#105=FACE_SURFACE('',(#104),#102,.T.);
#106=AXIS2_PLACEMENT_3D('',#50,#10,#32);
#107=PLANE('',#106);
#108=POLY_LOOP('',(#50,#49,#25,#24));
#109=FACE_OUTER_BOUND('',#108,.T.);
#110=FACE_SURFACE('',(#109),#107,.T.);
#111=AXIS2_PLACEMENT_3D('',#48,#33,#9);
#112=PLANE('',#111);
#113=POLY_LOOP('',(#48,#47,#27,#26));
#114=FACE_OUTER_BOUND('',#113,.T.);
#115=FACE_SURFACE('',(#114),#112,.T.);
#116=CLOSED_SHELL('',(#30,#53,#59,#65,#70,#75,#80,#85,#90,#95,#100,#105,#110,#115));
#117=FACETED_BREP('MK26_corps',#116);
#118=(GEOMETRIC_REPRESENTATION_CONTEXT(3)GLOBAL_UNIT_ASSIGNED_CONTEXT((#1,#2,#3))GLOBAL_UNCERTAINTY_ASSIGNED_CONTEXT((#4))REPRESENTATION_CONTEXT('',''));
#119=FACETED_BREP_SHAPE_REPRESENTATION('MK26',(#117),#118);
#120=PRODUCT('MK26','MK26','corps 32×6×10 mm, enveloppe 32×6×10 mm',(#6));
#121=PRODUCT_DEFINITION_FORMATION('','',#120);
#122=PRODUCT_DEFINITION('','',#121,#7);
#123=PRODUCT_DEFINITION_SHAPE('','',#122);
#124=SHAPE_DEFINITION_REPRESENTATION(#123,#119);
ENDSEC;
END-ISO-10303-21;
