ISO-10303-21;
HEADER;
FILE_DESCRIPTION(('STEP d''encombrement · modèle simplifié | capteur MK27 | corps 50×10×20 mm, enveloppe 50×10×20 mm | provenance : MK27.pdf, page 1 | Ce fichier n''est ni un fichier fabricant ni une CAO de fabrication : géométrie d''encombrement approximée (FACETED_BREP), générée par scripts/generate-step-envelopes.ts.'),'2;1');
FILE_NAME('step/MK27.step','2026-01-01T00:00:00',('Standex Sensor Studio'),('Standex Detect'),'generate-step-envelopes.ts','','');
FILE_SCHEMA(('AUTOMOTIVE_DESIGN { 1 0 10303 214 1 1 1 1 }'));
ENDSEC;
DATA;
#1=(NAMED_UNIT(*)LENGTH_UNIT()SI_UNIT(.MILLI.,.METRE.));
#2=(NAMED_UNIT(*)PLANE_ANGLE_UNIT()SI_UNIT($,.RADIAN.));
#3=(NAMED_UNIT(*)SOLID_ANGLE_UNIT()SI_UNIT($,.STERADIAN.));
#4=UNCERTAINTY_MEASURE_WITH_UNIT(LENGTH_MEASURE(1.0E-6),#1,'distance_accuracy_value','');
#5=APPLICATION_CONTEXT('encombrement capteur reed - modele simplifie');
#6=PRODUCT_CONTEXT('',#5,'mechanical');
#7=PRODUCT_DEFINITION_CONTEXT('',#5,'design');
#8=CARTESIAN_POINT('',(-25.000000,5.000000,-10.000000));
#9=DIRECTION('',(0.000000000,-1.000000000,0.000000000));
#10=DIRECTION('',(0.000000000,0.000000000,1.000000000));
#11=AXIS2_PLACEMENT_3D('',#8,#9,#10);
#12=PLANE('',#11);
#13=CARTESIAN_POINT('',(-25.000000,5.000000,-10.000000));
#14=CARTESIAN_POINT('',(25.000000,5.000000,-10.000000));
#15=CARTESIAN_POINT('',(25.000000,5.000000,10.000000));
#16=CARTESIAN_POINT('',(-25.000000,5.000000,10.000000));
#17=POLY_LOOP('',(#13,#14,#15,#16));
#18=FACE_OUTER_BOUND('',#17,.T.);
#19=CARTESIAN_POINT('',(-18.250000,5.000000,-2.850000));
#20=CARTESIAN_POINT('',(-13.750000,5.000000,-2.850000));
#21=CARTESIAN_POINT('',(-13.750000,5.000000,-7.350000));
#22=CARTESIAN_POINT('',(-18.250000,5.000000,-7.350000));
#23=POLY_LOOP('',(#19,#20,#21,#22));
#24=FACE_BOUND('',#23,.F.);
#25=CARTESIAN_POINT('',(13.750000,5.000000,-2.850000));
#26=CARTESIAN_POINT('',(18.250000,5.000000,-2.850000));
#27=CARTESIAN_POINT('',(18.250000,5.000000,-7.350000));
#28=CARTESIAN_POINT('',(13.750000,5.000000,-7.350000));
#29=POLY_LOOP('',(#25,#26,#27,#28));
#30=FACE_BOUND('',#29,.F.);
#31=ADVANCED_FACE('',(#18,#24,#30),#12,.T.);
#32=CARTESIAN_POINT('',(-25.000000,-5.000000,10.000000));
#33=DIRECTION('',(0.000000000,1.000000000,0.000000000));
#34=DIRECTION('',(0.000000000,0.000000000,-1.000000000));
#35=AXIS2_PLACEMENT_3D('',#32,#33,#34);
#36=PLANE('',#35);
#37=CARTESIAN_POINT('',(-25.000000,-5.000000,10.000000));
#38=CARTESIAN_POINT('',(25.000000,-5.000000,10.000000));
#39=CARTESIAN_POINT('',(25.000000,-5.000000,-10.000000));
#40=CARTESIAN_POINT('',(-25.000000,-5.000000,-10.000000));
#41=POLY_LOOP('',(#37,#38,#39,#40));
#42=FACE_OUTER_BOUND('',#41,.T.);
#43=CARTESIAN_POINT('',(-18.250000,-5.000000,-7.350000));
#44=CARTESIAN_POINT('',(-13.750000,-5.000000,-7.350000));
#45=CARTESIAN_POINT('',(-13.750000,-5.000000,-2.850000));
#46=CARTESIAN_POINT('',(-18.250000,-5.000000,-2.850000));
#47=POLY_LOOP('',(#43,#44,#45,#46));
#48=FACE_BOUND('',#47,.F.);
#49=CARTESIAN_POINT('',(13.750000,-5.000000,-7.350000));
#50=CARTESIAN_POINT('',(18.250000,-5.000000,-7.350000));
#51=CARTESIAN_POINT('',(18.250000,-5.000000,-2.850000));
#52=CARTESIAN_POINT('',(13.750000,-5.000000,-2.850000));
#53=POLY_LOOP('',(#49,#50,#51,#52));
#54=FACE_BOUND('',#53,.F.);
#55=ADVANCED_FACE('',(#42,#48,#54),#36,.T.);
#56=CARTESIAN_POINT('',(-25.000000,-5.000000,-10.000000));
#57=DIRECTION('',(1.000000000,0.000000000,0.000000000));
#58=DIRECTION('',(0.000000000,0.000000000,1.000000000));
#59=AXIS2_PLACEMENT_3D('',#56,#57,#58);
#60=PLANE('',#59);
#61=CARTESIAN_POINT('',(-25.000000,-5.000000,-10.000000));
#62=CARTESIAN_POINT('',(-25.000000,5.000000,-10.000000));
#63=CARTESIAN_POINT('',(-25.000000,5.000000,10.000000));
#64=CARTESIAN_POINT('',(-25.000000,-5.000000,10.000000));
#65=POLY_LOOP('',(#61,#62,#63,#64));
#66=FACE_OUTER_BOUND('',#65,.T.);
#67=ADVANCED_FACE('',(#66),#60,.T.);
#68=CARTESIAN_POINT('',(25.000000,-5.000000,10.000000));
#69=DIRECTION('',(-1.000000000,0.000000000,0.000000000));
#70=DIRECTION('',(0.000000000,0.000000000,-1.000000000));
#71=AXIS2_PLACEMENT_3D('',#68,#69,#70);
#72=PLANE('',#71);
#73=CARTESIAN_POINT('',(25.000000,-5.000000,10.000000));
#74=CARTESIAN_POINT('',(25.000000,5.000000,10.000000));
#75=CARTESIAN_POINT('',(25.000000,5.000000,-10.000000));
#76=CARTESIAN_POINT('',(25.000000,-5.000000,-10.000000));
#77=POLY_LOOP('',(#73,#74,#75,#76));
#78=FACE_OUTER_BOUND('',#77,.T.);
#79=ADVANCED_FACE('',(#78),#72,.T.);
#80=CARTESIAN_POINT('',(-25.000000,-5.000000,-10.000000));
#81=DIRECTION('',(0.000000000,0.000000000,1.000000000));
#82=DIRECTION('',(0.000000000,1.000000000,0.000000000));
#83=AXIS2_PLACEMENT_3D('',#80,#81,#82);
#84=PLANE('',#83);
#85=CARTESIAN_POINT('',(-25.000000,-5.000000,-10.000000));
#86=CARTESIAN_POINT('',(25.000000,-5.000000,-10.000000));
#87=CARTESIAN_POINT('',(25.000000,5.000000,-10.000000));
#88=CARTESIAN_POINT('',(-25.000000,5.000000,-10.000000));
#89=POLY_LOOP('',(#85,#86,#87,#88));
#90=FACE_OUTER_BOUND('',#89,.T.);
#91=ADVANCED_FACE('',(#90),#84,.T.);
#92=CARTESIAN_POINT('',(25.000000,-5.000000,10.000000));
#93=DIRECTION('',(0.000000000,0.000000000,-1.000000000));
#94=DIRECTION('',(0.000000000,-1.000000000,0.000000000));
#95=AXIS2_PLACEMENT_3D('',#92,#93,#94);
#96=PLANE('',#95);
#97=CARTESIAN_POINT('',(25.000000,-5.000000,10.000000));
#98=CARTESIAN_POINT('',(-25.000000,-5.000000,10.000000));
#99=CARTESIAN_POINT('',(-25.000000,5.000000,10.000000));
#100=CARTESIAN_POINT('',(25.000000,5.000000,10.000000));
#101=POLY_LOOP('',(#97,#98,#99,#100));
#102=FACE_OUTER_BOUND('',#101,.T.);
#103=ADVANCED_FACE('',(#102),#96,.T.);
#104=CARTESIAN_POINT('',(-18.250000,-5.000000,-7.350000));
#105=DIRECTION('',(-1.000000000,0.000000000,0.000000000));
#106=DIRECTION('',(0.000000000,0.000000000,-1.000000000));
#107=AXIS2_PLACEMENT_3D('',#104,#105,#106);
#108=PLANE('',#107);
#109=CARTESIAN_POINT('',(-18.250000,-5.000000,-7.350000));
#110=CARTESIAN_POINT('',(-18.250000,-5.000000,-2.850000));
#111=CARTESIAN_POINT('',(-18.250000,5.000000,-2.850000));
#112=CARTESIAN_POINT('',(-18.250000,5.000000,-7.350000));
#113=POLY_LOOP('',(#109,#110,#111,#112));
#114=FACE_OUTER_BOUND('',#113,.T.);
#115=ADVANCED_FACE('',(#114),#108,.T.);
#116=CARTESIAN_POINT('',(-13.750000,-5.000000,-2.850000));
#117=DIRECTION('',(1.000000000,0.000000000,0.000000000));
#118=DIRECTION('',(0.000000000,0.000000000,1.000000000));
#119=AXIS2_PLACEMENT_3D('',#116,#117,#118);
#120=PLANE('',#119);
#121=CARTESIAN_POINT('',(-13.750000,-5.000000,-2.850000));
#122=CARTESIAN_POINT('',(-13.750000,-5.000000,-7.350000));
#123=CARTESIAN_POINT('',(-13.750000,5.000000,-7.350000));
#124=CARTESIAN_POINT('',(-13.750000,5.000000,-2.850000));
#125=POLY_LOOP('',(#121,#122,#123,#124));
#126=FACE_OUTER_BOUND('',#125,.T.);
#127=ADVANCED_FACE('',(#126),#120,.T.);
#128=CARTESIAN_POINT('',(-18.250000,-5.000000,-2.850000));
#129=DIRECTION('',(0.000000000,0.000000000,1.000000000));
#130=DIRECTION('',(0.000000000,1.000000000,0.000000000));
#131=AXIS2_PLACEMENT_3D('',#128,#129,#130);
#132=PLANE('',#131);
#133=CARTESIAN_POINT('',(-18.250000,-5.000000,-2.850000));
#134=CARTESIAN_POINT('',(-13.750000,-5.000000,-2.850000));
#135=CARTESIAN_POINT('',(-13.750000,5.000000,-2.850000));
#136=CARTESIAN_POINT('',(-18.250000,5.000000,-2.850000));
#137=POLY_LOOP('',(#133,#134,#135,#136));
#138=FACE_OUTER_BOUND('',#137,.T.);
#139=ADVANCED_FACE('',(#138),#132,.T.);
#140=CARTESIAN_POINT('',(-13.750000,-5.000000,-7.350000));
#141=DIRECTION('',(0.000000000,0.000000000,-1.000000000));
#142=DIRECTION('',(0.000000000,-1.000000000,0.000000000));
#143=AXIS2_PLACEMENT_3D('',#140,#141,#142);
#144=PLANE('',#143);
#145=CARTESIAN_POINT('',(-13.750000,-5.000000,-7.350000));
#146=CARTESIAN_POINT('',(-18.250000,-5.000000,-7.350000));
#147=CARTESIAN_POINT('',(-18.250000,5.000000,-7.350000));
#148=CARTESIAN_POINT('',(-13.750000,5.000000,-7.350000));
#149=POLY_LOOP('',(#145,#146,#147,#148));
#150=FACE_OUTER_BOUND('',#149,.T.);
#151=ADVANCED_FACE('',(#150),#144,.T.);
#152=CARTESIAN_POINT('',(13.750000,-5.000000,-7.350000));
#153=DIRECTION('',(-1.000000000,0.000000000,0.000000000));
#154=DIRECTION('',(0.000000000,0.000000000,-1.000000000));
#155=AXIS2_PLACEMENT_3D('',#152,#153,#154);
#156=PLANE('',#155);
#157=CARTESIAN_POINT('',(13.750000,-5.000000,-7.350000));
#158=CARTESIAN_POINT('',(13.750000,-5.000000,-2.850000));
#159=CARTESIAN_POINT('',(13.750000,5.000000,-2.850000));
#160=CARTESIAN_POINT('',(13.750000,5.000000,-7.350000));
#161=POLY_LOOP('',(#157,#158,#159,#160));
#162=FACE_OUTER_BOUND('',#161,.T.);
#163=ADVANCED_FACE('',(#162),#156,.T.);
#164=CARTESIAN_POINT('',(18.250000,-5.000000,-2.850000));
#165=DIRECTION('',(1.000000000,0.000000000,0.000000000));
#166=DIRECTION('',(0.000000000,0.000000000,1.000000000));
#167=AXIS2_PLACEMENT_3D('',#164,#165,#166);
#168=PLANE('',#167);
#169=CARTESIAN_POINT('',(18.250000,-5.000000,-2.850000));
#170=CARTESIAN_POINT('',(18.250000,-5.000000,-7.350000));
#171=CARTESIAN_POINT('',(18.250000,5.000000,-7.350000));
#172=CARTESIAN_POINT('',(18.250000,5.000000,-2.850000));
#173=POLY_LOOP('',(#169,#170,#171,#172));
#174=FACE_OUTER_BOUND('',#173,.T.);
#175=ADVANCED_FACE('',(#174),#168,.T.);
#176=CARTESIAN_POINT('',(13.750000,-5.000000,-2.850000));
#177=DIRECTION('',(0.000000000,0.000000000,1.000000000));
#178=DIRECTION('',(0.000000000,1.000000000,0.000000000));
#179=AXIS2_PLACEMENT_3D('',#176,#177,#178);
#180=PLANE('',#179);
#181=CARTESIAN_POINT('',(13.750000,-5.000000,-2.850000));
#182=CARTESIAN_POINT('',(18.250000,-5.000000,-2.850000));
#183=CARTESIAN_POINT('',(18.250000,5.000000,-2.850000));
#184=CARTESIAN_POINT('',(13.750000,5.000000,-2.850000));
#185=POLY_LOOP('',(#181,#182,#183,#184));
#186=FACE_OUTER_BOUND('',#185,.T.);
#187=ADVANCED_FACE('',(#186),#180,.T.);
#188=CARTESIAN_POINT('',(18.250000,-5.000000,-7.350000));
#189=DIRECTION('',(0.000000000,0.000000000,-1.000000000));
#190=DIRECTION('',(0.000000000,-1.000000000,0.000000000));
#191=AXIS2_PLACEMENT_3D('',#188,#189,#190);
#192=PLANE('',#191);
#193=CARTESIAN_POINT('',(18.250000,-5.000000,-7.350000));
#194=CARTESIAN_POINT('',(13.750000,-5.000000,-7.350000));
#195=CARTESIAN_POINT('',(13.750000,5.000000,-7.350000));
#196=CARTESIAN_POINT('',(18.250000,5.000000,-7.350000));
#197=POLY_LOOP('',(#193,#194,#195,#196));
#198=FACE_OUTER_BOUND('',#197,.T.);
#199=ADVANCED_FACE('',(#198),#192,.T.);
#200=CLOSED_SHELL('',(#31,#55,#67,#79,#91,#103,#115,#127,#139,#151,#163,#175,#187,#199));
#201=MANIFOLD_SOLID_BREP('MK27_corps',#200);
#202=(GEOMETRIC_REPRESENTATION_CONTEXT(3)GLOBAL_UNIT_ASSIGNED_CONTEXT((#1,#2,#3))GLOBAL_UNCERTAINTY_ASSIGNED_CONTEXT((#4))REPRESENTATION_CONTEXT('',''));
#203=SHAPE_REPRESENTATION('MK27',(#201),#202);
#204=PRODUCT('MK27','MK27','corps 50×10×20 mm, enveloppe 50×10×20 mm',(#6));
#205=PRODUCT_DEFINITION_FORMATION('','',#204);
#206=PRODUCT_DEFINITION('','',#205,#7);
#207=PRODUCT_DEFINITION_SHAPE('','',#206);
#208=SHAPE_DEFINITION_REPRESENTATION(#207,#203);
ENDSEC;
END-ISO-10303-21;
