ISO-10303-21;
HEADER;
FILE_DESCRIPTION(('STEP d''encombrement · modèle simplifié | capteur MK31 | corps 6.4×1.95×2.2 mm, terminaisons 6.9 mm, enveloppe 6.9×1.95×2.2 mm | provenance : MK31.pdf, page 1 | Ce fichier n''est ni un fichier fabricant ni une CAO de fabrication : géométrie d''encombrement approximée (FACETED_BREP), générée par scripts/generate-step-envelopes.ts.'),'2;1');
FILE_NAME('step/MK31.step','2026-01-01T00:00:00',('Standex Sensor Studio'),('Standex Detect'),'generate-step-envelopes.ts','','');
FILE_SCHEMA(('AUTOMOTIVE_DESIGN { 1 0 10303 214 1 1 1 1 }'));
ENDSEC;
DATA;
#UNITMM=(NAMED_UNIT(*)LENGTH_UNIT()SI_UNIT(.MILLI.,.METRE.));
#UNITRAD=(NAMED_UNIT(*)PLANE_ANGLE_UNIT()SI_UNIT($,.RADIAN.));
#UNITSR=(NAMED_UNIT(*)SOLID_ANGLE_UNIT()SI_UNIT($,.STERADIAN.));
#UNCERT=UNCERTAINTY_MEASURE_WITH_UNIT(LENGTH_MEASURE(1.0E-6),#UNITMM,'','');
#PC=PRODUCT_CONTEXT('',#PC2,'mechanical');
#PC2=APPLICATION_CONTEXT('encombrement capteur reed - modele simplifie');
#1=CARTESIAN_POINT('',(-3.450000,0.975000,-1.100000));
#2=DIRECTION('',(0.000000000,-1.000000000,0.000000000));
#3=DIRECTION('',(0.000000000,0.000000000,1.000000000));
#4=AXIS2_PLACEMENT_3D('',#1,#2,#3);
#5=PLANE('',#4);
#6=CARTESIAN_POINT('',(-3.450000,0.975000,-1.100000));
#7=CARTESIAN_POINT('',(3.450000,0.975000,-1.100000));
#8=CARTESIAN_POINT('',(3.450000,0.975000,1.100000));
#9=CARTESIAN_POINT('',(-3.450000,0.975000,1.100000));
#10=POLY_LOOP('',(#6,#7,#8,#9));
#11=FACE_OUTER_BOUND('',#10,.T.);
#12=ADVANCED_FACE('',(#11),#5,.T.);
#13=CARTESIAN_POINT('',(-3.450000,-0.975000,1.100000));
#14=DIRECTION('',(0.000000000,1.000000000,0.000000000));
#15=DIRECTION('',(0.000000000,0.000000000,-1.000000000));
#16=AXIS2_PLACEMENT_3D('',#13,#14,#15);
#17=PLANE('',#16);
#18=CARTESIAN_POINT('',(-3.450000,-0.975000,1.100000));
#19=CARTESIAN_POINT('',(3.450000,-0.975000,1.100000));
#20=CARTESIAN_POINT('',(3.450000,-0.975000,-1.100000));
#21=CARTESIAN_POINT('',(-3.450000,-0.975000,-1.100000));
#22=POLY_LOOP('',(#18,#19,#20,#21));
#23=FACE_OUTER_BOUND('',#22,.T.);
#24=ADVANCED_FACE('',(#23),#17,.T.);
#25=CARTESIAN_POINT('',(-3.450000,-0.975000,-1.100000));
#26=DIRECTION('',(1.000000000,0.000000000,0.000000000));
#27=DIRECTION('',(0.000000000,0.000000000,1.000000000));
#28=AXIS2_PLACEMENT_3D('',#25,#26,#27);
#29=PLANE('',#28);
#30=CARTESIAN_POINT('',(-3.450000,-0.975000,-1.100000));
#31=CARTESIAN_POINT('',(-3.450000,0.975000,-1.100000));
#32=CARTESIAN_POINT('',(-3.450000,0.975000,1.100000));
#33=CARTESIAN_POINT('',(-3.450000,-0.975000,1.100000));
#34=POLY_LOOP('',(#30,#31,#32,#33));
#35=FACE_OUTER_BOUND('',#34,.T.);
#36=ADVANCED_FACE('',(#35),#29,.T.);
#37=CARTESIAN_POINT('',(3.450000,-0.975000,1.100000));
#38=DIRECTION('',(-1.000000000,0.000000000,0.000000000));
#39=DIRECTION('',(0.000000000,0.000000000,-1.000000000));
#40=AXIS2_PLACEMENT_3D('',#37,#38,#39);
#41=PLANE('',#40);
#42=CARTESIAN_POINT('',(3.450000,-0.975000,1.100000));
#43=CARTESIAN_POINT('',(3.450000,0.975000,1.100000));
#44=CARTESIAN_POINT('',(3.450000,0.975000,-1.100000));
#45=CARTESIAN_POINT('',(3.450000,-0.975000,-1.100000));
#46=POLY_LOOP('',(#42,#43,#44,#45));
#47=FACE_OUTER_BOUND('',#46,.T.);
#48=ADVANCED_FACE('',(#47),#41,.T.);
#49=CARTESIAN_POINT('',(-3.450000,-0.975000,-1.100000));
#50=DIRECTION('',(0.000000000,0.000000000,1.000000000));
#51=DIRECTION('',(0.000000000,1.000000000,0.000000000));
#52=AXIS2_PLACEMENT_3D('',#49,#50,#51);
#53=PLANE('',#52);
#54=CARTESIAN_POINT('',(-3.450000,-0.975000,-1.100000));
#55=CARTESIAN_POINT('',(3.450000,-0.975000,-1.100000));
#56=CARTESIAN_POINT('',(3.450000,0.975000,-1.100000));
#57=CARTESIAN_POINT('',(-3.450000,0.975000,-1.100000));
#58=POLY_LOOP('',(#54,#55,#56,#57));
#59=FACE_OUTER_BOUND('',#58,.T.);
#60=ADVANCED_FACE('',(#59),#53,.T.);
#61=CARTESIAN_POINT('',(3.450000,-0.975000,1.100000));
#62=DIRECTION('',(0.000000000,0.000000000,-1.000000000));
#63=DIRECTION('',(0.000000000,-1.000000000,0.000000000));
#64=AXIS2_PLACEMENT_3D('',#61,#62,#63);
#65=PLANE('',#64);
#66=CARTESIAN_POINT('',(3.450000,-0.975000,1.100000));
#67=CARTESIAN_POINT('',(-3.450000,-0.975000,1.100000));
#68=CARTESIAN_POINT('',(-3.450000,0.975000,1.100000));
#69=CARTESIAN_POINT('',(3.450000,0.975000,1.100000));
#70=POLY_LOOP('',(#66,#67,#68,#69));
#71=FACE_OUTER_BOUND('',#70,.T.);
#72=ADVANCED_FACE('',(#71),#65,.T.);
#73=CLOSED_SHELL('',(#12,#24,#36,#48,#60,#72));
#74=MANIFOLD_SOLID_BREP('MK31_corps',#73);
#75=(GEOMETRIC_REPRESENTATION_CONTEXT(3)GLOBAL_UNIT_ASSIGNED_CONTEXT((#UNITMM,#UNITRAD,#UNITSR))GLOBAL_UNCERTAINTY_ASSIGNED_CONTEXT((#UNCERT))REPRESENTATION_CONTEXT('',''));
#76=SHAPE_REPRESENTATION('MK31',(#74),#75);
#77=PRODUCT('MK31','MK31','corps 6.4×1.95×2.2 mm, terminaisons 6.9 mm, enveloppe 6.9×1.95×2.2 mm',(#PC));
#PDF=PRODUCT_DEFINITION_FORMATION('','',#77);
#PD=PRODUCT_DEFINITION('','',#PDF,#PDC);
#PDC=PRODUCT_DEFINITION_CONTEXT('',#PC2,'design');
#PDS=PRODUCT_DEFINITION_SHAPE('','',#PD);
#SDR=SHAPE_DEFINITION_REPRESENTATION(#PDS,#76);
ENDSEC;
END-ISO-10303-21;
