ISO-10303-21;
HEADER;
FILE_DESCRIPTION(('STEP d''encombrement · modèle simplifié | capteur MK36 | corps 15.5×9.3×9.3 mm, collerette Ø10.7 mm, enveloppe 15.5×9.3×9.3 mm | provenance : MK36.pdf, page 2 | Ce fichier n''est ni un fichier fabricant ni une CAO de fabrication : géométrie d''encombrement approximée (FACETED_BREP), générée par scripts/generate-step-envelopes.ts.'),'2;1');
FILE_NAME('step/MK36.step','2026-01-01T00:00:00',('Standex Sensor Studio'),('Standex Detect'),'generate-step-envelopes.ts','','');
FILE_SCHEMA(('AUTOMOTIVE_DESIGN { 1 0 10303 214 1 1 1 1 }'));
ENDSEC;
DATA;
#1=(NAMED_UNIT(*)LENGTH_UNIT()SI_UNIT(.MILLI.,.METRE.));
#2=(NAMED_UNIT(*)PLANE_ANGLE_UNIT()SI_UNIT($,.RADIAN.));
#3=(NAMED_UNIT(*)SOLID_ANGLE_UNIT()SI_UNIT($,.STERADIAN.));
#4=UNCERTAINTY_MEASURE_WITH_UNIT(LENGTH_MEASURE(1.0E-6),#1,'distance_accuracy_value','');
#5=APPLICATION_CONTEXT('encombrement capteur reed - modele simplifie');
#6=PRODUCT_CONTEXT('',#5,'mechanical');
#7=PRODUCT_DEFINITION_CONTEXT('',#5,'design');
#8=CARTESIAN_POINT('',(-7.750000,4.491555,-1.203509));
#9=DIRECTION('',(-1.000000000,0.000000000,0.000000000));
#10=DIRECTION('',(0.000000000,0.000000000,-1.000000000));
#11=AXIS2_PLACEMENT_3D('',#8,#9,#10);
#12=PLANE('',#11);
#13=CARTESIAN_POINT('',(-7.750000,4.491555,-1.203509));
#14=CARTESIAN_POINT('',(-7.750000,4.027018,-2.325000));
#15=CARTESIAN_POINT('',(-7.750000,3.288047,-3.288047));
#16=CARTESIAN_POINT('',(-7.750000,2.325000,-4.027018));
#17=CARTESIAN_POINT('',(-7.750000,1.203509,-4.491555));
#18=CARTESIAN_POINT('',(-7.750000,-0.000000,-4.650000));
#19=CARTESIAN_POINT('',(-7.750000,-1.203509,-4.491555));
#20=CARTESIAN_POINT('',(-7.750000,-2.325000,-4.027018));
#21=CARTESIAN_POINT('',(-7.750000,-3.288047,-3.288047));
#22=CARTESIAN_POINT('',(-7.750000,-4.027018,-2.325000));
#23=CARTESIAN_POINT('',(-7.750000,-4.491555,-1.203509));
#24=CARTESIAN_POINT('',(-7.750000,-4.650000,0.000000));
#25=CARTESIAN_POINT('',(-7.750000,-4.491555,1.203509));
#26=CARTESIAN_POINT('',(-7.750000,-4.027018,2.325000));
#27=CARTESIAN_POINT('',(-7.750000,-3.288047,3.288047));
#28=CARTESIAN_POINT('',(-7.750000,-2.325000,4.027018));
#29=CARTESIAN_POINT('',(-7.750000,-1.203509,4.491555));
#30=CARTESIAN_POINT('',(-7.750000,0.000000,4.650000));
#31=CARTESIAN_POINT('',(-7.750000,1.203509,4.491555));
#32=CARTESIAN_POINT('',(-7.750000,2.325000,4.027018));
#33=CARTESIAN_POINT('',(-7.750000,3.288047,3.288047));
#34=CARTESIAN_POINT('',(-7.750000,4.027018,2.325000));
#35=CARTESIAN_POINT('',(-7.750000,4.491555,1.203509));
#36=CARTESIAN_POINT('',(-7.750000,4.650000,0.000000));
#37=POLY_LOOP('',(#13,#14,#15,#16,#17,#18,#19,#20,#21,#22,#23,#24,#25,#26,#27,#28,#29,#30,#31,#32,#33,#34,#35,#36));
#38=FACE_OUTER_BOUND('',#37,.T.);
#39=ADVANCED_FACE('',(#38),#12,.T.);
#40=CARTESIAN_POINT('',(7.750000,4.650000,0.000000));
#41=DIRECTION('',(1.000000000,0.000000000,0.000000000));
#42=DIRECTION('',(0.000000000,0.000000000,1.000000000));
#43=AXIS2_PLACEMENT_3D('',#40,#41,#42);
#44=PLANE('',#43);
#45=CARTESIAN_POINT('',(7.750000,4.650000,0.000000));
#46=CARTESIAN_POINT('',(7.750000,4.491555,1.203509));
#47=CARTESIAN_POINT('',(7.750000,4.027018,2.325000));
#48=CARTESIAN_POINT('',(7.750000,3.288047,3.288047));
#49=CARTESIAN_POINT('',(7.750000,2.325000,4.027018));
#50=CARTESIAN_POINT('',(7.750000,1.203509,4.491555));
#51=CARTESIAN_POINT('',(7.750000,0.000000,4.650000));
#52=CARTESIAN_POINT('',(7.750000,-1.203509,4.491555));
#53=CARTESIAN_POINT('',(7.750000,-2.325000,4.027018));
#54=CARTESIAN_POINT('',(7.750000,-3.288047,3.288047));
#55=CARTESIAN_POINT('',(7.750000,-4.027018,2.325000));
#56=CARTESIAN_POINT('',(7.750000,-4.491555,1.203509));
#57=CARTESIAN_POINT('',(7.750000,-4.650000,0.000000));
#58=CARTESIAN_POINT('',(7.750000,-4.491555,-1.203509));
#59=CARTESIAN_POINT('',(7.750000,-4.027018,-2.325000));
#60=CARTESIAN_POINT('',(7.750000,-3.288047,-3.288047));
#61=CARTESIAN_POINT('',(7.750000,-2.325000,-4.027018));
#62=CARTESIAN_POINT('',(7.750000,-1.203509,-4.491555));
#63=CARTESIAN_POINT('',(7.750000,-0.000000,-4.650000));
#64=CARTESIAN_POINT('',(7.750000,1.203509,-4.491555));
#65=CARTESIAN_POINT('',(7.750000,2.325000,-4.027018));
#66=CARTESIAN_POINT('',(7.750000,3.288047,-3.288047));
#67=CARTESIAN_POINT('',(7.750000,4.027018,-2.325000));
#68=CARTESIAN_POINT('',(7.750000,4.491555,-1.203509));
#69=POLY_LOOP('',(#45,#46,#47,#48,#49,#50,#51,#52,#53,#54,#55,#56,#57,#58,#59,#60,#61,#62,#63,#64,#65,#66,#67,#68));
#70=FACE_OUTER_BOUND('',#69,.T.);
#71=ADVANCED_FACE('',(#70),#44,.T.);
#72=CARTESIAN_POINT('',(-7.750000,4.650000,0.000000));
#73=DIRECTION('',(0.000000000,-0.991444861,-0.130526192));
#74=DIRECTION('',(0.000000000,-0.130526192,0.991444861));
#75=AXIS2_PLACEMENT_3D('',#72,#73,#74);
#76=PLANE('',#75);
#77=CARTESIAN_POINT('',(-7.750000,4.650000,0.000000));
#78=CARTESIAN_POINT('',(7.750000,4.650000,0.000000));
#79=CARTESIAN_POINT('',(7.750000,4.491555,1.203509));
#80=CARTESIAN_POINT('',(-7.750000,4.491555,1.203509));
#81=POLY_LOOP('',(#77,#78,#79,#80));
#82=FACE_OUTER_BOUND('',#81,.T.);
#83=ADVANCED_FACE('',(#82),#76,.T.);
#84=CARTESIAN_POINT('',(-7.750000,4.491555,1.203509));
#85=DIRECTION('',(0.000000000,-0.923879533,-0.382683432));
#86=DIRECTION('',(0.000000000,-0.382683432,0.923879533));
#87=AXIS2_PLACEMENT_3D('',#84,#85,#86);
#88=PLANE('',#87);
#89=CARTESIAN_POINT('',(-7.750000,4.491555,1.203509));
#90=CARTESIAN_POINT('',(7.750000,4.491555,1.203509));
#91=CARTESIAN_POINT('',(7.750000,4.027018,2.325000));
#92=CARTESIAN_POINT('',(-7.750000,4.027018,2.325000));
#93=POLY_LOOP('',(#89,#90,#91,#92));
#94=FACE_OUTER_BOUND('',#93,.T.);
#95=ADVANCED_FACE('',(#94),#88,.T.);
#96=CARTESIAN_POINT('',(-7.750000,4.027018,2.325000));
#97=DIRECTION('',(0.000000000,-0.793353340,-0.608761429));
#98=DIRECTION('',(0.000000000,-0.608761429,0.793353340));
#99=AXIS2_PLACEMENT_3D('',#96,#97,#98);
#100=PLANE('',#99);
#101=CARTESIAN_POINT('',(-7.750000,4.027018,2.325000));
#102=CARTESIAN_POINT('',(7.750000,4.027018,2.325000));
#103=CARTESIAN_POINT('',(7.750000,3.288047,3.288047));
#104=CARTESIAN_POINT('',(-7.750000,3.288047,3.288047));
#105=POLY_LOOP('',(#101,#102,#103,#104));
#106=FACE_OUTER_BOUND('',#105,.T.);
#107=ADVANCED_FACE('',(#106),#100,.T.);
#108=CARTESIAN_POINT('',(-7.750000,3.288047,3.288047));
#109=DIRECTION('',(0.000000000,-0.608761429,-0.793353340));
#110=DIRECTION('',(0.000000000,-0.793353340,0.608761429));
#111=AXIS2_PLACEMENT_3D('',#108,#109,#110);
#112=PLANE('',#111);
#113=CARTESIAN_POINT('',(-7.750000,3.288047,3.288047));
#114=CARTESIAN_POINT('',(7.750000,3.288047,3.288047));
#115=CARTESIAN_POINT('',(7.750000,2.325000,4.027018));
#116=CARTESIAN_POINT('',(-7.750000,2.325000,4.027018));
#117=POLY_LOOP('',(#113,#114,#115,#116));
#118=FACE_OUTER_BOUND('',#117,.T.);
#119=ADVANCED_FACE('',(#118),#112,.T.);
#120=CARTESIAN_POINT('',(-7.750000,2.325000,4.027018));
#121=DIRECTION('',(0.000000000,-0.382683432,-0.923879533));
#122=DIRECTION('',(0.000000000,-0.923879533,0.382683432));
#123=AXIS2_PLACEMENT_3D('',#120,#121,#122);
#124=PLANE('',#123);
#125=CARTESIAN_POINT('',(-7.750000,2.325000,4.027018));
#126=CARTESIAN_POINT('',(7.750000,2.325000,4.027018));
#127=CARTESIAN_POINT('',(7.750000,1.203509,4.491555));
#128=CARTESIAN_POINT('',(-7.750000,1.203509,4.491555));
#129=POLY_LOOP('',(#125,#126,#127,#128));
#130=FACE_OUTER_BOUND('',#129,.T.);
#131=ADVANCED_FACE('',(#130),#124,.T.);
#132=CARTESIAN_POINT('',(-7.750000,1.203509,4.491555));
#133=DIRECTION('',(0.000000000,-0.130526192,-0.991444861));
#134=DIRECTION('',(0.000000000,-0.991444861,0.130526192));
#135=AXIS2_PLACEMENT_3D('',#132,#133,#134);
#136=PLANE('',#135);
#137=CARTESIAN_POINT('',(-7.750000,1.203509,4.491555));
#138=CARTESIAN_POINT('',(7.750000,1.203509,4.491555));
#139=CARTESIAN_POINT('',(7.750000,0.000000,4.650000));
#140=CARTESIAN_POINT('',(-7.750000,0.000000,4.650000));
#141=POLY_LOOP('',(#137,#138,#139,#140));
#142=FACE_OUTER_BOUND('',#141,.T.);
#143=ADVANCED_FACE('',(#142),#136,.T.);
#144=CARTESIAN_POINT('',(-7.750000,0.000000,4.650000));
#145=DIRECTION('',(0.000000000,0.130526192,-0.991444861));
#146=DIRECTION('',(0.000000000,-0.991444861,-0.130526192));
#147=AXIS2_PLACEMENT_3D('',#144,#145,#146);
#148=PLANE('',#147);
#149=CARTESIAN_POINT('',(-7.750000,0.000000,4.650000));
#150=CARTESIAN_POINT('',(7.750000,0.000000,4.650000));
#151=CARTESIAN_POINT('',(7.750000,-1.203509,4.491555));
#152=CARTESIAN_POINT('',(-7.750000,-1.203509,4.491555));
#153=POLY_LOOP('',(#149,#150,#151,#152));
#154=FACE_OUTER_BOUND('',#153,.T.);
#155=ADVANCED_FACE('',(#154),#148,.T.);
#156=CARTESIAN_POINT('',(-7.750000,-1.203509,4.491555));
#157=DIRECTION('',(0.000000000,0.382683432,-0.923879533));
#158=DIRECTION('',(0.000000000,-0.923879533,-0.382683432));
#159=AXIS2_PLACEMENT_3D('',#156,#157,#158);
#160=PLANE('',#159);
#161=CARTESIAN_POINT('',(-7.750000,-1.203509,4.491555));
#162=CARTESIAN_POINT('',(7.750000,-1.203509,4.491555));
#163=CARTESIAN_POINT('',(7.750000,-2.325000,4.027018));
#164=CARTESIAN_POINT('',(-7.750000,-2.325000,4.027018));
#165=POLY_LOOP('',(#161,#162,#163,#164));
#166=FACE_OUTER_BOUND('',#165,.T.);
#167=ADVANCED_FACE('',(#166),#160,.T.);
#168=CARTESIAN_POINT('',(-7.750000,-2.325000,4.027018));
#169=DIRECTION('',(0.000000000,0.608761429,-0.793353340));
#170=DIRECTION('',(0.000000000,-0.793353340,-0.608761429));
#171=AXIS2_PLACEMENT_3D('',#168,#169,#170);
#172=PLANE('',#171);
#173=CARTESIAN_POINT('',(-7.750000,-2.325000,4.027018));
#174=CARTESIAN_POINT('',(7.750000,-2.325000,4.027018));
#175=CARTESIAN_POINT('',(7.750000,-3.288047,3.288047));
#176=CARTESIAN_POINT('',(-7.750000,-3.288047,3.288047));
#177=POLY_LOOP('',(#173,#174,#175,#176));
#178=FACE_OUTER_BOUND('',#177,.T.);
#179=ADVANCED_FACE('',(#178),#172,.T.);
#180=CARTESIAN_POINT('',(-7.750000,-3.288047,3.288047));
#181=DIRECTION('',(0.000000000,0.793353340,-0.608761429));
#182=DIRECTION('',(0.000000000,-0.608761429,-0.793353340));
#183=AXIS2_PLACEMENT_3D('',#180,#181,#182);
#184=PLANE('',#183);
#185=CARTESIAN_POINT('',(-7.750000,-3.288047,3.288047));
#186=CARTESIAN_POINT('',(7.750000,-3.288047,3.288047));
#187=CARTESIAN_POINT('',(7.750000,-4.027018,2.325000));
#188=CARTESIAN_POINT('',(-7.750000,-4.027018,2.325000));
#189=POLY_LOOP('',(#185,#186,#187,#188));
#190=FACE_OUTER_BOUND('',#189,.T.);
#191=ADVANCED_FACE('',(#190),#184,.T.);
#192=CARTESIAN_POINT('',(-7.750000,-4.027018,2.325000));
#193=DIRECTION('',(0.000000000,0.923879533,-0.382683432));
#194=DIRECTION('',(0.000000000,-0.382683432,-0.923879533));
#195=AXIS2_PLACEMENT_3D('',#192,#193,#194);
#196=PLANE('',#195);
#197=CARTESIAN_POINT('',(-7.750000,-4.027018,2.325000));
#198=CARTESIAN_POINT('',(7.750000,-4.027018,2.325000));
#199=CARTESIAN_POINT('',(7.750000,-4.491555,1.203509));
#200=CARTESIAN_POINT('',(-7.750000,-4.491555,1.203509));
#201=POLY_LOOP('',(#197,#198,#199,#200));
#202=FACE_OUTER_BOUND('',#201,.T.);
#203=ADVANCED_FACE('',(#202),#196,.T.);
#204=CARTESIAN_POINT('',(-7.750000,-4.491555,1.203509));
#205=DIRECTION('',(0.000000000,0.991444861,-0.130526192));
#206=DIRECTION('',(0.000000000,-0.130526192,-0.991444861));
#207=AXIS2_PLACEMENT_3D('',#204,#205,#206);
#208=PLANE('',#207);
#209=CARTESIAN_POINT('',(-7.750000,-4.491555,1.203509));
#210=CARTESIAN_POINT('',(7.750000,-4.491555,1.203509));
#211=CARTESIAN_POINT('',(7.750000,-4.650000,0.000000));
#212=CARTESIAN_POINT('',(-7.750000,-4.650000,0.000000));
#213=POLY_LOOP('',(#209,#210,#211,#212));
#214=FACE_OUTER_BOUND('',#213,.T.);
#215=ADVANCED_FACE('',(#214),#208,.T.);
#216=CARTESIAN_POINT('',(-7.750000,-4.650000,0.000000));
#217=DIRECTION('',(0.000000000,0.991444861,0.130526192));
#218=DIRECTION('',(0.000000000,0.130526192,-0.991444861));
#219=AXIS2_PLACEMENT_3D('',#216,#217,#218);
#220=PLANE('',#219);
#221=CARTESIAN_POINT('',(-7.750000,-4.650000,0.000000));
#222=CARTESIAN_POINT('',(7.750000,-4.650000,0.000000));
#223=CARTESIAN_POINT('',(7.750000,-4.491555,-1.203509));
#224=CARTESIAN_POINT('',(-7.750000,-4.491555,-1.203509));
#225=POLY_LOOP('',(#221,#222,#223,#224));
#226=FACE_OUTER_BOUND('',#225,.T.);
#227=ADVANCED_FACE('',(#226),#220,.T.);
#228=CARTESIAN_POINT('',(-7.750000,-4.491555,-1.203509));
#229=DIRECTION('',(0.000000000,0.923879533,0.382683432));
#230=DIRECTION('',(0.000000000,0.382683432,-0.923879533));
#231=AXIS2_PLACEMENT_3D('',#228,#229,#230);
#232=PLANE('',#231);
#233=CARTESIAN_POINT('',(-7.750000,-4.491555,-1.203509));
#234=CARTESIAN_POINT('',(7.750000,-4.491555,-1.203509));
#235=CARTESIAN_POINT('',(7.750000,-4.027018,-2.325000));
#236=CARTESIAN_POINT('',(-7.750000,-4.027018,-2.325000));
#237=POLY_LOOP('',(#233,#234,#235,#236));
#238=FACE_OUTER_BOUND('',#237,.T.);
#239=ADVANCED_FACE('',(#238),#232,.T.);
#240=CARTESIAN_POINT('',(-7.750000,-4.027018,-2.325000));
#241=DIRECTION('',(0.000000000,0.793353340,0.608761429));
#242=DIRECTION('',(0.000000000,0.608761429,-0.793353340));
#243=AXIS2_PLACEMENT_3D('',#240,#241,#242);
#244=PLANE('',#243);
#245=CARTESIAN_POINT('',(-7.750000,-4.027018,-2.325000));
#246=CARTESIAN_POINT('',(7.750000,-4.027018,-2.325000));
#247=CARTESIAN_POINT('',(7.750000,-3.288047,-3.288047));
#248=CARTESIAN_POINT('',(-7.750000,-3.288047,-3.288047));
#249=POLY_LOOP('',(#245,#246,#247,#248));
#250=FACE_OUTER_BOUND('',#249,.T.);
#251=ADVANCED_FACE('',(#250),#244,.T.);
#252=CARTESIAN_POINT('',(-7.750000,-3.288047,-3.288047));
#253=DIRECTION('',(0.000000000,0.608761429,0.793353340));
#254=DIRECTION('',(0.000000000,0.793353340,-0.608761429));
#255=AXIS2_PLACEMENT_3D('',#252,#253,#254);
#256=PLANE('',#255);
#257=CARTESIAN_POINT('',(-7.750000,-3.288047,-3.288047));
#258=CARTESIAN_POINT('',(7.750000,-3.288047,-3.288047));
#259=CARTESIAN_POINT('',(7.750000,-2.325000,-4.027018));
#260=CARTESIAN_POINT('',(-7.750000,-2.325000,-4.027018));
#261=POLY_LOOP('',(#257,#258,#259,#260));
#262=FACE_OUTER_BOUND('',#261,.T.);
#263=ADVANCED_FACE('',(#262),#256,.T.);
#264=CARTESIAN_POINT('',(-7.750000,-2.325000,-4.027018));
#265=DIRECTION('',(0.000000000,0.382683432,0.923879533));
#266=DIRECTION('',(0.000000000,0.923879533,-0.382683432));
#267=AXIS2_PLACEMENT_3D('',#264,#265,#266);
#268=PLANE('',#267);
#269=CARTESIAN_POINT('',(-7.750000,-2.325000,-4.027018));
#270=CARTESIAN_POINT('',(7.750000,-2.325000,-4.027018));
#271=CARTESIAN_POINT('',(7.750000,-1.203509,-4.491555));
#272=CARTESIAN_POINT('',(-7.750000,-1.203509,-4.491555));
#273=POLY_LOOP('',(#269,#270,#271,#272));
#274=FACE_OUTER_BOUND('',#273,.T.);
#275=ADVANCED_FACE('',(#274),#268,.T.);
#276=CARTESIAN_POINT('',(-7.750000,-1.203509,-4.491555));
#277=DIRECTION('',(0.000000000,0.130526192,0.991444861));
#278=DIRECTION('',(0.000000000,0.991444861,-0.130526192));
#279=AXIS2_PLACEMENT_3D('',#276,#277,#278);
#280=PLANE('',#279);
#281=CARTESIAN_POINT('',(-7.750000,-1.203509,-4.491555));
#282=CARTESIAN_POINT('',(7.750000,-1.203509,-4.491555));
#283=CARTESIAN_POINT('',(7.750000,-0.000000,-4.650000));
#284=CARTESIAN_POINT('',(-7.750000,-0.000000,-4.650000));
#285=POLY_LOOP('',(#281,#282,#283,#284));
#286=FACE_OUTER_BOUND('',#285,.T.);
#287=ADVANCED_FACE('',(#286),#280,.T.);
#288=CARTESIAN_POINT('',(-7.750000,-0.000000,-4.650000));
#289=DIRECTION('',(0.000000000,-0.130526192,0.991444861));
#290=DIRECTION('',(0.000000000,0.991444861,0.130526192));
#291=AXIS2_PLACEMENT_3D('',#288,#289,#290);
#292=PLANE('',#291);
#293=CARTESIAN_POINT('',(-7.750000,-0.000000,-4.650000));
#294=CARTESIAN_POINT('',(7.750000,-0.000000,-4.650000));
#295=CARTESIAN_POINT('',(7.750000,1.203509,-4.491555));
#296=CARTESIAN_POINT('',(-7.750000,1.203509,-4.491555));
#297=POLY_LOOP('',(#293,#294,#295,#296));
#298=FACE_OUTER_BOUND('',#297,.T.);
#299=ADVANCED_FACE('',(#298),#292,.T.);
#300=CARTESIAN_POINT('',(-7.750000,1.203509,-4.491555));
#301=DIRECTION('',(0.000000000,-0.382683432,0.923879533));
#302=DIRECTION('',(0.000000000,0.923879533,0.382683432));
#303=AXIS2_PLACEMENT_3D('',#300,#301,#302);
#304=PLANE('',#303);
#305=CARTESIAN_POINT('',(-7.750000,1.203509,-4.491555));
#306=CARTESIAN_POINT('',(7.750000,1.203509,-4.491555));
#307=CARTESIAN_POINT('',(7.750000,2.325000,-4.027018));
#308=CARTESIAN_POINT('',(-7.750000,2.325000,-4.027018));
#309=POLY_LOOP('',(#305,#306,#307,#308));
#310=FACE_OUTER_BOUND('',#309,.T.);
#311=ADVANCED_FACE('',(#310),#304,.T.);
#312=CARTESIAN_POINT('',(-7.750000,2.325000,-4.027018));
#313=DIRECTION('',(0.000000000,-0.608761429,0.793353340));
#314=DIRECTION('',(0.000000000,0.793353340,0.608761429));
#315=AXIS2_PLACEMENT_3D('',#312,#313,#314);
#316=PLANE('',#315);
#317=CARTESIAN_POINT('',(-7.750000,2.325000,-4.027018));
#318=CARTESIAN_POINT('',(7.750000,2.325000,-4.027018));
#319=CARTESIAN_POINT('',(7.750000,3.288047,-3.288047));
#320=CARTESIAN_POINT('',(-7.750000,3.288047,-3.288047));
#321=POLY_LOOP('',(#317,#318,#319,#320));
#322=FACE_OUTER_BOUND('',#321,.T.);
#323=ADVANCED_FACE('',(#322),#316,.T.);
#324=CARTESIAN_POINT('',(-7.750000,3.288047,-3.288047));
#325=DIRECTION('',(0.000000000,-0.793353340,0.608761429));
#326=DIRECTION('',(0.000000000,0.608761429,0.793353340));
#327=AXIS2_PLACEMENT_3D('',#324,#325,#326);
#328=PLANE('',#327);
#329=CARTESIAN_POINT('',(-7.750000,3.288047,-3.288047));
#330=CARTESIAN_POINT('',(7.750000,3.288047,-3.288047));
#331=CARTESIAN_POINT('',(7.750000,4.027018,-2.325000));
#332=CARTESIAN_POINT('',(-7.750000,4.027018,-2.325000));
#333=POLY_LOOP('',(#329,#330,#331,#332));
#334=FACE_OUTER_BOUND('',#333,.T.);
#335=ADVANCED_FACE('',(#334),#328,.T.);
#336=CARTESIAN_POINT('',(-7.750000,4.027018,-2.325000));
#337=DIRECTION('',(0.000000000,-0.923879533,0.382683432));
#338=DIRECTION('',(0.000000000,0.382683432,0.923879533));
#339=AXIS2_PLACEMENT_3D('',#336,#337,#338);
#340=PLANE('',#339);
#341=CARTESIAN_POINT('',(-7.750000,4.027018,-2.325000));
#342=CARTESIAN_POINT('',(7.750000,4.027018,-2.325000));
#343=CARTESIAN_POINT('',(7.750000,4.491555,-1.203509));
#344=CARTESIAN_POINT('',(-7.750000,4.491555,-1.203509));
#345=POLY_LOOP('',(#341,#342,#343,#344));
#346=FACE_OUTER_BOUND('',#345,.T.);
#347=ADVANCED_FACE('',(#346),#340,.T.);
#348=CARTESIAN_POINT('',(-7.750000,4.491555,-1.203509));
#349=DIRECTION('',(0.000000000,-0.991444861,0.130526192));
#350=DIRECTION('',(0.000000000,0.130526192,0.991444861));
#351=AXIS2_PLACEMENT_3D('',#348,#349,#350);
#352=PLANE('',#351);
#353=CARTESIAN_POINT('',(-7.750000,4.491555,-1.203509));
#354=CARTESIAN_POINT('',(7.750000,4.491555,-1.203509));
#355=CARTESIAN_POINT('',(7.750000,4.650000,0.000000));
#356=CARTESIAN_POINT('',(-7.750000,4.650000,0.000000));
#357=POLY_LOOP('',(#353,#354,#355,#356));
#358=FACE_OUTER_BOUND('',#357,.T.);
#359=ADVANCED_FACE('',(#358),#352,.T.);
#360=CLOSED_SHELL('',(#39,#71,#83,#95,#107,#119,#131,#143,#155,#167,#179,#191,#203,#215,#227,#239,#251,#263,#275,#287,#299,#311,#323,#335,#347,#359));
#361=MANIFOLD_SOLID_BREP('MK36_corps',#360);
#362=CARTESIAN_POINT('',(-7.750000,5.167703,-1.384682));
#363=DIRECTION('',(-1.000000000,0.000000000,0.000000000));
#364=DIRECTION('',(0.000000000,0.000000000,-1.000000000));
#365=AXIS2_PLACEMENT_3D('',#362,#363,#364);
#366=PLANE('',#365);
#367=CARTESIAN_POINT('',(-7.750000,5.167703,-1.384682));
#368=CARTESIAN_POINT('',(-7.750000,4.633236,-2.675000));
#369=CARTESIAN_POINT('',(-7.750000,3.783021,-3.783021));
#370=CARTESIAN_POINT('',(-7.750000,2.675000,-4.633236));
#371=CARTESIAN_POINT('',(-7.750000,1.384682,-5.167703));
#372=CARTESIAN_POINT('',(-7.750000,-0.000000,-5.350000));
#373=CARTESIAN_POINT('',(-7.750000,-1.384682,-5.167703));
#374=CARTESIAN_POINT('',(-7.750000,-2.675000,-4.633236));
#375=CARTESIAN_POINT('',(-7.750000,-3.783021,-3.783021));
#376=CARTESIAN_POINT('',(-7.750000,-4.633236,-2.675000));
#377=CARTESIAN_POINT('',(-7.750000,-5.167703,-1.384682));
#378=CARTESIAN_POINT('',(-7.750000,-5.350000,0.000000));
#379=CARTESIAN_POINT('',(-7.750000,-5.167703,1.384682));
#380=CARTESIAN_POINT('',(-7.750000,-4.633236,2.675000));
#381=CARTESIAN_POINT('',(-7.750000,-3.783021,3.783021));
#382=CARTESIAN_POINT('',(-7.750000,-2.675000,4.633236));
#383=CARTESIAN_POINT('',(-7.750000,-1.384682,5.167703));
#384=CARTESIAN_POINT('',(-7.750000,0.000000,5.350000));
#385=CARTESIAN_POINT('',(-7.750000,1.384682,5.167703));
#386=CARTESIAN_POINT('',(-7.750000,2.675000,4.633236));
#387=CARTESIAN_POINT('',(-7.750000,3.783021,3.783021));
#388=CARTESIAN_POINT('',(-7.750000,4.633236,2.675000));
#389=CARTESIAN_POINT('',(-7.750000,5.167703,1.384682));
#390=CARTESIAN_POINT('',(-7.750000,5.350000,0.000000));
#391=POLY_LOOP('',(#367,#368,#369,#370,#371,#372,#373,#374,#375,#376,#377,#378,#379,#380,#381,#382,#383,#384,#385,#386,#387,#388,#389,#390));
#392=FACE_OUTER_BOUND('',#391,.T.);
#393=ADVANCED_FACE('',(#392),#366,.T.);
#394=CARTESIAN_POINT('',(-6.200000,5.350000,0.000000));
#395=DIRECTION('',(1.000000000,0.000000000,0.000000000));
#396=DIRECTION('',(0.000000000,0.000000000,1.000000000));
#397=AXIS2_PLACEMENT_3D('',#394,#395,#396);
#398=PLANE('',#397);
#399=CARTESIAN_POINT('',(-6.200000,5.350000,0.000000));
#400=CARTESIAN_POINT('',(-6.200000,5.167703,1.384682));
#401=CARTESIAN_POINT('',(-6.200000,4.633236,2.675000));
#402=CARTESIAN_POINT('',(-6.200000,3.783021,3.783021));
#403=CARTESIAN_POINT('',(-6.200000,2.675000,4.633236));
#404=CARTESIAN_POINT('',(-6.200000,1.384682,5.167703));
#405=CARTESIAN_POINT('',(-6.200000,0.000000,5.350000));
#406=CARTESIAN_POINT('',(-6.200000,-1.384682,5.167703));
#407=CARTESIAN_POINT('',(-6.200000,-2.675000,4.633236));
#408=CARTESIAN_POINT('',(-6.200000,-3.783021,3.783021));
#409=CARTESIAN_POINT('',(-6.200000,-4.633236,2.675000));
#410=CARTESIAN_POINT('',(-6.200000,-5.167703,1.384682));
#411=CARTESIAN_POINT('',(-6.200000,-5.350000,0.000000));
#412=CARTESIAN_POINT('',(-6.200000,-5.167703,-1.384682));
#413=CARTESIAN_POINT('',(-6.200000,-4.633236,-2.675000));
#414=CARTESIAN_POINT('',(-6.200000,-3.783021,-3.783021));
#415=CARTESIAN_POINT('',(-6.200000,-2.675000,-4.633236));
#416=CARTESIAN_POINT('',(-6.200000,-1.384682,-5.167703));
#417=CARTESIAN_POINT('',(-6.200000,-0.000000,-5.350000));
#418=CARTESIAN_POINT('',(-6.200000,1.384682,-5.167703));
#419=CARTESIAN_POINT('',(-6.200000,2.675000,-4.633236));
#420=CARTESIAN_POINT('',(-6.200000,3.783021,-3.783021));
#421=CARTESIAN_POINT('',(-6.200000,4.633236,-2.675000));
#422=CARTESIAN_POINT('',(-6.200000,5.167703,-1.384682));
#423=POLY_LOOP('',(#399,#400,#401,#402,#403,#404,#405,#406,#407,#408,#409,#410,#411,#412,#413,#414,#415,#416,#417,#418,#419,#420,#421,#422));
#424=FACE_OUTER_BOUND('',#423,.T.);
#425=ADVANCED_FACE('',(#424),#398,.T.);
#426=CARTESIAN_POINT('',(-7.750000,5.350000,0.000000));
#427=DIRECTION('',(0.000000000,-0.991444861,-0.130526192));
#428=DIRECTION('',(0.000000000,-0.130526192,0.991444861));
#429=AXIS2_PLACEMENT_3D('',#426,#427,#428);
#430=PLANE('',#429);
#431=CARTESIAN_POINT('',(-7.750000,5.350000,0.000000));
#432=CARTESIAN_POINT('',(-6.200000,5.350000,0.000000));
#433=CARTESIAN_POINT('',(-6.200000,5.167703,1.384682));
#434=CARTESIAN_POINT('',(-7.750000,5.167703,1.384682));
#435=POLY_LOOP('',(#431,#432,#433,#434));
#436=FACE_OUTER_BOUND('',#435,.T.);
#437=ADVANCED_FACE('',(#436),#430,.T.);
#438=CARTESIAN_POINT('',(-7.750000,5.167703,1.384682));
#439=DIRECTION('',(0.000000000,-0.923879533,-0.382683432));
#440=DIRECTION('',(0.000000000,-0.382683432,0.923879533));
#441=AXIS2_PLACEMENT_3D('',#438,#439,#440);
#442=PLANE('',#441);
#443=CARTESIAN_POINT('',(-7.750000,5.167703,1.384682));
#444=CARTESIAN_POINT('',(-6.200000,5.167703,1.384682));
#445=CARTESIAN_POINT('',(-6.200000,4.633236,2.675000));
#446=CARTESIAN_POINT('',(-7.750000,4.633236,2.675000));
#447=POLY_LOOP('',(#443,#444,#445,#446));
#448=FACE_OUTER_BOUND('',#447,.T.);
#449=ADVANCED_FACE('',(#448),#442,.T.);
#450=CARTESIAN_POINT('',(-7.750000,4.633236,2.675000));
#451=DIRECTION('',(0.000000000,-0.793353340,-0.608761429));
#452=DIRECTION('',(0.000000000,-0.608761429,0.793353340));
#453=AXIS2_PLACEMENT_3D('',#450,#451,#452);
#454=PLANE('',#453);
#455=CARTESIAN_POINT('',(-7.750000,4.633236,2.675000));
#456=CARTESIAN_POINT('',(-6.200000,4.633236,2.675000));
#457=CARTESIAN_POINT('',(-6.200000,3.783021,3.783021));
#458=CARTESIAN_POINT('',(-7.750000,3.783021,3.783021));
#459=POLY_LOOP('',(#455,#456,#457,#458));
#460=FACE_OUTER_BOUND('',#459,.T.);
#461=ADVANCED_FACE('',(#460),#454,.T.);
#462=CARTESIAN_POINT('',(-7.750000,3.783021,3.783021));
#463=DIRECTION('',(0.000000000,-0.608761429,-0.793353340));
#464=DIRECTION('',(0.000000000,-0.793353340,0.608761429));
#465=AXIS2_PLACEMENT_3D('',#462,#463,#464);
#466=PLANE('',#465);
#467=CARTESIAN_POINT('',(-7.750000,3.783021,3.783021));
#468=CARTESIAN_POINT('',(-6.200000,3.783021,3.783021));
#469=CARTESIAN_POINT('',(-6.200000,2.675000,4.633236));
#470=CARTESIAN_POINT('',(-7.750000,2.675000,4.633236));
#471=POLY_LOOP('',(#467,#468,#469,#470));
#472=FACE_OUTER_BOUND('',#471,.T.);
#473=ADVANCED_FACE('',(#472),#466,.T.);
#474=CARTESIAN_POINT('',(-7.750000,2.675000,4.633236));
#475=DIRECTION('',(0.000000000,-0.382683432,-0.923879533));
#476=DIRECTION('',(0.000000000,-0.923879533,0.382683432));
#477=AXIS2_PLACEMENT_3D('',#474,#475,#476);
#478=PLANE('',#477);
#479=CARTESIAN_POINT('',(-7.750000,2.675000,4.633236));
#480=CARTESIAN_POINT('',(-6.200000,2.675000,4.633236));
#481=CARTESIAN_POINT('',(-6.200000,1.384682,5.167703));
#482=CARTESIAN_POINT('',(-7.750000,1.384682,5.167703));
#483=POLY_LOOP('',(#479,#480,#481,#482));
#484=FACE_OUTER_BOUND('',#483,.T.);
#485=ADVANCED_FACE('',(#484),#478,.T.);
#486=CARTESIAN_POINT('',(-7.750000,1.384682,5.167703));
#487=DIRECTION('',(0.000000000,-0.130526192,-0.991444861));
#488=DIRECTION('',(0.000000000,-0.991444861,0.130526192));
#489=AXIS2_PLACEMENT_3D('',#486,#487,#488);
#490=PLANE('',#489);
#491=CARTESIAN_POINT('',(-7.750000,1.384682,5.167703));
#492=CARTESIAN_POINT('',(-6.200000,1.384682,5.167703));
#493=CARTESIAN_POINT('',(-6.200000,0.000000,5.350000));
#494=CARTESIAN_POINT('',(-7.750000,0.000000,5.350000));
#495=POLY_LOOP('',(#491,#492,#493,#494));
#496=FACE_OUTER_BOUND('',#495,.T.);
#497=ADVANCED_FACE('',(#496),#490,.T.);
#498=CARTESIAN_POINT('',(-7.750000,0.000000,5.350000));
#499=DIRECTION('',(0.000000000,0.130526192,-0.991444861));
#500=DIRECTION('',(0.000000000,-0.991444861,-0.130526192));
#501=AXIS2_PLACEMENT_3D('',#498,#499,#500);
#502=PLANE('',#501);
#503=CARTESIAN_POINT('',(-7.750000,0.000000,5.350000));
#504=CARTESIAN_POINT('',(-6.200000,0.000000,5.350000));
#505=CARTESIAN_POINT('',(-6.200000,-1.384682,5.167703));
#506=CARTESIAN_POINT('',(-7.750000,-1.384682,5.167703));
#507=POLY_LOOP('',(#503,#504,#505,#506));
#508=FACE_OUTER_BOUND('',#507,.T.);
#509=ADVANCED_FACE('',(#508),#502,.T.);
#510=CARTESIAN_POINT('',(-7.750000,-1.384682,5.167703));
#511=DIRECTION('',(0.000000000,0.382683432,-0.923879533));
#512=DIRECTION('',(0.000000000,-0.923879533,-0.382683432));
#513=AXIS2_PLACEMENT_3D('',#510,#511,#512);
#514=PLANE('',#513);
#515=CARTESIAN_POINT('',(-7.750000,-1.384682,5.167703));
#516=CARTESIAN_POINT('',(-6.200000,-1.384682,5.167703));
#517=CARTESIAN_POINT('',(-6.200000,-2.675000,4.633236));
#518=CARTESIAN_POINT('',(-7.750000,-2.675000,4.633236));
#519=POLY_LOOP('',(#515,#516,#517,#518));
#520=FACE_OUTER_BOUND('',#519,.T.);
#521=ADVANCED_FACE('',(#520),#514,.T.);
#522=CARTESIAN_POINT('',(-7.750000,-2.675000,4.633236));
#523=DIRECTION('',(0.000000000,0.608761429,-0.793353340));
#524=DIRECTION('',(0.000000000,-0.793353340,-0.608761429));
#525=AXIS2_PLACEMENT_3D('',#522,#523,#524);
#526=PLANE('',#525);
#527=CARTESIAN_POINT('',(-7.750000,-2.675000,4.633236));
#528=CARTESIAN_POINT('',(-6.200000,-2.675000,4.633236));
#529=CARTESIAN_POINT('',(-6.200000,-3.783021,3.783021));
#530=CARTESIAN_POINT('',(-7.750000,-3.783021,3.783021));
#531=POLY_LOOP('',(#527,#528,#529,#530));
#532=FACE_OUTER_BOUND('',#531,.T.);
#533=ADVANCED_FACE('',(#532),#526,.T.);
#534=CARTESIAN_POINT('',(-7.750000,-3.783021,3.783021));
#535=DIRECTION('',(0.000000000,0.793353340,-0.608761429));
#536=DIRECTION('',(0.000000000,-0.608761429,-0.793353340));
#537=AXIS2_PLACEMENT_3D('',#534,#535,#536);
#538=PLANE('',#537);
#539=CARTESIAN_POINT('',(-7.750000,-3.783021,3.783021));
#540=CARTESIAN_POINT('',(-6.200000,-3.783021,3.783021));
#541=CARTESIAN_POINT('',(-6.200000,-4.633236,2.675000));
#542=CARTESIAN_POINT('',(-7.750000,-4.633236,2.675000));
#543=POLY_LOOP('',(#539,#540,#541,#542));
#544=FACE_OUTER_BOUND('',#543,.T.);
#545=ADVANCED_FACE('',(#544),#538,.T.);
#546=CARTESIAN_POINT('',(-7.750000,-4.633236,2.675000));
#547=DIRECTION('',(0.000000000,0.923879533,-0.382683432));
#548=DIRECTION('',(0.000000000,-0.382683432,-0.923879533));
#549=AXIS2_PLACEMENT_3D('',#546,#547,#548);
#550=PLANE('',#549);
#551=CARTESIAN_POINT('',(-7.750000,-4.633236,2.675000));
#552=CARTESIAN_POINT('',(-6.200000,-4.633236,2.675000));
#553=CARTESIAN_POINT('',(-6.200000,-5.167703,1.384682));
#554=CARTESIAN_POINT('',(-7.750000,-5.167703,1.384682));
#555=POLY_LOOP('',(#551,#552,#553,#554));
#556=FACE_OUTER_BOUND('',#555,.T.);
#557=ADVANCED_FACE('',(#556),#550,.T.);
#558=CARTESIAN_POINT('',(-7.750000,-5.167703,1.384682));
#559=DIRECTION('',(0.000000000,0.991444861,-0.130526192));
#560=DIRECTION('',(0.000000000,-0.130526192,-0.991444861));
#561=AXIS2_PLACEMENT_3D('',#558,#559,#560);
#562=PLANE('',#561);
#563=CARTESIAN_POINT('',(-7.750000,-5.167703,1.384682));
#564=CARTESIAN_POINT('',(-6.200000,-5.167703,1.384682));
#565=CARTESIAN_POINT('',(-6.200000,-5.350000,0.000000));
#566=CARTESIAN_POINT('',(-7.750000,-5.350000,0.000000));
#567=POLY_LOOP('',(#563,#564,#565,#566));
#568=FACE_OUTER_BOUND('',#567,.T.);
#569=ADVANCED_FACE('',(#568),#562,.T.);
#570=CARTESIAN_POINT('',(-7.750000,-5.350000,0.000000));
#571=DIRECTION('',(0.000000000,0.991444861,0.130526192));
#572=DIRECTION('',(0.000000000,0.130526192,-0.991444861));
#573=AXIS2_PLACEMENT_3D('',#570,#571,#572);
#574=PLANE('',#573);
#575=CARTESIAN_POINT('',(-7.750000,-5.350000,0.000000));
#576=CARTESIAN_POINT('',(-6.200000,-5.350000,0.000000));
#577=CARTESIAN_POINT('',(-6.200000,-5.167703,-1.384682));
#578=CARTESIAN_POINT('',(-7.750000,-5.167703,-1.384682));
#579=POLY_LOOP('',(#575,#576,#577,#578));
#580=FACE_OUTER_BOUND('',#579,.T.);
#581=ADVANCED_FACE('',(#580),#574,.T.);
#582=CARTESIAN_POINT('',(-7.750000,-5.167703,-1.384682));
#583=DIRECTION('',(0.000000000,0.923879533,0.382683432));
#584=DIRECTION('',(0.000000000,0.382683432,-0.923879533));
#585=AXIS2_PLACEMENT_3D('',#582,#583,#584);
#586=PLANE('',#585);
#587=CARTESIAN_POINT('',(-7.750000,-5.167703,-1.384682));
#588=CARTESIAN_POINT('',(-6.200000,-5.167703,-1.384682));
#589=CARTESIAN_POINT('',(-6.200000,-4.633236,-2.675000));
#590=CARTESIAN_POINT('',(-7.750000,-4.633236,-2.675000));
#591=POLY_LOOP('',(#587,#588,#589,#590));
#592=FACE_OUTER_BOUND('',#591,.T.);
#593=ADVANCED_FACE('',(#592),#586,.T.);
#594=CARTESIAN_POINT('',(-7.750000,-4.633236,-2.675000));
#595=DIRECTION('',(0.000000000,0.793353340,0.608761429));
#596=DIRECTION('',(0.000000000,0.608761429,-0.793353340));
#597=AXIS2_PLACEMENT_3D('',#594,#595,#596);
#598=PLANE('',#597);
#599=CARTESIAN_POINT('',(-7.750000,-4.633236,-2.675000));
#600=CARTESIAN_POINT('',(-6.200000,-4.633236,-2.675000));
#601=CARTESIAN_POINT('',(-6.200000,-3.783021,-3.783021));
#602=CARTESIAN_POINT('',(-7.750000,-3.783021,-3.783021));
#603=POLY_LOOP('',(#599,#600,#601,#602));
#604=FACE_OUTER_BOUND('',#603,.T.);
#605=ADVANCED_FACE('',(#604),#598,.T.);
#606=CARTESIAN_POINT('',(-7.750000,-3.783021,-3.783021));
#607=DIRECTION('',(0.000000000,0.608761429,0.793353340));
#608=DIRECTION('',(0.000000000,0.793353340,-0.608761429));
#609=AXIS2_PLACEMENT_3D('',#606,#607,#608);
#610=PLANE('',#609);
#611=CARTESIAN_POINT('',(-7.750000,-3.783021,-3.783021));
#612=CARTESIAN_POINT('',(-6.200000,-3.783021,-3.783021));
#613=CARTESIAN_POINT('',(-6.200000,-2.675000,-4.633236));
#614=CARTESIAN_POINT('',(-7.750000,-2.675000,-4.633236));
#615=POLY_LOOP('',(#611,#612,#613,#614));
#616=FACE_OUTER_BOUND('',#615,.T.);
#617=ADVANCED_FACE('',(#616),#610,.T.);
#618=CARTESIAN_POINT('',(-7.750000,-2.675000,-4.633236));
#619=DIRECTION('',(0.000000000,0.382683432,0.923879533));
#620=DIRECTION('',(0.000000000,0.923879533,-0.382683432));
#621=AXIS2_PLACEMENT_3D('',#618,#619,#620);
#622=PLANE('',#621);
#623=CARTESIAN_POINT('',(-7.750000,-2.675000,-4.633236));
#624=CARTESIAN_POINT('',(-6.200000,-2.675000,-4.633236));
#625=CARTESIAN_POINT('',(-6.200000,-1.384682,-5.167703));
#626=CARTESIAN_POINT('',(-7.750000,-1.384682,-5.167703));
#627=POLY_LOOP('',(#623,#624,#625,#626));
#628=FACE_OUTER_BOUND('',#627,.T.);
#629=ADVANCED_FACE('',(#628),#622,.T.);
#630=CARTESIAN_POINT('',(-7.750000,-1.384682,-5.167703));
#631=DIRECTION('',(0.000000000,0.130526192,0.991444861));
#632=DIRECTION('',(0.000000000,0.991444861,-0.130526192));
#633=AXIS2_PLACEMENT_3D('',#630,#631,#632);
#634=PLANE('',#633);
#635=CARTESIAN_POINT('',(-7.750000,-1.384682,-5.167703));
#636=CARTESIAN_POINT('',(-6.200000,-1.384682,-5.167703));
#637=CARTESIAN_POINT('',(-6.200000,-0.000000,-5.350000));
#638=CARTESIAN_POINT('',(-7.750000,-0.000000,-5.350000));
#639=POLY_LOOP('',(#635,#636,#637,#638));
#640=FACE_OUTER_BOUND('',#639,.T.);
#641=ADVANCED_FACE('',(#640),#634,.T.);
#642=CARTESIAN_POINT('',(-7.750000,-0.000000,-5.350000));
#643=DIRECTION('',(0.000000000,-0.130526192,0.991444861));
#644=DIRECTION('',(0.000000000,0.991444861,0.130526192));
#645=AXIS2_PLACEMENT_3D('',#642,#643,#644);
#646=PLANE('',#645);
#647=CARTESIAN_POINT('',(-7.750000,-0.000000,-5.350000));
#648=CARTESIAN_POINT('',(-6.200000,-0.000000,-5.350000));
#649=CARTESIAN_POINT('',(-6.200000,1.384682,-5.167703));
#650=CARTESIAN_POINT('',(-7.750000,1.384682,-5.167703));
#651=POLY_LOOP('',(#647,#648,#649,#650));
#652=FACE_OUTER_BOUND('',#651,.T.);
#653=ADVANCED_FACE('',(#652),#646,.T.);
#654=CARTESIAN_POINT('',(-7.750000,1.384682,-5.167703));
#655=DIRECTION('',(0.000000000,-0.382683432,0.923879533));
#656=DIRECTION('',(0.000000000,0.923879533,0.382683432));
#657=AXIS2_PLACEMENT_3D('',#654,#655,#656);
#658=PLANE('',#657);
#659=CARTESIAN_POINT('',(-7.750000,1.384682,-5.167703));
#660=CARTESIAN_POINT('',(-6.200000,1.384682,-5.167703));
#661=CARTESIAN_POINT('',(-6.200000,2.675000,-4.633236));
#662=CARTESIAN_POINT('',(-7.750000,2.675000,-4.633236));
#663=POLY_LOOP('',(#659,#660,#661,#662));
#664=FACE_OUTER_BOUND('',#663,.T.);
#665=ADVANCED_FACE('',(#664),#658,.T.);
#666=CARTESIAN_POINT('',(-7.750000,2.675000,-4.633236));
#667=DIRECTION('',(0.000000000,-0.608761429,0.793353340));
#668=DIRECTION('',(0.000000000,0.793353340,0.608761429));
#669=AXIS2_PLACEMENT_3D('',#666,#667,#668);
#670=PLANE('',#669);
#671=CARTESIAN_POINT('',(-7.750000,2.675000,-4.633236));
#672=CARTESIAN_POINT('',(-6.200000,2.675000,-4.633236));
#673=CARTESIAN_POINT('',(-6.200000,3.783021,-3.783021));
#674=CARTESIAN_POINT('',(-7.750000,3.783021,-3.783021));
#675=POLY_LOOP('',(#671,#672,#673,#674));
#676=FACE_OUTER_BOUND('',#675,.T.);
#677=ADVANCED_FACE('',(#676),#670,.T.);
#678=CARTESIAN_POINT('',(-7.750000,3.783021,-3.783021));
#679=DIRECTION('',(0.000000000,-0.793353340,0.608761429));
#680=DIRECTION('',(0.000000000,0.608761429,0.793353340));
#681=AXIS2_PLACEMENT_3D('',#678,#679,#680);
#682=PLANE('',#681);
#683=CARTESIAN_POINT('',(-7.750000,3.783021,-3.783021));
#684=CARTESIAN_POINT('',(-6.200000,3.783021,-3.783021));
#685=CARTESIAN_POINT('',(-6.200000,4.633236,-2.675000));
#686=CARTESIAN_POINT('',(-7.750000,4.633236,-2.675000));
#687=POLY_LOOP('',(#683,#684,#685,#686));
#688=FACE_OUTER_BOUND('',#687,.T.);
#689=ADVANCED_FACE('',(#688),#682,.T.);
#690=CARTESIAN_POINT('',(-7.750000,4.633236,-2.675000));
#691=DIRECTION('',(0.000000000,-0.923879533,0.382683432));
#692=DIRECTION('',(0.000000000,0.382683432,0.923879533));
#693=AXIS2_PLACEMENT_3D('',#690,#691,#692);
#694=PLANE('',#693);
#695=CARTESIAN_POINT('',(-7.750000,4.633236,-2.675000));
#696=CARTESIAN_POINT('',(-6.200000,4.633236,-2.675000));
#697=CARTESIAN_POINT('',(-6.200000,5.167703,-1.384682));
#698=CARTESIAN_POINT('',(-7.750000,5.167703,-1.384682));
#699=POLY_LOOP('',(#695,#696,#697,#698));
#700=FACE_OUTER_BOUND('',#699,.T.);
#701=ADVANCED_FACE('',(#700),#694,.T.);
#702=CARTESIAN_POINT('',(-7.750000,5.167703,-1.384682));
#703=DIRECTION('',(0.000000000,-0.991444861,0.130526192));
#704=DIRECTION('',(0.000000000,0.130526192,0.991444861));
#705=AXIS2_PLACEMENT_3D('',#702,#703,#704);
#706=PLANE('',#705);
#707=CARTESIAN_POINT('',(-7.750000,5.167703,-1.384682));
#708=CARTESIAN_POINT('',(-6.200000,5.167703,-1.384682));
#709=CARTESIAN_POINT('',(-6.200000,5.350000,0.000000));
#710=CARTESIAN_POINT('',(-7.750000,5.350000,0.000000));
#711=POLY_LOOP('',(#707,#708,#709,#710));
#712=FACE_OUTER_BOUND('',#711,.T.);
#713=ADVANCED_FACE('',(#712),#706,.T.);
#714=CLOSED_SHELL('',(#393,#425,#437,#449,#461,#473,#485,#497,#509,#521,#533,#545,#557,#569,#581,#593,#605,#617,#629,#641,#653,#665,#677,#689,#701,#713));
#715=MANIFOLD_SOLID_BREP('MK36_collerette',#714);
#716=(GEOMETRIC_REPRESENTATION_CONTEXT(3)GLOBAL_UNIT_ASSIGNED_CONTEXT((#1,#2,#3))GLOBAL_UNCERTAINTY_ASSIGNED_CONTEXT((#4))REPRESENTATION_CONTEXT('',''));
#717=SHAPE_REPRESENTATION('MK36',(#361,#715),#716);
#718=PRODUCT('MK36','MK36 · sans adaptateur','corps 15.5×9.3×9.3 mm, collerette Ø10.7 mm, enveloppe 15.5×9.3×9.3 mm',(#6));
#719=PRODUCT_DEFINITION_FORMATION('','',#718);
#720=PRODUCT_DEFINITION('','',#719,#7);
#721=PRODUCT_DEFINITION_SHAPE('','',#720);
#722=SHAPE_DEFINITION_REPRESENTATION(#721,#717);
ENDSEC;
END-ISO-10303-21;
