ISO-10303-21;
HEADER;
FILE_DESCRIPTION(('STEP d''encombrement · modèle simplifié | capteur MK37 | corps 22×9.3×9.3 mm, collerette Ø10.7 mm, enveloppe 22×9.3×9.3 mm | provenance : MK37.pdf, page 2 | Ce fichier n''est ni un fichier fabricant ni une CAO de fabrication : géométrie d''encombrement approximée (FACETED_BREP), générée par scripts/generate-step-envelopes.ts.'),'2;1');
FILE_NAME('step/MK37.step','2026-01-01T00:00:00',('Standex Sensor Studio'),('Standex Detect'),'generate-step-envelopes.ts','','');
FILE_SCHEMA(('AUTOMOTIVE_DESIGN { 1 0 10303 214 1 1 1 1 }'));
ENDSEC;
DATA;
#1=(NAMED_UNIT(*)LENGTH_UNIT()SI_UNIT(.MILLI.,.METRE.));
#2=(NAMED_UNIT(*)PLANE_ANGLE_UNIT()SI_UNIT($,.RADIAN.));
#3=(NAMED_UNIT(*)SOLID_ANGLE_UNIT()SI_UNIT($,.STERADIAN.));
#4=UNCERTAINTY_MEASURE_WITH_UNIT(LENGTH_MEASURE(1.0E-6),#1,'distance_accuracy_value','');
#5=APPLICATION_CONTEXT('encombrement capteur reed - modele simplifie');
#6=PRODUCT_CONTEXT('',#5,'mechanical');
#7=PRODUCT_DEFINITION_CONTEXT('',#5,'design');
#8=CARTESIAN_POINT('',(-11.000000,4.491555,-1.203509));
#9=DIRECTION('',(-1.000000000,0.000000000,0.000000000));
#10=DIRECTION('',(0.000000000,0.000000000,-1.000000000));
#11=AXIS2_PLACEMENT_3D('',#8,#9,#10);
#12=PLANE('',#11);
#13=CARTESIAN_POINT('',(-11.000000,4.027018,-2.325000));
#14=CARTESIAN_POINT('',(-11.000000,3.288047,-3.288047));
#15=CARTESIAN_POINT('',(-11.000000,2.325000,-4.027018));
#16=CARTESIAN_POINT('',(-11.000000,1.203509,-4.491555));
#17=CARTESIAN_POINT('',(-11.000000,-0.000000,-4.650000));
#18=CARTESIAN_POINT('',(-11.000000,-1.203509,-4.491555));
#19=CARTESIAN_POINT('',(-11.000000,-2.325000,-4.027018));
#20=CARTESIAN_POINT('',(-11.000000,-3.288047,-3.288047));
#21=CARTESIAN_POINT('',(-11.000000,-4.027018,-2.325000));
#22=CARTESIAN_POINT('',(-11.000000,-4.491555,-1.203509));
#23=CARTESIAN_POINT('',(-11.000000,-4.650000,0.000000));
#24=CARTESIAN_POINT('',(-11.000000,-4.491555,1.203509));
#25=CARTESIAN_POINT('',(-11.000000,-4.027018,2.325000));
#26=CARTESIAN_POINT('',(-11.000000,-3.288047,3.288047));
#27=CARTESIAN_POINT('',(-11.000000,-2.325000,4.027018));
#28=CARTESIAN_POINT('',(-11.000000,-1.203509,4.491555));
#29=CARTESIAN_POINT('',(-11.000000,0.000000,4.650000));
#30=CARTESIAN_POINT('',(-11.000000,1.203509,4.491555));
#31=CARTESIAN_POINT('',(-11.000000,2.325000,4.027018));
#32=CARTESIAN_POINT('',(-11.000000,3.288047,3.288047));
#33=CARTESIAN_POINT('',(-11.000000,4.027018,2.325000));
#34=CARTESIAN_POINT('',(-11.000000,4.491555,1.203509));
#35=CARTESIAN_POINT('',(-11.000000,4.650000,0.000000));
#36=POLY_LOOP('',(#8,#13,#14,#15,#16,#17,#18,#19,#20,#21,#22,#23,#24,#25,#26,#27,#28,#29,#30,#31,#32,#33,#34,#35));
#37=FACE_OUTER_BOUND('',#36,.T.);
#38=FACE_SURFACE('',(#37),#12,.T.);
#39=CARTESIAN_POINT('',(11.000000,4.650000,0.000000));
#40=DIRECTION('',(1.000000000,0.000000000,0.000000000));
#41=DIRECTION('',(0.000000000,0.000000000,1.000000000));
#42=AXIS2_PLACEMENT_3D('',#39,#40,#41);
#43=PLANE('',#42);
#44=CARTESIAN_POINT('',(11.000000,4.491555,1.203509));
#45=CARTESIAN_POINT('',(11.000000,4.027018,2.325000));
#46=CARTESIAN_POINT('',(11.000000,3.288047,3.288047));
#47=CARTESIAN_POINT('',(11.000000,2.325000,4.027018));
#48=CARTESIAN_POINT('',(11.000000,1.203509,4.491555));
#49=CARTESIAN_POINT('',(11.000000,0.000000,4.650000));
#50=CARTESIAN_POINT('',(11.000000,-1.203509,4.491555));
#51=CARTESIAN_POINT('',(11.000000,-2.325000,4.027018));
#52=CARTESIAN_POINT('',(11.000000,-3.288047,3.288047));
#53=CARTESIAN_POINT('',(11.000000,-4.027018,2.325000));
#54=CARTESIAN_POINT('',(11.000000,-4.491555,1.203509));
#55=CARTESIAN_POINT('',(11.000000,-4.650000,0.000000));
#56=CARTESIAN_POINT('',(11.000000,-4.491555,-1.203509));
#57=CARTESIAN_POINT('',(11.000000,-4.027018,-2.325000));
#58=CARTESIAN_POINT('',(11.000000,-3.288047,-3.288047));
#59=CARTESIAN_POINT('',(11.000000,-2.325000,-4.027018));
#60=CARTESIAN_POINT('',(11.000000,-1.203509,-4.491555));
#61=CARTESIAN_POINT('',(11.000000,-0.000000,-4.650000));
#62=CARTESIAN_POINT('',(11.000000,1.203509,-4.491555));
#63=CARTESIAN_POINT('',(11.000000,2.325000,-4.027018));
#64=CARTESIAN_POINT('',(11.000000,3.288047,-3.288047));
#65=CARTESIAN_POINT('',(11.000000,4.027018,-2.325000));
#66=CARTESIAN_POINT('',(11.000000,4.491555,-1.203509));
#67=POLY_LOOP('',(#39,#44,#45,#46,#47,#48,#49,#50,#51,#52,#53,#54,#55,#56,#57,#58,#59,#60,#61,#62,#63,#64,#65,#66));
#68=FACE_OUTER_BOUND('',#67,.T.);
#69=FACE_SURFACE('',(#68),#43,.T.);
#70=DIRECTION('',(0.000000000,-0.991444861,-0.130526192));
#71=DIRECTION('',(0.000000000,-0.130526192,0.991444861));
#72=AXIS2_PLACEMENT_3D('',#35,#70,#71);
#73=PLANE('',#72);
#74=POLY_LOOP('',(#35,#39,#44,#34));
#75=FACE_OUTER_BOUND('',#74,.T.);
#76=FACE_SURFACE('',(#75),#73,.T.);
#77=DIRECTION('',(0.000000000,-0.923879533,-0.382683432));
#78=DIRECTION('',(0.000000000,-0.382683432,0.923879533));
#79=AXIS2_PLACEMENT_3D('',#34,#77,#78);
#80=PLANE('',#79);
#81=POLY_LOOP('',(#34,#44,#45,#33));
#82=FACE_OUTER_BOUND('',#81,.T.);
#83=FACE_SURFACE('',(#82),#80,.T.);
#84=DIRECTION('',(0.000000000,-0.793353340,-0.608761429));
#85=DIRECTION('',(0.000000000,-0.608761429,0.793353340));
#86=AXIS2_PLACEMENT_3D('',#33,#84,#85);
#87=PLANE('',#86);
#88=POLY_LOOP('',(#33,#45,#46,#32));
#89=FACE_OUTER_BOUND('',#88,.T.);
#90=FACE_SURFACE('',(#89),#87,.T.);
#91=DIRECTION('',(0.000000000,-0.608761429,-0.793353340));
#92=DIRECTION('',(0.000000000,-0.793353340,0.608761429));
#93=AXIS2_PLACEMENT_3D('',#32,#91,#92);
#94=PLANE('',#93);
#95=POLY_LOOP('',(#32,#46,#47,#31));
#96=FACE_OUTER_BOUND('',#95,.T.);
#97=FACE_SURFACE('',(#96),#94,.T.);
#98=DIRECTION('',(0.000000000,-0.382683432,-0.923879533));
#99=DIRECTION('',(0.000000000,-0.923879533,0.382683432));
#100=AXIS2_PLACEMENT_3D('',#31,#98,#99);
#101=PLANE('',#100);
#102=POLY_LOOP('',(#31,#47,#48,#30));
#103=FACE_OUTER_BOUND('',#102,.T.);
#104=FACE_SURFACE('',(#103),#101,.T.);
#105=DIRECTION('',(0.000000000,-0.130526192,-0.991444861));
#106=DIRECTION('',(0.000000000,-0.991444861,0.130526192));
#107=AXIS2_PLACEMENT_3D('',#30,#105,#106);
#108=PLANE('',#107);
#109=POLY_LOOP('',(#30,#48,#49,#29));
#110=FACE_OUTER_BOUND('',#109,.T.);
#111=FACE_SURFACE('',(#110),#108,.T.);
#112=DIRECTION('',(0.000000000,0.130526192,-0.991444861));
#113=AXIS2_PLACEMENT_3D('',#29,#112,#70);
#114=PLANE('',#113);
#115=POLY_LOOP('',(#29,#49,#50,#28));
#116=FACE_OUTER_BOUND('',#115,.T.);
#117=FACE_SURFACE('',(#116),#114,.T.);
#118=DIRECTION('',(0.000000000,0.382683432,-0.923879533));
#119=AXIS2_PLACEMENT_3D('',#28,#118,#77);
#120=PLANE('',#119);
#121=POLY_LOOP('',(#28,#50,#51,#27));
#122=FACE_OUTER_BOUND('',#121,.T.);
#123=FACE_SURFACE('',(#122),#120,.T.);
#124=DIRECTION('',(0.000000000,0.608761429,-0.793353340));
#125=AXIS2_PLACEMENT_3D('',#27,#124,#84);
#126=PLANE('',#125);
#127=POLY_LOOP('',(#27,#51,#52,#26));
#128=FACE_OUTER_BOUND('',#127,.T.);
#129=FACE_SURFACE('',(#128),#126,.T.);
#130=DIRECTION('',(0.000000000,0.793353340,-0.608761429));
#131=AXIS2_PLACEMENT_3D('',#26,#130,#91);
#132=PLANE('',#131);
#133=POLY_LOOP('',(#26,#52,#53,#25));
#134=FACE_OUTER_BOUND('',#133,.T.);
#135=FACE_SURFACE('',(#134),#132,.T.);
#136=DIRECTION('',(0.000000000,0.923879533,-0.382683432));
#137=AXIS2_PLACEMENT_3D('',#25,#136,#98);
#138=PLANE('',#137);
#139=POLY_LOOP('',(#25,#53,#54,#24));
#140=FACE_OUTER_BOUND('',#139,.T.);
#141=FACE_SURFACE('',(#140),#138,.T.);
#142=DIRECTION('',(0.000000000,0.991444861,-0.130526192));
#143=AXIS2_PLACEMENT_3D('',#24,#142,#105);
#144=PLANE('',#143);
#145=POLY_LOOP('',(#24,#54,#55,#23));
#146=FACE_OUTER_BOUND('',#145,.T.);
#147=FACE_SURFACE('',(#146),#144,.T.);
#148=DIRECTION('',(0.000000000,0.991444861,0.130526192));
#149=AXIS2_PLACEMENT_3D('',#23,#148,#112);
#150=PLANE('',#149);
#151=POLY_LOOP('',(#23,#55,#56,#22));
#152=FACE_OUTER_BOUND('',#151,.T.);
#153=FACE_SURFACE('',(#152),#150,.T.);
#154=DIRECTION('',(0.000000000,0.923879533,0.382683432));
#155=AXIS2_PLACEMENT_3D('',#22,#154,#118);
#156=PLANE('',#155);
#157=POLY_LOOP('',(#22,#56,#57,#21));
#158=FACE_OUTER_BOUND('',#157,.T.);
#159=FACE_SURFACE('',(#158),#156,.T.);
#160=DIRECTION('',(0.000000000,0.793353340,0.608761429));
#161=AXIS2_PLACEMENT_3D('',#21,#160,#124);
#162=PLANE('',#161);
#163=POLY_LOOP('',(#21,#57,#58,#20));
#164=FACE_OUTER_BOUND('',#163,.T.);
#165=FACE_SURFACE('',(#164),#162,.T.);
#166=DIRECTION('',(0.000000000,0.608761429,0.793353340));
#167=AXIS2_PLACEMENT_3D('',#20,#166,#130);
#168=PLANE('',#167);
#169=POLY_LOOP('',(#20,#58,#59,#19));
#170=FACE_OUTER_BOUND('',#169,.T.);
#171=FACE_SURFACE('',(#170),#168,.T.);
#172=DIRECTION('',(0.000000000,0.382683432,0.923879533));
#173=AXIS2_PLACEMENT_3D('',#19,#172,#136);
#174=PLANE('',#173);
#175=POLY_LOOP('',(#19,#59,#60,#18));
#176=FACE_OUTER_BOUND('',#175,.T.);
#177=FACE_SURFACE('',(#176),#174,.T.);
#178=DIRECTION('',(0.000000000,0.130526192,0.991444861));
#179=AXIS2_PLACEMENT_3D('',#18,#178,#142);
#180=PLANE('',#179);
#181=POLY_LOOP('',(#18,#60,#61,#17));
#182=FACE_OUTER_BOUND('',#181,.T.);
#183=FACE_SURFACE('',(#182),#180,.T.);
#184=AXIS2_PLACEMENT_3D('',#17,#71,#148);
#185=PLANE('',#184);
#186=POLY_LOOP('',(#17,#61,#62,#16));
#187=FACE_OUTER_BOUND('',#186,.T.);
#188=FACE_SURFACE('',(#187),#185,.T.);
#189=AXIS2_PLACEMENT_3D('',#16,#78,#154);
#190=PLANE('',#189);
#191=POLY_LOOP('',(#16,#62,#63,#15));
#192=FACE_OUTER_BOUND('',#191,.T.);
#193=FACE_SURFACE('',(#192),#190,.T.);
#194=AXIS2_PLACEMENT_3D('',#15,#85,#160);
#195=PLANE('',#194);
#196=POLY_LOOP('',(#15,#63,#64,#14));
#197=FACE_OUTER_BOUND('',#196,.T.);
#198=FACE_SURFACE('',(#197),#195,.T.);
#199=AXIS2_PLACEMENT_3D('',#14,#92,#166);
#200=PLANE('',#199);
#201=POLY_LOOP('',(#14,#64,#65,#13));
#202=FACE_OUTER_BOUND('',#201,.T.);
#203=FACE_SURFACE('',(#202),#200,.T.);
#204=AXIS2_PLACEMENT_3D('',#13,#99,#172);
#205=PLANE('',#204);
#206=POLY_LOOP('',(#13,#65,#66,#8));
#207=FACE_OUTER_BOUND('',#206,.T.);
#208=FACE_SURFACE('',(#207),#205,.T.);
#209=AXIS2_PLACEMENT_3D('',#8,#106,#178);
#210=PLANE('',#209);
#211=POLY_LOOP('',(#8,#66,#39,#35));
#212=FACE_OUTER_BOUND('',#211,.T.);
#213=FACE_SURFACE('',(#212),#210,.T.);
#214=CLOSED_SHELL('',(#38,#69,#76,#83,#90,#97,#104,#111,#117,#123,#129,#135,#141,#147,#153,#159,#165,#171,#177,#183,#188,#193,#198,#203,#208,#213));
#215=FACETED_BREP('MK37_corps',#214);
#216=CARTESIAN_POINT('',(-11.000000,5.167703,-1.384682));
#217=AXIS2_PLACEMENT_3D('',#216,#9,#10);
#218=PLANE('',#217);
#219=CARTESIAN_POINT('',(-11.000000,4.633236,-2.675000));
#220=CARTESIAN_POINT('',(-11.000000,3.783021,-3.783021));
#221=CARTESIAN_POINT('',(-11.000000,2.675000,-4.633236));
#222=CARTESIAN_POINT('',(-11.000000,1.384682,-5.167703));
#223=CARTESIAN_POINT('',(-11.000000,-0.000000,-5.350000));
#224=CARTESIAN_POINT('',(-11.000000,-1.384682,-5.167703));
#225=CARTESIAN_POINT('',(-11.000000,-2.675000,-4.633236));
#226=CARTESIAN_POINT('',(-11.000000,-3.783021,-3.783021));
#227=CARTESIAN_POINT('',(-11.000000,-4.633236,-2.675000));
#228=CARTESIAN_POINT('',(-11.000000,-5.167703,-1.384682));
#229=CARTESIAN_POINT('',(-11.000000,-5.350000,0.000000));
#230=CARTESIAN_POINT('',(-11.000000,-5.167703,1.384682));
#231=CARTESIAN_POINT('',(-11.000000,-4.633236,2.675000));
#232=CARTESIAN_POINT('',(-11.000000,-3.783021,3.783021));
#233=CARTESIAN_POINT('',(-11.000000,-2.675000,4.633236));
#234=CARTESIAN_POINT('',(-11.000000,-1.384682,5.167703));
#235=CARTESIAN_POINT('',(-11.000000,0.000000,5.350000));
#236=CARTESIAN_POINT('',(-11.000000,1.384682,5.167703));
#237=CARTESIAN_POINT('',(-11.000000,2.675000,4.633236));
#238=CARTESIAN_POINT('',(-11.000000,3.783021,3.783021));
#239=CARTESIAN_POINT('',(-11.000000,4.633236,2.675000));
#240=CARTESIAN_POINT('',(-11.000000,5.167703,1.384682));
#241=CARTESIAN_POINT('',(-11.000000,5.350000,0.000000));
#242=POLY_LOOP('',(#216,#219,#220,#221,#222,#223,#224,#225,#226,#227,#228,#229,#230,#231,#232,#233,#234,#235,#236,#237,#238,#239,#240,#241));
#243=FACE_OUTER_BOUND('',#242,.T.);
#244=FACE_SURFACE('',(#243),#218,.T.);
#245=CARTESIAN_POINT('',(-9.000000,5.350000,0.000000));
#246=AXIS2_PLACEMENT_3D('',#245,#40,#41);
#247=PLANE('',#246);
#248=CARTESIAN_POINT('',(-9.000000,5.167703,1.384682));
#249=CARTESIAN_POINT('',(-9.000000,4.633236,2.675000));
#250=CARTESIAN_POINT('',(-9.000000,3.783021,3.783021));
#251=CARTESIAN_POINT('',(-9.000000,2.675000,4.633236));
#252=CARTESIAN_POINT('',(-9.000000,1.384682,5.167703));
#253=CARTESIAN_POINT('',(-9.000000,0.000000,5.350000));
#254=CARTESIAN_POINT('',(-9.000000,-1.384682,5.167703));
#255=CARTESIAN_POINT('',(-9.000000,-2.675000,4.633236));
#256=CARTESIAN_POINT('',(-9.000000,-3.783021,3.783021));
#257=CARTESIAN_POINT('',(-9.000000,-4.633236,2.675000));
#258=CARTESIAN_POINT('',(-9.000000,-5.167703,1.384682));
#259=CARTESIAN_POINT('',(-9.000000,-5.350000,0.000000));
#260=CARTESIAN_POINT('',(-9.000000,-5.167703,-1.384682));
#261=CARTESIAN_POINT('',(-9.000000,-4.633236,-2.675000));
#262=CARTESIAN_POINT('',(-9.000000,-3.783021,-3.783021));
#263=CARTESIAN_POINT('',(-9.000000,-2.675000,-4.633236));
#264=CARTESIAN_POINT('',(-9.000000,-1.384682,-5.167703));
#265=CARTESIAN_POINT('',(-9.000000,-0.000000,-5.350000));
#266=CARTESIAN_POINT('',(-9.000000,1.384682,-5.167703));
#267=CARTESIAN_POINT('',(-9.000000,2.675000,-4.633236));
#268=CARTESIAN_POINT('',(-9.000000,3.783021,-3.783021));
#269=CARTESIAN_POINT('',(-9.000000,4.633236,-2.675000));
#270=CARTESIAN_POINT('',(-9.000000,5.167703,-1.384682));
#271=POLY_LOOP('',(#245,#248,#249,#250,#251,#252,#253,#254,#255,#256,#257,#258,#259,#260,#261,#262,#263,#264,#265,#266,#267,#268,#269,#270));
#272=FACE_OUTER_BOUND('',#271,.T.);
#273=FACE_SURFACE('',(#272),#247,.T.);
#274=AXIS2_PLACEMENT_3D('',#241,#70,#71);
#275=PLANE('',#274);
#276=POLY_LOOP('',(#241,#245,#248,#240));
#277=FACE_OUTER_BOUND('',#276,.T.);
#278=FACE_SURFACE('',(#277),#275,.T.);
#279=AXIS2_PLACEMENT_3D('',#240,#77,#78);
#280=PLANE('',#279);
#281=POLY_LOOP('',(#240,#248,#249,#239));
#282=FACE_OUTER_BOUND('',#281,.T.);
#283=FACE_SURFACE('',(#282),#280,.T.);
#284=AXIS2_PLACEMENT_3D('',#239,#84,#85);
#285=PLANE('',#284);
#286=POLY_LOOP('',(#239,#249,#250,#238));
#287=FACE_OUTER_BOUND('',#286,.T.);
#288=FACE_SURFACE('',(#287),#285,.T.);
#289=AXIS2_PLACEMENT_3D('',#238,#91,#92);
#290=PLANE('',#289);
#291=POLY_LOOP('',(#238,#250,#251,#237));
#292=FACE_OUTER_BOUND('',#291,.T.);
#293=FACE_SURFACE('',(#292),#290,.T.);
#294=AXIS2_PLACEMENT_3D('',#237,#98,#99);
#295=PLANE('',#294);
#296=POLY_LOOP('',(#237,#251,#252,#236));
#297=FACE_OUTER_BOUND('',#296,.T.);
#298=FACE_SURFACE('',(#297),#295,.T.);
#299=AXIS2_PLACEMENT_3D('',#236,#105,#106);
#300=PLANE('',#299);
#301=POLY_LOOP('',(#236,#252,#253,#235));
#302=FACE_OUTER_BOUND('',#301,.T.);
#303=FACE_SURFACE('',(#302),#300,.T.);
#304=AXIS2_PLACEMENT_3D('',#235,#112,#70);
#305=PLANE('',#304);
#306=POLY_LOOP('',(#235,#253,#254,#234));
#307=FACE_OUTER_BOUND('',#306,.T.);
#308=FACE_SURFACE('',(#307),#305,.T.);
#309=AXIS2_PLACEMENT_3D('',#234,#118,#77);
#310=PLANE('',#309);
#311=POLY_LOOP('',(#234,#254,#255,#233));
#312=FACE_OUTER_BOUND('',#311,.T.);
#313=FACE_SURFACE('',(#312),#310,.T.);
#314=AXIS2_PLACEMENT_3D('',#233,#124,#84);
#315=PLANE('',#314);
#316=POLY_LOOP('',(#233,#255,#256,#232));
#317=FACE_OUTER_BOUND('',#316,.T.);
#318=FACE_SURFACE('',(#317),#315,.T.);
#319=AXIS2_PLACEMENT_3D('',#232,#130,#91);
#320=PLANE('',#319);
#321=POLY_LOOP('',(#232,#256,#257,#231));
#322=FACE_OUTER_BOUND('',#321,.T.);
#323=FACE_SURFACE('',(#322),#320,.T.);
#324=AXIS2_PLACEMENT_3D('',#231,#136,#98);
#325=PLANE('',#324);
#326=POLY_LOOP('',(#231,#257,#258,#230));
#327=FACE_OUTER_BOUND('',#326,.T.);
#328=FACE_SURFACE('',(#327),#325,.T.);
#329=AXIS2_PLACEMENT_3D('',#230,#142,#105);
#330=PLANE('',#329);
#331=POLY_LOOP('',(#230,#258,#259,#229));
#332=FACE_OUTER_BOUND('',#331,.T.);
#333=FACE_SURFACE('',(#332),#330,.T.);
#334=AXIS2_PLACEMENT_3D('',#229,#148,#112);
#335=PLANE('',#334);
#336=POLY_LOOP('',(#229,#259,#260,#228));
#337=FACE_OUTER_BOUND('',#336,.T.);
#338=FACE_SURFACE('',(#337),#335,.T.);
#339=AXIS2_PLACEMENT_3D('',#228,#154,#118);
#340=PLANE('',#339);
#341=POLY_LOOP('',(#228,#260,#261,#227));
#342=FACE_OUTER_BOUND('',#341,.T.);
#343=FACE_SURFACE('',(#342),#340,.T.);
#344=AXIS2_PLACEMENT_3D('',#227,#160,#124);
#345=PLANE('',#344);
#346=POLY_LOOP('',(#227,#261,#262,#226));
#347=FACE_OUTER_BOUND('',#346,.T.);
#348=FACE_SURFACE('',(#347),#345,.T.);
#349=AXIS2_PLACEMENT_3D('',#226,#166,#130);
#350=PLANE('',#349);
#351=POLY_LOOP('',(#226,#262,#263,#225));
#352=FACE_OUTER_BOUND('',#351,.T.);
#353=FACE_SURFACE('',(#352),#350,.T.);
#354=AXIS2_PLACEMENT_3D('',#225,#172,#136);
#355=PLANE('',#354);
#356=POLY_LOOP('',(#225,#263,#264,#224));
#357=FACE_OUTER_BOUND('',#356,.T.);
#358=FACE_SURFACE('',(#357),#355,.T.);
#359=AXIS2_PLACEMENT_3D('',#224,#178,#142);
#360=PLANE('',#359);
#361=POLY_LOOP('',(#224,#264,#265,#223));
#362=FACE_OUTER_BOUND('',#361,.T.);
#363=FACE_SURFACE('',(#362),#360,.T.);
#364=AXIS2_PLACEMENT_3D('',#223,#71,#148);
#365=PLANE('',#364);
#366=POLY_LOOP('',(#223,#265,#266,#222));
#367=FACE_OUTER_BOUND('',#366,.T.);
#368=FACE_SURFACE('',(#367),#365,.T.);
#369=AXIS2_PLACEMENT_3D('',#222,#78,#154);
#370=PLANE('',#369);
#371=POLY_LOOP('',(#222,#266,#267,#221));
#372=FACE_OUTER_BOUND('',#371,.T.);
#373=FACE_SURFACE('',(#372),#370,.T.);
#374=AXIS2_PLACEMENT_3D('',#221,#85,#160);
#375=PLANE('',#374);
#376=POLY_LOOP('',(#221,#267,#268,#220));
#377=FACE_OUTER_BOUND('',#376,.T.);
#378=FACE_SURFACE('',(#377),#375,.T.);
#379=AXIS2_PLACEMENT_3D('',#220,#92,#166);
#380=PLANE('',#379);
#381=POLY_LOOP('',(#220,#268,#269,#219));
#382=FACE_OUTER_BOUND('',#381,.T.);
#383=FACE_SURFACE('',(#382),#380,.T.);
#384=AXIS2_PLACEMENT_3D('',#219,#99,#172);
#385=PLANE('',#384);
#386=POLY_LOOP('',(#219,#269,#270,#216));
#387=FACE_OUTER_BOUND('',#386,.T.);
#388=FACE_SURFACE('',(#387),#385,.T.);
#389=AXIS2_PLACEMENT_3D('',#216,#106,#178);
#390=PLANE('',#389);
#391=POLY_LOOP('',(#216,#270,#245,#241));
#392=FACE_OUTER_BOUND('',#391,.T.);
#393=FACE_SURFACE('',(#392),#390,.T.);
#394=CLOSED_SHELL('',(#244,#273,#278,#283,#288,#293,#298,#303,#308,#313,#318,#323,#328,#333,#338,#343,#348,#353,#358,#363,#368,#373,#378,#383,#388,#393));
#395=FACETED_BREP('MK37_collerette',#394);
#396=(GEOMETRIC_REPRESENTATION_CONTEXT(3)GLOBAL_UNIT_ASSIGNED_CONTEXT((#1,#2,#3))GLOBAL_UNCERTAINTY_ASSIGNED_CONTEXT((#4))REPRESENTATION_CONTEXT('',''));
#397=FACETED_BREP_SHAPE_REPRESENTATION('MK37',(#215,#395),#396);
#398=PRODUCT('MK37','MK37 · sans adaptateur','corps 22×9.3×9.3 mm, collerette Ø10.7 mm, enveloppe 22×9.3×9.3 mm',(#6));
#399=PRODUCT_DEFINITION_FORMATION('','',#398);
#400=PRODUCT_DEFINITION('','',#399,#7);
#401=PRODUCT_DEFINITION_SHAPE('','',#400);
#402=SHAPE_DEFINITION_REPRESENTATION(#401,#397);
ENDSEC;
END-ISO-10303-21;
